<svg xmlns="http://www.w3.org/2000/svg" viewBox="0 0 130.85 131.5"><defs><style>.cls-1{fill:#845e5e;}.cls-2{fill:#4f3333;}.cls-3{fill:#422929;}.cls-4{fill:#6b4949;}.cls-5{fill:#d8e4ef;}.cls-6{fill:#fff;}.cls-7{fill:#ffebcc;}.cls-8{fill:#9b7676;}.cls-9{fill:#ffb9a4;}.cls-10{fill:#ffc9b6;}.cls-11{fill:#efe8eb;}.cls-12{fill:#604242;}.cls-13{fill:#755454;}.cls-14{fill:#6d4a4a;}.cls-15{fill:#5e3d3d;}.cls-16{fill:#f7dcb7;}.cls-17{fill:#f7c169;}.cls-18{fill:#e8ac54;}.cls-19{fill:#824030;}.cls-20{fill:#ff6485;}.cls-21{fill:#feb51c;}.cls-22{fill:#f4a00b;}</style></defs><title>Asset 3</title><g id="Layer_2" data-name="Layer 2"><g id="Layer_1-2" data-name="Layer 1"><path class="cls-1" d="M128.44,22.73c-.71-7-3.22-13.44-9-18-12.81-10.09-35.23-1.22-39.42.34A208.82,208.82,0,0,0,38.33,26.62C26.27,34.54,14.18,43.52,6.66,55.93.11,66.74-2.43,80.79,2.83,92.61c5.58,12.52,19,18.22,31.08,23.08,8.09,3.24,16.14,6.57,24.29,9.67,7.64,2.9,15.56,5.47,23.79,6,14.68,1,29.77-4.58,36.11-17C135.77,79.66,130.63,44.26,128.44,22.73Z"/><path class="cls-2" d="M30.82,106.37a3.79,3.79,0,0,0,1.39.71s-.13.73,1.59,2.55,2.55,2.63,4.75,2.88a5.65,5.65,0,0,0,4.29-1.76,3.85,3.85,0,0,0,.06-1.2c-.18-2-2.92-3.5-3.95-4.21a4.31,4.31,0,0,1-1.78-3.82c0-1.08-4.67,1.88-6.57.84a10,10,0,0,0-.49,3.19A3.06,3.06,0,0,0,30.82,106.37Z"/><path class="cls-3" d="M31.93,107.56c0,.74,1.55,2.76,3,4s3,2.06,4.49,1.67c2.12-.56,3.66-1.22,3.44-2.45a5.65,5.65,0,0,1-4.29,1.76c-2.2-.25-3-1.05-4.75-2.88s-1.59-2.55-1.59-2.55a3.79,3.79,0,0,1-1.39-.71,3.06,3.06,0,0,1-.71-.82C30.2,106.54,30.73,107.12,31.93,107.56Z"/><path class="cls-2" d="M15.16,115.33c0,.72,0,1.31.95,3.26s2.71,3.68,5,3.21a8.88,8.88,0,0,0,2.72-1.08,4,4,0,0,0-.45-3.2c-1-1.78-2.45-4.49-2.68-6.08,0-.32,0-3.13,0-3.5-.21.11-1.09.27-1.32.35-2.51.9-2.95.48-4.8-.83a9.37,9.37,0,0,1-.3,2.74c-.11.64-.54,1.39-.73,2.22a6.11,6.11,0,0,0,.39,1.4A4.93,4.93,0,0,0,15.16,115.33Z"/><path class="cls-3" d="M13.74,114.26a6.47,6.47,0,0,0,1.17,1.61,7.39,7.39,0,0,0,2,5.16c1.76,2,4,1.42,5.44,1.06.62-.16,1.34-.44,1.49-.91,0-.07,0-.39,0-.46a8.88,8.88,0,0,1-2.72,1.08c-2.29.47-4-1.26-5-3.21s-1-2.54-.95-3.26a4.93,4.93,0,0,1-1.22-1.51,6.11,6.11,0,0,1-.39-1.4A2.5,2.5,0,0,0,13.74,114.26Z"/><path class="cls-4" d="M31.48,42.57c1.16,1.69,3.46,4.57,6.07,5.82s4.87,1,5.89-.38a3.55,3.55,0,0,0,0-3.5,40.62,40.62,0,0,0-6.7-8.93c-1.5-5.67-5-6.3-6.75-5.45-3.23,1.59-3.82,5.18-2.43,8.19C28.28,39.89,30.49,41.18,31.48,42.57Z"/><path class="cls-5" d="M34.71,58.23a2.51,2.51,0,0,1,2.49.85c1.11,1.25.32,3.49.32,3.49a1.13,1.13,0,0,1,.27,1.12c.62-.54.85-.38,1.18,0a.44.44,0,0,1,.79.32c0,.57-.53,1.17-1.82,1.41-1.82.33-3.35-.7-3.39-1.41S32.61,61.05,34.71,58.23Z"/><path class="cls-6" d="M39,46.14a4.36,4.36,0,0,0-1.88,1.71c-.35.63-.81,3.65-1.6,5.6a13.94,13.94,0,0,0-.73,5.34c0,1.22,2.42,1.72,2.63,1,.38-1.3,1.17-1.83,2.35-3.55a52.25,52.25,0,0,0,3.83-6.63c.4-1.09,1.35-2.66-.27-3.25C41.94,45.87,40.3,45.32,39,46.14Z"/><path class="cls-6" d="M39.34,87c.09-2,.08-4.58,0-6.57s.93-17-6.1-21.34c-.11-.15-6.73.78-8.94,1a.71.71,0,0,0-.62.61C22.41,68,23.11,74,27,80.62a12.64,12.64,0,0,0,3.07,3.55A18.7,18.7,0,0,0,29,92.43c.17,1,.69,3,1,6.12-1,1.2-.3,3.75,0,4.18,1,1.38,6.07,1.44,7.44-.37.7-.94.94-2.77-.31-3.08C38.26,97.4,39.25,88.81,39.34,87Z"/><path class="cls-6" d="M28.11,70.89c2.36-1.63,3.12-4.66,2.75-10.28-2-2.91-10.31-.75-13.38-.73-2.8,2.21-2.15,6-1.42,9.68-.78,3.33-2.5,8.32-3.09,13.55-.15,1.31-.29,4.27,1,5.46-1.47,3.31-.62,6.53-.07,10.66.07.49-.6,4,.2,6.44-1.16.87-.44,2-.2,3.45.4,2.32,4.1,2.52,6.3,2,.44-.12,1.19-.59,1.25-1.23a3,3,0,0,0-.15-1.1c-.16-.57.52-.94.81-1.86a40,40,0,0,0,.52-4.21c.85-4.93,1.46-8.91,1.14-12.81,1-1.56,1.91-2.49,2.29-4.29C27.06,80.92,27.41,75.58,28.11,70.89Z"/><path class="cls-7" d="M16.07,61.61l-.41,1.1a9.34,9.34,0,0,0,5.95,2.86c1.75.23,3.93.14,5.24.62,1.09.4,2.66,1.44,3.66,1,1.74-.69,4.27-6.88,4.27-6.88s-10.65,3.55-13.17,2.84Z"/><path class="cls-7" d="M15.66,58.92c.34-1.87,2.85-2,2.85-2l1,3.47S15.16,61.62,15.66,58.92Z"/><path class="cls-8" d="M34.49,58.77c1-1.71.36-8.13-.22-10.91,1.24-4.62,1.71-8,.77-11.76-.59-2.33-2.72-5-5.58-5.16-1.4-.07-6.13,1.89-7,2.38-3.67,1-5.86,2.8-8.33,5.52-.31.34.93,11.18,1.55,13.21.71,2.37.31,6,.86,8.21-.27,2.16,6.33,3.42,8.28,3.43C31.48,63.72,33.11,61.86,34.49,58.77Z"/><path class="cls-4" d="M18.51,56.92a5.19,5.19,0,0,0,3.6.3,7.66,7.66,0,0,0,3.2-1.64s-2.6.84-3.77,1.05A28.74,28.74,0,0,1,18.51,56.92Z"/><path class="cls-4" d="M20.08,34.18A4.13,4.13,0,0,0,23,37.27c3.89,1.35,6.65-.5,7.4-2.56s-1.64-3.77-1.64-3.77A20.56,20.56,0,0,0,20.08,34.18Z"/><path class="cls-6" d="M15.66,58.92l-.74,1.83a20.88,20.88,0,0,0,5.87,3c4.3,1.61,9.08.69,11.19-1.19s3.42-3.05,3.56-4.77a37.85,37.85,0,0,0-.27-7.33c-.35-2.71-1-9.88-1-9.88a16.81,16.81,0,0,1-4.81,2.2,29.28,29.28,0,0,1-5.39,1s.15,6.67-.63,9.56c-.56,2.12-1.4,4.26-3.7,5.41A4.7,4.7,0,0,1,15.66,58.92Z"/><path class="cls-6" d="M18.92,34.77A9.49,9.49,0,0,1,22.35,39a24.6,24.6,0,0,1,1.75,7l1.7-.5a15.78,15.78,0,0,0-1.91-7.26c-2.17-3.49-2.83-4.35-4.36-4.36C18.67,33.9,18.92,34.77,18.92,34.77Z"/><path class="cls-6" d="M27.52,31.32A9.49,9.49,0,0,1,31,35.53a24.6,24.6,0,0,1,1.75,7l1.71-.5a15.85,15.85,0,0,0-1.92-7.26c-2.17-3.49-2.83-4.35-4.36-4.36C27.27,30.45,27.52,31.32,27.52,31.32Z"/><path class="cls-9" d="M28.73,29.86a9.74,9.74,0,0,1-3,.27,7.07,7.07,0,0,1-3.22-1.56,21.29,21.29,0,0,1-.95,5.15c-.59,1.31,2.27,2.65,4.73,2.39,1.72-.19,3.24-1.68,3.23-2.32C29,31.94,28.92,30.72,28.73,29.86Z"/><path class="cls-10" d="M31.35,24.25c-.25-1.57-.81-3.51-2.15-4.49s-3.39-.85-4.94-.57c-2.39.44-3.78,3.3-3,6.33.71,2.81,3.11,7,6.35,7.21,1.65.12,2.77-1.24,3.33-2.87A12.9,12.9,0,0,0,31.35,24.25Z"/><path class="cls-7" d="M19.65,59.48A14.66,14.66,0,0,0,23.2,61a6.57,6.57,0,0,0,3.06,0,20.87,20.87,0,0,1-3.06-.69C21.17,59.76,19.65,59.48,19.65,59.48Z"/><path class="cls-7" d="M14.06,84.86a18,18,0,0,0,1.22,2.61,6.75,6.75,0,0,0,1.62,1.66,3.37,3.37,0,0,0-1.24-2.61A5.66,5.66,0,0,1,14.06,84.86Z"/><path class="cls-7" d="M17.06,90s-1.58.53-2,1.31-.8,1.59-.8,1.59A1.6,1.6,0,0,0,15.89,92C16.59,90.9,17.06,90,17.06,90Z"/><path class="cls-2" d="M31,18.8c-1.21-.88-4.43-1.53-5.79-.3l-.06,0a4.14,4.14,0,0,0-5,2.62c-1.29,3.61,2.11,6.32,2,10a2.66,2.66,0,0,0,1.06-1.53c.23-.79,1.21-2.3,1.21-3.55a6.57,6.57,0,0,0,2.77-1.54,3.12,3.12,0,0,0,.49-.81c1.08.61,3.4,1.58,4.15.65A4,4,0,0,0,31,18.8Z"/><path class="cls-10" d="M24.8,26.74s-.87-1.74-1.74-.39.56,2.75.56,2.75Z"/><path class="cls-6" d="M22.35,17.82c-1.66.83-4.52,3.51-3.46,6.64s2.68,3.64,2.68,3.64a11.48,11.48,0,0,1,4.67-2.49,15.7,15.7,0,0,1,5.24-.47c1.08-.06,1.71-1.93,1.51-4.23s-.71-3.86-3.5-4.28A13.07,13.07,0,0,0,22.35,17.82Z"/><path class="cls-7" d="M21.23,27.93a8.2,8.2,0,0,1,4.24-2.54,24.15,24.15,0,0,1,6.32-.32s.25.58-.32.59a20.17,20.17,0,0,0-6.46.48,9.22,9.22,0,0,0-3.39,2.09S21.3,28.1,21.23,27.93Z"/><path class="cls-7" d="M31.27,20.39a10.62,10.62,0,0,1,0,1.92c-.11,1-.32,2.15-.32,2.15a2.91,2.91,0,0,0,.9-2.15A2.66,2.66,0,0,0,31.27,20.39Z"/><path class="cls-7" d="M27.72,21.33a10.89,10.89,0,0,0,0,2.35,1.13,1.13,0,0,0,.48.78,9.47,9.47,0,0,0,0-1.77A4.43,4.43,0,0,0,27.72,21.33Z"/><path class="cls-7" d="M20.93,23.35a3.63,3.63,0,0,0,.94,1.36,6.33,6.33,0,0,0,1.62.87,2.71,2.71,0,0,0-.84-1.14A6.59,6.59,0,0,0,20.93,23.35Z"/><path class="cls-7" d="M24.12,22.06a6.2,6.2,0,0,0,0,1.78A2.26,2.26,0,0,0,24.59,25a2,2,0,0,0,.21-1.46A2.88,2.88,0,0,0,24.12,22.06Z"/><path class="cls-7" d="M20.08,25.56a3.1,3.1,0,0,0,1,.58,1.55,1.55,0,0,0,1,0s-.62-.32-1-.58A1.11,1.11,0,0,0,20.08,25.56Z"/><path class="cls-7" d="M38.57,46.86a4.17,4.17,0,0,0-.41.94,2,2,0,0,0,0,.86,2.3,2.3,0,0,0,.62-.9A1.29,1.29,0,0,0,38.57,46.86Z"/><path class="cls-7" d="M39.4,46.65s-.07.91.36,1.11a1.28,1.28,0,0,0,.9,0A3,3,0,0,0,39.4,46.65Z"/><path class="cls-7" d="M43,47.25a2,2,0,0,0-1,.86,2.52,2.52,0,0,0-.26.94s1.1-.52,1.25-.94A1.37,1.37,0,0,0,43,47.25Z"/><path class="cls-4" d="M17.58,55.86c1.85-1.73,2-6.42,1.31-8.55,0,0,1-4.65.29-7.27-.38-1.42-1.12-4-3-3.7-2.81.17-5.37,4.89-3.82,10.27-.83,1.8-1,6-.77,9,.06.64,0,3,0,3.5.28.47,2.08,1.28,2.88,1.92C14.86,58.91,15.76,56.35,17.58,55.86Z"/><path class="cls-7" d="M21.89,57s3.31,1.45,4.65,2.15,3.07,1.58,4.64,1.34a6,6,0,0,1,2.08-.1,3,3,0,0,1-2.08,1.88c-1.71.49-3.82.84-5.34.07a47.53,47.53,0,0,1-5.34-4A5.25,5.25,0,0,0,21.89,57Z"/><polygon class="cls-11" points="36.2 51.89 36.89 52.27 31.59 64.71 30.9 64.32 36.2 51.89"/><polygon class="cls-6" points="46.02 47 45.34 46.61 36.2 51.89 36.89 52.27 46.02 47"/><polygon class="cls-2" points="40.81 61.91 29.91 68.2 36.23 53.37 47.13 47.07 40.81 61.91"/><polygon class="cls-12" points="35.41 52.91 36.23 53.37 29.91 68.2 29.09 67.74 35.41 52.91"/><polygon class="cls-13" points="47.13 47.07 46.31 46.61 35.41 52.91 36.23 53.37 47.13 47.07"/><path class="cls-6" d="M35.37,63.4c-.59-.67-2.26.45-3.52-.53a6.13,6.13,0,0,0-.51-.36l.51-1.25a5.36,5.36,0,0,0-2.58.37c-1.33-.2-4.52-2.1-5.54-2.54-1.82-.79-3.43-3.06-4.39-3.51-.64-.3-1.75-1.1-2.79-.32S15.33,57,14.92,57.41s-2.07,1.81-1.59,3.14c.34,1,.87.45,2.33,1.28a17,17,0,0,0,4.21,1.86c.75.19,1.92.66,2.82.86,1.91.41,3.62.5,4.8.66.36.32.81.79,1.06,1,.73.63,2.61.37,4.09-.21S36,64.08,35.37,63.4Z"/><path class="cls-7" d="M15.36,58.1a4.31,4.31,0,0,0,1.13.69,1.43,1.43,0,0,0,1.07,0,1.34,1.34,0,0,0-.75-.62A4.86,4.86,0,0,0,15.36,58.1Z"/><path class="cls-7" d="M16.08,57.18a2.28,2.28,0,0,1,1.35-.69,1.73,1.73,0,0,1,1.08.43,1.84,1.84,0,0,1-1.08.49A5.18,5.18,0,0,1,16.08,57.18Z"/><path class="cls-7" d="M14.3,60.34a6.41,6.41,0,0,0,1.53.42c.73.07.94-.21.94-.21a2.05,2.05,0,0,0-1.15-.43A2.73,2.73,0,0,0,14.3,60.34Z"/><polygon class="cls-8" points="53.11 85.44 106.6 116.43 125.23 105.53 71.74 74.54 53.11 85.44"/><polygon class="cls-14" points="53.11 85.44 53.11 86.85 106.6 117.84 106.6 116.43 53.11 85.44"/><polygon class="cls-15" points="125.23 105.53 125.23 106.94 106.6 117.84 106.6 116.43 125.23 105.53"/><path class="cls-16" d="M63,101l3.47-8.07L54.8,86.16,51,88.38v5a1,1,0,0,0,.39.9h0Z"/><path class="cls-7" d="M66.45,92.88v5A2.64,2.64,0,0,1,65.36,100l-1.65,1c-.61.35-1.1,0-1.1-.83v-5Z"/><polygon class="cls-6" points="66.45 92.89 54.8 86.16 50.96 88.38 62.61 95.1 66.45 92.89"/><path class="cls-16" d="M53.19,88.41c.32-.4.9-.75,1.31-.48a.88.88,0,0,1,.86-.28,1,1,0,0,1,.62.59.41.41,0,0,1,.43,0,.48.48,0,0,1,.22.5.49.49,0,0,1,.47.13.51.51,0,0,1,.16.38,1,1,0,0,1,.85-.06.77.77,0,0,1,.39.51.48.48,0,0,1,.39-.06.54.54,0,0,1,.36.45A.53.53,0,0,1,60,90a.79.79,0,0,1,.21.71.67.67,0,0,1,.81,0,.59.59,0,0,1,.14.38.81.81,0,0,1,.78.13,1,1,0,0,1,.29.4.54.54,0,0,1,.64.33.81.81,0,0,1,.91.3,1.07,1.07,0,0,1,.1.48.59.59,0,0,1,.46.06c.12.05.08.08.2.09s.34-.08.52-.06a.91.91,0,0,1,.58.3l.5-.29-11.26-6.5-3.55,2,.71.41a1.42,1.42,0,0,1,.25-.3A.78.78,0,0,1,53.19,88.41Z"/><path class="cls-17" d="M65,92.85c-.18,0-.36.08-.52.06s-.08,0-.2-.09a.59.59,0,0,0-.46-.06,1.07,1.07,0,0,0-.1-.48.81.81,0,0,0-.91-.3.54.54,0,0,0-.64-.33,1,1,0,0,0-.29-.4.81.81,0,0,0-.78-.13.59.59,0,0,0-.14-.38.67.67,0,0,0-.81,0A.79.79,0,0,0,60,90a.53.53,0,0,0-.72,0,.54.54,0,0,0-.36-.45.48.48,0,0,0-.39.06.77.77,0,0,0-.39-.51,1,1,0,0,0-.85.06.51.51,0,0,0-.16-.38.49.49,0,0,0-.47-.13.48.48,0,0,0-.22-.5.41.41,0,0,0-.43,0,1,1,0,0,0-.62-.59.88.88,0,0,0-.86.28c-.41-.27-1,.08-1.31.48a.78.78,0,0,0-.93.11,1.42,1.42,0,0,0-.25.3l10.55,6.09,3-1.76A.91.91,0,0,0,65,92.85Z"/><path class="cls-18" d="M55.15,88.28a.21.21,0,0,0-.26,0,.2.2,0,0,0-.08.14c0,.17.17.2.29.13S55.29,88.37,55.15,88.28Z"/><path class="cls-18" d="M58.74,90.8a.21.21,0,0,0-.26,0,.17.17,0,0,0-.09.14c0,.17.18.19.29.13S58.87,90.9,58.74,90.8Z"/><path class="cls-18" d="M62.75,93.81a.21.21,0,0,0-.26,0,.18.18,0,0,0-.09.14c0,.17.18.2.29.13S62.88,93.9,62.75,93.81Z"/><path class="cls-18" d="M54.19,88.94a.2.2,0,0,0-.26-.12h0s0,0,0,0,0,.22.15.25A.13.13,0,0,0,54.19,88.94Z"/><path class="cls-18" d="M56.89,90.78c0-.1-.16-.19-.26-.13h0a0,0,0,0,0,0,0,.21.21,0,0,0,.15.25C56.84,91,56.92,90.87,56.89,90.78Z"/><path class="cls-18" d="M59.86,92.56c0-.09-.16-.18-.25-.12h0s0,0,0,0a.23.23,0,0,0,.15.25A.13.13,0,0,0,59.86,92.56Z"/><path class="cls-18" d="M62.16,92.08A.2.2,0,0,0,61.9,92h0s0,0,0,0,0,.22.15.25A.13.13,0,0,0,62.16,92.08Z"/><path class="cls-18" d="M54.83,89.33c0-.13-.21-.1-.3,0h0a.11.11,0,0,0-.06.07c0,.12.08.16.17.15S54.86,89.46,54.83,89.33Z"/><path class="cls-18" d="M56.29,90.46c0-.14-.22-.11-.31-.06h0a.09.09,0,0,0-.06.07c0,.12.08.16.17.15S56.32,90.59,56.29,90.46Z"/><path class="cls-18" d="M59.29,90.73c0-.14-.21-.11-.3-.06h0s0,0-.06.07.08.16.18.16S59.32,90.86,59.29,90.73Z"/><path class="cls-18" d="M60.55,91.66c0-.13-.21-.1-.3-.06s0,0,0,0a.1.1,0,0,0-.07.07c0,.12.08.16.18.15S60.58,91.79,60.55,91.66Z"/><path class="cls-18" d="M62.8,92.22c0-.14-.21-.11-.3-.06a0,0,0,0,0,0,0,.12.12,0,0,0-.07.07c0,.13.09.16.18.15S62.83,92.35,62.8,92.22Z"/><path class="cls-18" d="M56.54,89a.18.18,0,0,0-.27,0,.11.11,0,0,0-.07.08c0,.13.12.19.23.16S56.63,89.13,56.54,89Z"/><path class="cls-18" d="M58.05,91.45a.19.19,0,0,0-.28,0,.12.12,0,0,0-.07.07.16.16,0,0,0,.23.16C58,91.66,58.13,91.55,58.05,91.45Z"/><path class="cls-18" d="M61,93.2a.18.18,0,0,0-.27,0,.18.18,0,0,0-.07.08c0,.13.12.19.23.16S61,93.31,61,93.2Z"/><path class="cls-18" d="M63.9,93.2a.19.19,0,0,0-.28,0,.18.18,0,0,0-.07.08c0,.13.13.19.23.16S64,93.31,63.9,93.2Z"/><path class="cls-18" d="M58.12,89.65a.19.19,0,0,0-.27,0s-.07,0-.07.08.12.2.22.16S58.21,89.76,58.12,89.65Z"/><path class="cls-16" d="M75.4,108.3l3.47-8.06L67.22,93.52l-3.85,2.22v5a1,1,0,0,0,.39.89h0Z"/><path class="cls-7" d="M78.87,100.24v5a2.62,2.62,0,0,1-1.1,2.09l-1.65,1c-.6.34-1.09,0-1.09-.83v-5Z"/><polygon class="cls-6" points="78.87 100.24 67.22 93.52 63.37 95.73 75.03 102.45 78.87 100.24"/><path class="cls-16" d="M65.61,95.76c.31-.4.89-.75,1.3-.48a.89.89,0,0,1,.87-.28.94.94,0,0,1,.61.6.39.39,0,0,1,.44,0,.44.44,0,0,1,.21.5.48.48,0,0,1,.48.12.52.52,0,0,1,.15.39.94.94,0,0,1,.86-.07.87.87,0,0,1,.39.51.44.44,0,0,1,.39,0,.5.5,0,0,1,.35.44.55.55,0,0,1,.73,0,.79.79,0,0,1,.21.71.67.67,0,0,1,.81,0,.65.65,0,0,1,.14.38.84.84,0,0,1,.78.13,1.08,1.08,0,0,1,.29.41.51.51,0,0,1,.63.32.83.83,0,0,1,.91.3,1,1,0,0,1,.11.49.59.59,0,0,1,.46,0c.12,0,.08.08.2.1s.34-.09.51-.07a.89.89,0,0,1,.58.3l.5-.29-11.25-6.5-3.55,2.05.71.41a1,1,0,0,1,.25-.3A.78.78,0,0,1,65.61,95.76Z"/><path class="cls-17" d="M77.44,100.2c-.17,0-.35.08-.51.07s-.08,0-.2-.1a.59.59,0,0,0-.46,0,1,1,0,0,0-.11-.49.83.83,0,0,0-.91-.3.51.51,0,0,0-.63-.32,1.08,1.08,0,0,0-.29-.41.84.84,0,0,0-.78-.13.65.65,0,0,0-.14-.38.67.67,0,0,0-.81,0,.79.79,0,0,0-.21-.71.55.55,0,0,0-.73,0,.5.5,0,0,0-.35-.44.44.44,0,0,0-.39,0,.87.87,0,0,0-.39-.51.94.94,0,0,0-.86.07.52.52,0,0,0-.15-.39.48.48,0,0,0-.48-.12.44.44,0,0,0-.21-.5.39.39,0,0,0-.44,0,.94.94,0,0,0-.61-.6.89.89,0,0,0-.87.28c-.41-.27-1,.08-1.3.48a.78.78,0,0,0-.93.11,1,1,0,0,0-.25.3L75,102.26l3-1.76A.89.89,0,0,0,77.44,100.2Z"/><path class="cls-18" d="M67.57,95.63a.2.2,0,0,0-.26,0,.19.19,0,0,0-.09.14c0,.16.18.19.3.13S67.7,95.72,67.57,95.63Z"/><path class="cls-18" d="M71.16,98.16a.21.21,0,0,0-.26,0,.17.17,0,0,0-.09.14c0,.17.17.2.29.13S71.29,98.25,71.16,98.16Z"/><path class="cls-18" d="M75.17,101.16a.21.21,0,0,0-.26,0,.18.18,0,0,0-.09.14c0,.17.17.2.29.13S75.3,101.25,75.17,101.16Z"/><path class="cls-18" d="M66.61,96.29c0-.09-.17-.18-.26-.12h0a0,0,0,0,0,0,0c0,.09,0,.22.14.25A.13.13,0,0,0,66.61,96.29Z"/><path class="cls-18" d="M69.3,98.13a.19.19,0,0,0-.25-.13h0l0,0a.24.24,0,0,0,.15.26A.13.13,0,0,0,69.3,98.13Z"/><path class="cls-18" d="M72.28,99.92c0-.1-.16-.19-.26-.13h0a0,0,0,0,0,0,0,.21.21,0,0,0,.15.25A.12.12,0,0,0,72.28,99.92Z"/><path class="cls-18" d="M74.58,99.43c0-.09-.17-.18-.26-.12h0a.05.05,0,0,0,0,0,.24.24,0,0,0,.15.25C74.53,99.63,74.6,99.53,74.58,99.43Z"/><path class="cls-18" d="M67.25,96.69c0-.14-.22-.11-.31-.06a0,0,0,0,1,0,0,.09.09,0,0,0-.06.07c0,.12.08.16.17.15S67.28,96.81,67.25,96.69Z"/><path class="cls-18" d="M68.7,97.81c0-.14-.21-.11-.3-.06a0,0,0,0,0,0,0,.16.16,0,0,0-.07.07c0,.13.08.16.18.16S68.73,97.94,68.7,97.81Z"/><path class="cls-18" d="M71.71,98.08c0-.13-.22-.11-.31-.06s0,0,0,0a.09.09,0,0,0-.06.07c0,.12.08.15.17.15S71.74,98.21,71.71,98.08Z"/><path class="cls-18" d="M73,99c0-.13-.21-.1-.3-.05h0a.11.11,0,0,0-.06.07c0,.12.08.16.17.15S73,99.14,73,99Z"/><path class="cls-18" d="M75.22,99.57c0-.14-.21-.11-.3-.06h0s-.05,0-.06.07.08.16.17.16S75.25,99.7,75.22,99.57Z"/><path class="cls-18" d="M69,96.38a.18.18,0,0,0-.27,0,.08.08,0,0,0-.07.08c0,.13.12.19.22.16S69.05,96.48,69,96.38Z"/><path class="cls-18" d="M70.46,98.8a.18.18,0,0,0-.27,0,.11.11,0,0,0-.07.08c0,.13.12.19.22.16S70.55,98.9,70.46,98.8Z"/><path class="cls-18" d="M73.37,100.56a.18.18,0,0,0-.27,0s-.07,0-.07.08.12.2.22.16S73.46,100.66,73.37,100.56Z"/><path class="cls-18" d="M76.31,100.56a.18.18,0,0,0-.27,0,.18.18,0,0,0-.07.08.16.16,0,0,0,.23.16C76.3,100.77,76.4,100.66,76.31,100.56Z"/><path class="cls-18" d="M70.54,97a.19.19,0,0,0-.28,0,.12.12,0,0,0-.07.07c0,.13.13.2.23.17S70.63,97.11,70.54,97Z"/><path class="cls-16" d="M88,115.6l3.48-8.07-11.66-6.72L76,103v5a1,1,0,0,0,.39.9h0Z"/><path class="cls-7" d="M91.51,107.53v5a2.65,2.65,0,0,1-1.1,2.1l-1.65,1c-.6.35-1.1,0-1.1-.83v-5Z"/><polygon class="cls-6" points="91.51 107.53 79.85 100.81 76.01 103.03 87.67 109.75 91.51 107.53"/><path class="cls-16" d="M78.24,103.05c.32-.4.9-.74,1.31-.47a.89.89,0,0,1,.87-.28.92.92,0,0,1,.61.59.4.4,0,0,1,.43,0,.45.45,0,0,1,.22.5.49.49,0,0,1,.47.12.51.51,0,0,1,.16.39.92.92,0,0,1,.85-.06.82.82,0,0,1,.4.51.48.48,0,0,1,.39-.06.55.55,0,0,1,.35.45.53.53,0,0,1,.72,0,.81.81,0,0,1,.22.7.67.67,0,0,1,.8,0,.55.55,0,0,1,.15.37.82.82,0,0,1,.78.14,1,1,0,0,1,.28.4.53.53,0,0,1,.64.33.8.8,0,0,1,.91.3,1.06,1.06,0,0,1,.11.48.61.61,0,0,1,.45,0c.12.05.09.09.21.1s.33-.09.51-.06a1,1,0,0,1,.58.29l.5-.28L79.9,101l-3.54,2,.71.41a1,1,0,0,1,.25-.31A.79.79,0,0,1,78.24,103.05Z"/><path class="cls-17" d="M90.08,107.5c-.18,0-.36.08-.51.06s-.09,0-.21-.1a.61.61,0,0,0-.45,0,1.06,1.06,0,0,0-.11-.48.8.8,0,0,0-.91-.3.53.53,0,0,0-.64-.33,1,1,0,0,0-.28-.4.82.82,0,0,0-.78-.14.55.55,0,0,0-.15-.37.67.67,0,0,0-.8,0,.81.81,0,0,0-.22-.7.53.53,0,0,0-.72,0,.55.55,0,0,0-.35-.45.48.48,0,0,0-.39.06.82.82,0,0,0-.4-.51.92.92,0,0,0-.85.06.51.51,0,0,0-.16-.39.49.49,0,0,0-.47-.12.45.45,0,0,0-.21-.5.41.41,0,0,0-.44,0,.92.92,0,0,0-.61-.59.89.89,0,0,0-.87.28c-.41-.27-1,.07-1.31.47a.79.79,0,0,0-.92.11,1,1,0,0,0-.25.31l10.54,6.08,3-1.76A1,1,0,0,0,90.08,107.5Z"/><path class="cls-18" d="M80.21,102.93a.21.21,0,0,0-.26,0,.18.18,0,0,0-.09.14c0,.17.17.2.29.13S80.34,103,80.21,102.93Z"/><path class="cls-18" d="M83.79,105.45a.2.2,0,0,0-.26,0,.19.19,0,0,0-.09.14c0,.17.18.19.3.13S83.93,105.55,83.79,105.45Z"/><path class="cls-18" d="M87.8,108.45a.23.23,0,0,0-.26,0,.16.16,0,0,0-.08.14c0,.17.17.2.29.13S87.94,108.55,87.8,108.45Z"/><path class="cls-18" d="M79.24,103.59a.19.19,0,0,0-.25-.13h0l0,0a.24.24,0,0,0,.15.26A.13.13,0,0,0,79.24,103.59Z"/><path class="cls-18" d="M81.94,105.42c0-.09-.16-.18-.25-.12h0s0,0,0,0,0,.22.15.25A.13.13,0,0,0,81.94,105.42Z"/><path class="cls-18" d="M84.91,107.21c0-.09-.16-.18-.25-.12h0s0,0,0,0a.24.24,0,0,0,.15.25A.13.13,0,0,0,84.91,107.21Z"/><path class="cls-18" d="M87.21,106.73c0-.09-.16-.18-.25-.12h0s0,0,0,0a.24.24,0,0,0,.15.25A.13.13,0,0,0,87.21,106.73Z"/><path class="cls-18" d="M79.88,104c0-.13-.21-.1-.3-.06v0a.1.1,0,0,0-.07.07c0,.12.08.15.18.15S79.91,104.11,79.88,104Z"/><path class="cls-18" d="M81.34,105.1c0-.13-.21-.1-.3,0h0a.11.11,0,0,0-.06.07c0,.12.08.16.17.15S81.37,105.23,81.34,105.1Z"/><path class="cls-18" d="M84.34,105.38c0-.14-.21-.11-.3-.06a0,0,0,0,0,0,0,.1.1,0,0,0-.07.07c0,.13.09.16.18.15S84.37,105.51,84.34,105.38Z"/><path class="cls-18" d="M85.61,106.31c0-.13-.22-.11-.31-.06s0,0,0,0a.09.09,0,0,0-.06.07c0,.12.08.15.17.15S85.64,106.44,85.61,106.31Z"/><path class="cls-18" d="M87.86,106.86c0-.13-.22-.1-.31,0h0a.09.09,0,0,0-.06.07c0,.12.08.16.17.15S87.89,107,87.86,106.86Z"/><path class="cls-18" d="M81.6,103.68a.19.19,0,0,0-.28,0,.12.12,0,0,0-.07.07c0,.13.13.2.23.16S81.69,103.78,81.6,103.68Z"/><path class="cls-18" d="M83.1,106.09a.19.19,0,0,0-.27,0s-.07.05-.07.08.12.19.22.16S83.19,106.2,83.1,106.09Z"/><path class="cls-18" d="M86,107.85a.19.19,0,0,0-.28,0,.11.11,0,0,0-.07.08c0,.13.13.19.23.16S86.1,108,86,107.85Z"/><path class="cls-18" d="M89,107.85a.18.18,0,0,0-.27,0,.08.08,0,0,0-.07.08c0,.13.12.19.22.16S89,108,89,107.85Z"/><path class="cls-18" d="M83.17,104.3a.18.18,0,0,0-.27,0,.18.18,0,0,0-.07.08c0,.13.12.19.23.16S83.26,104.41,83.17,104.3Z"/><path class="cls-16" d="M100.45,123l3.47-8.07-11.65-6.72-3.84,2.22v5a1,1,0,0,0,.39.9h0Z"/><path class="cls-7" d="M103.92,114.88v5a2.64,2.64,0,0,1-1.09,2.09l-1.65,1c-.61.35-1.1,0-1.1-.83v-5Z"/><polygon class="cls-6" points="103.92 114.88 92.27 108.16 88.43 110.38 100.08 117.1 103.92 114.88"/><path class="cls-16" d="M90.66,110.4c.32-.39.9-.74,1.31-.47a.88.88,0,0,1,.86-.28.94.94,0,0,1,.62.59.41.41,0,0,1,.43,0,.48.48,0,0,1,.22.5.49.49,0,0,1,.47.13.51.51,0,0,1,.16.38,1,1,0,0,1,.85-.06.77.77,0,0,1,.39.51.48.48,0,0,1,.39-.06.54.54,0,0,1,.36.45.53.53,0,0,1,.72,0,.79.79,0,0,1,.21.71.67.67,0,0,1,.81,0,.59.59,0,0,1,.14.38.79.79,0,0,1,.78.13,1,1,0,0,1,.29.4.54.54,0,0,1,.64.33.81.81,0,0,1,.91.3,1.07,1.07,0,0,1,.1.48.59.59,0,0,1,.46.06c.12.05.08.08.2.09s.34-.08.52-.06a.91.91,0,0,1,.58.3l.5-.29-11.26-6.5-3.55,2,.71.41a1.21,1.21,0,0,1,.25-.3A.8.8,0,0,1,90.66,110.4Z"/><path class="cls-17" d="M102.5,114.85c-.18,0-.36.08-.52.06s-.08,0-.2-.09a.59.59,0,0,0-.46-.06,1.07,1.07,0,0,0-.1-.48.81.81,0,0,0-.91-.3.54.54,0,0,0-.64-.33,1,1,0,0,0-.29-.4.79.79,0,0,0-.78-.13.59.59,0,0,0-.14-.38.67.67,0,0,0-.81,0,.79.79,0,0,0-.21-.71.53.53,0,0,0-.72,0,.54.54,0,0,0-.36-.45.48.48,0,0,0-.39.06.77.77,0,0,0-.39-.51,1,1,0,0,0-.85.06.51.51,0,0,0-.16-.38.49.49,0,0,0-.47-.13.48.48,0,0,0-.22-.5.41.41,0,0,0-.43,0,.94.94,0,0,0-.62-.59.88.88,0,0,0-.86.28c-.41-.27-1,.08-1.31.47a.8.8,0,0,0-.93.12,1.21,1.21,0,0,0-.25.3L100,116.9l3-1.75A.91.91,0,0,0,102.5,114.85Z"/><path class="cls-18" d="M92.62,110.28a.21.21,0,0,0-.26,0,.17.17,0,0,0-.08.14c0,.17.17.2.29.13S92.76,110.37,92.62,110.28Z"/><path class="cls-18" d="M96.21,112.8a.21.21,0,0,0-.26,0,.17.17,0,0,0-.09.14c0,.17.18.19.29.13S96.34,112.9,96.21,112.8Z"/><path class="cls-18" d="M100.22,115.81a.21.21,0,0,0-.26,0,.18.18,0,0,0-.09.14c0,.17.18.2.29.13S100.35,115.9,100.22,115.81Z"/><path class="cls-18" d="M91.66,110.94a.2.2,0,0,0-.26-.12h0s0,0,0,0,0,.22.15.25A.13.13,0,0,0,91.66,110.94Z"/><path class="cls-18" d="M94.36,112.78c0-.1-.17-.19-.26-.13h0a0,0,0,0,0,0,0,.21.21,0,0,0,.15.25C94.31,113,94.39,112.87,94.36,112.78Z"/><path class="cls-18" d="M97.33,114.56c0-.09-.16-.18-.25-.12h0s0,0,0,0,0,.22.15.25A.13.13,0,0,0,97.33,114.56Z"/><path class="cls-18" d="M99.63,114.08a.2.2,0,0,0-.26-.12h0s0,0,0,0,0,.22.15.25A.13.13,0,0,0,99.63,114.08Z"/><path class="cls-18" d="M92.3,111.33c0-.13-.21-.1-.3,0h0a.11.11,0,0,0-.06.07c0,.12.08.16.17.15S92.33,111.46,92.3,111.33Z"/><path class="cls-18" d="M93.76,112.46c0-.14-.22-.11-.31-.06h0a.09.09,0,0,0-.06.07c0,.12.08.16.17.15S93.79,112.58,93.76,112.46Z"/><path class="cls-18" d="M96.76,112.73c0-.14-.21-.11-.3-.06h0s0,0-.06.07.08.16.17.16S96.79,112.86,96.76,112.73Z"/><path class="cls-18" d="M98,113.66c0-.13-.21-.1-.3-.06s0,0,0,0a.1.1,0,0,0-.07.07c0,.12.08.16.18.15S98.05,113.79,98,113.66Z"/><path class="cls-18" d="M100.27,114.22c0-.14-.21-.11-.3-.06a0,0,0,0,0,0,0,.12.12,0,0,0-.07.07c0,.13.09.16.18.15S100.3,114.35,100.27,114.22Z"/><path class="cls-18" d="M94,111a.18.18,0,0,0-.27,0,.11.11,0,0,0-.07.08c0,.13.12.19.23.16S94.1,111.13,94,111Z"/><path class="cls-18" d="M95.52,113.45a.19.19,0,0,0-.28,0,.18.18,0,0,0-.07.08.16.16,0,0,0,.23.16C95.51,113.66,95.6,113.55,95.52,113.45Z"/><path class="cls-18" d="M98.42,115.2a.18.18,0,0,0-.27,0,.18.18,0,0,0-.07.08c0,.13.12.19.23.16S98.51,115.31,98.42,115.2Z"/><path class="cls-18" d="M101.37,115.2a.19.19,0,0,0-.28,0,.18.18,0,0,0-.07.08c0,.13.13.19.23.16S101.46,115.31,101.37,115.2Z"/><path class="cls-18" d="M95.59,111.65a.19.19,0,0,0-.27,0s-.07,0-.07.08.12.2.22.16S95.68,111.76,95.59,111.65Z"/><path class="cls-6" d="M70.84,50.31a2.93,2.93,0,0,0-3,.22l-8.05,4.65-.1.06.25.16.08,0,8-4.61a3.26,3.26,0,0,1,1.61-.48,2.05,2.05,0,0,1,1,.26,3.66,3.66,0,0,1,1.4,3.31V76h0a.18.18,0,0,0,.16.08c.09,0,.17,0,.17-.1v-22C72.41,52.2,71.84,50.89,70.84,50.31Z"/><path class="cls-6" d="M86.44,59.39a2.93,2.93,0,0,0-3,.22l-8,4.65-.17.11a3.9,3.9,0,0,1,.35.19l8-4.65a3.29,3.29,0,0,1,1.61-.48,2.09,2.09,0,0,1,1,.26A3.68,3.68,0,0,1,87.66,63V85.07h0a.17.17,0,0,0,.16.07c.09,0,.17,0,.17-.09V63C88,61.29,87.44,60,86.44,59.39Z"/><path class="cls-6" d="M102,68.6a2.9,2.9,0,0,0-3,.22L91.14,73.4a2.09,2.09,0,0,1,.28.24l7.82-4.52a3.29,3.29,0,0,1,1.61-.48,2,2,0,0,1,1,.26c.89.51,1.4,1.72,1.4,3.31V94.27h0a.17.17,0,0,0,.16.07c.1,0,.17,0,.17-.09v-22C103.61,70.49,103,69.18,102,68.6Z"/><path class="cls-6" d="M117.64,77.68a2.93,2.93,0,0,0-3,.22l-8,4.65-.09,0,.36.19,8-4.59a3.23,3.23,0,0,1,1.6-.48,2,2,0,0,1,1,.26c.89.51,1.4,1.72,1.4,3.31v22.06h0a.18.18,0,0,0,.16.08c.1,0,.18-.05.18-.1v-22C119.22,79.57,118.64,78.26,117.64,77.68Z"/><path class="cls-7" d="M87.47,73.07a1.86,1.86,0,0,0-.2-.64,10.93,10.93,0,0,1-2.38,6.1c.92.73.08,2-.6,2.48A1.74,1.74,0,0,1,85,82c0,.42-.37.43-.81.48a6.31,6.31,0,0,0-1.56.22c1.1,1.09.43,3.33-.63,4.21a6.09,6.09,0,0,1-4,1.15,4.79,4.79,0,0,1-3.66-1.55c-1.09-1.3-.47-3.43-.16-4.36-.15-.12-.9.38-1,.56a4.47,4.47,0,0,1,.35-1.79C71.57,81.2,71,83.2,71,84.87a8.16,8.16,0,0,0,.29,2.57,2.22,2.22,0,0,1-1.07-1.54c-.73.45-.56,1.77-.07,2.44a8.1,8.1,0,0,1-2.35-1.62c-.81-1-1.51-2.39-1-3.63-.79-.2-1.75,2-1.71,3.23-.88-1.4-1.81-2.79-1-4.52-.74.1-1.15.94-1.33,1.82a2.83,2.83,0,0,0,.58,1.51,14.8,14.8,0,0,0,.9,2.6,4.08,4.08,0,0,0,2.72,1.34c-.08-.15-.16-.31-.23-.46a1.75,1.75,0,0,1-.12-1.07,3.68,3.68,0,0,0,1.34,1.28,3.65,3.65,0,0,0,1.84.4c.11.29.64.57,1,.69A2.38,2.38,0,0,0,72,90c-.13-.15-.31-.47-.24-.59a3.69,3.69,0,0,0,2.61,1,2.22,2.22,0,0,1-.28-1.2,2.39,2.39,0,0,1-1.44-.81,3.16,3.16,0,0,1-.3-3c.4,1,.63,2.91,2.21,3.31a5.47,5.47,0,0,1,0-.82A3.33,3.33,0,0,0,76,89.74a3,3,0,0,0,2.44.14,1.06,1.06,0,0,1-.37-.5,8.94,8.94,0,0,0,4,.46l.35-.16A5.8,5.8,0,0,0,85.8,85.5a6.6,6.6,0,0,0-.1-2.38,18.29,18.29,0,0,0,1.54-4.5A16.18,16.18,0,0,0,87.47,73.07Z"/><path class="cls-16" d="M78.09,89.38a1.06,1.06,0,0,0,.37.5A3,3,0,0,1,76,89.74a3.33,3.33,0,0,1-1.51-1.88,5.47,5.47,0,0,0,0,.82c-1.58-.4-1.81-2.29-2.21-3.31a3.16,3.16,0,0,0,.3,3,2.39,2.39,0,0,0,1.44.81,2.22,2.22,0,0,0,.28,1.2,3.69,3.69,0,0,1-2.61-1c-.07.12.11.44.24.59a2.38,2.38,0,0,1-1.24-.06c-.36-.12-.89-.4-1-.69a3.65,3.65,0,0,1-1.84-.4,3.68,3.68,0,0,1-1.34-1.28,1.75,1.75,0,0,0,.12,1.07c.07.15.15.31.23.46a4.08,4.08,0,0,1-2.72-1.34,9.3,9.3,0,0,0,2.2,2.93c1,.9,2.71,1,3.87,1.09,1.42.1,2.18.79,3.6.93a8.37,8.37,0,0,0,6.6-2,5.44,5.44,0,0,0,.41-.42,10,10,0,0,0,1.2-.42A8.94,8.94,0,0,1,78.09,89.38Z"/><path class="cls-7" d="M83.23,76.6a12.25,12.25,0,0,0,2.59-4.34,1.69,1.69,0,0,0-.28-.87l-.07-.07c-.22.63-.66,1.81-.92,2.4C83.82,75.4,83.46,76,83.23,76.6Z"/><path class="cls-7" d="M81.38,73.72a11.46,11.46,0,0,0-.85,1.08l2.34-2.06A4.32,4.32,0,0,0,84,71.46a1.54,1.54,0,0,0,0-.75,7.5,7.5,0,0,1-.67,1A26.5,26.5,0,0,1,81.38,73.72Z"/><path class="cls-7" d="M63.54,77.82c.39.07.85-.33,1.05-.62a2.77,2.77,0,0,0,.47-1.44A2,2,0,0,0,65.68,73a.1.1,0,0,0-.06-.1l0,0s0,0,0,0v0a.11.11,0,0,0-.11,0,19.41,19.41,0,0,1-2.62,2.48c0,.94-.29,2-.35,2.5l-.06.72A1.77,1.77,0,0,0,63.54,77.82Z"/><path class="cls-6" d="M84.89,78.53a10.93,10.93,0,0,0,2.38-6.1c-.32-.58-.92-.56-1.45-.17a12.25,12.25,0,0,1-2.59,4.34c.23-.59.59-1.2,1.32-2.88.26-.59.7-1.77.92-2.4-.41-.43-1-.24-1.52.14a4.32,4.32,0,0,1-1.08,1.28L80.53,74.8a11.46,11.46,0,0,1,.85-1.08,26.5,26.5,0,0,0,1.85-2,7.5,7.5,0,0,0,.67-1,.83.83,0,0,0-.14-.22c-.47-.45-1.74.22-2.32.52-1.46,1.14-2.78,2.69-2.8,3.25a3.54,3.54,0,0,0-3.14.54,7.23,7.23,0,0,0-5,1.12c-.1-2.28-2.75-5.91-3.13-6.45a6.43,6.43,0,0,0-1.72-.68,7.25,7.25,0,0,0-2.93.25,2.9,2.9,0,0,0-1.33,1.19c-.62,1.09-.74,2.45-.05,3a.09.09,0,0,0,.11.09h.1a3.2,3.2,0,0,0,.69.19,2,2,0,0,1,.56,1.84,19.41,19.41,0,0,0,2.62-2.48.11.11,0,0,1,.11,0v0s0,0,0,0l0,0a.1.1,0,0,1,.06.1,2,2,0,0,1-.62,2.81,2.77,2.77,0,0,1-.47,1.44c-.2.29-.66.69-1.05.62a1.77,1.77,0,0,1-1.12.77,20.5,20.5,0,0,0,.18,3.91c0,.36.08.74.13,1.12.18-.88.59-1.72,1.33-1.82-.8,1.73.13,3.12,1,4.52,0-1.21.92-3.43,1.71-3.23-.49,1.24.21,2.68,1,3.63a8.1,8.1,0,0,0,2.35,1.62c-.49-.67-.66-2,.07-2.44a2.22,2.22,0,0,0,1.07,1.54A8.16,8.16,0,0,1,71,84.87c0-1.67.57-3.67,2.49-3.93a4.47,4.47,0,0,0-.35,1.79c.12-.18.87-.68,1-.56-.31.93-.93,3.06.16,4.36A4.79,4.79,0,0,0,78,88.08a6.09,6.09,0,0,0,4-1.15c1.06-.88,1.73-3.12.63-4.21a6.31,6.31,0,0,1,1.56-.22c.44,0,.83-.06.81-.48a1.74,1.74,0,0,0-.71-1C85,80.5,85.81,79.26,84.89,78.53Z"/><path class="cls-7" d="M75.5,74.8a3.54,3.54,0,0,1,3.14-.54c0-.56,1.34-2.11,2.8-3.25l-.11.06A10.15,10.15,0,0,0,78,73.62a13.49,13.49,0,0,0-7,.73c-.2-.53-.4-1.07-.64-1.59a7.14,7.14,0,0,0-2.59-3.06l-.39-.23c.38.54,3,4.17,3.13,6.45A7.23,7.23,0,0,1,75.5,74.8Z"/><path class="cls-19" d="M63.72,71.11a.42.42,0,1,0,.54.51A.43.43,0,0,0,63.72,71.11Z"/><path class="cls-20" d="M64.87,73.57a1.7,1.7,0,0,1-2-.37c-.08-.09-1.49.65-1.54,1.58,0,.49.5.59.9.5a.61.61,0,0,0,.52.53,1.65,1.65,0,0,0,1.46-.5A3.44,3.44,0,0,0,64.87,73.57Z"/><path class="cls-21" d="M60.48,74.42a2.77,2.77,0,0,1,.9-.57,11,11,0,0,0,1.68-.77.9.9,0,0,0-.33-.49c-.56-.44-1.19-.77-1.56-.54a2.78,2.78,0,0,0-.72,1.17c0,.11-.07.22-.1.33l0,.36A2.88,2.88,0,0,0,60.48,74.42Z"/><path class="cls-22" d="M60.41,75a9.88,9.88,0,0,1,1.82-1c.28-.12.62-.2.77-.49a.73.73,0,0,0,.06-.43,11,11,0,0,1-1.68.77,2.77,2.77,0,0,0-.9.57,2.88,2.88,0,0,1-.1-.51l0-.36A2.89,2.89,0,0,0,60.41,75Z"/><path class="cls-7" d="M79.77,83.69c-.41,0-1.13.39-1.35-.21a.07.07,0,0,0-.14,0,.48.48,0,0,0,0,.3.6.6,0,0,1-.49,0,1,1,0,0,1-.32-.36s-.05,0-.05,0c-.15.52.64.85,1,.57h0c.39.28,1.17.23,1.35-.2C79.85,83.72,79.82,83.68,79.77,83.69Z"/><path class="cls-7" d="M68.77,85.42a.66.66,0,0,1-.44-.65,2,2,0,0,1,.21-.7.06.06,0,0,0-.07-.07.63.63,0,0,0-.41.5,1.13,1.13,0,0,1-.23-.4,1.76,1.76,0,0,1,.07-.79s0,0-.05,0A.93.93,0,0,0,68,84.79c0,.48.25,1,.72.83A.11.11,0,0,0,68.77,85.42Z"/><path class="cls-7" d="M71,82.17c-.29-.17-.64-.15-.85-.44a2.85,2.85,0,0,1-.31-1s0,0,0,0a1,1,0,0,0-.1.65,2.41,2.41,0,0,1-.42-.22.94.94,0,0,1-.25-.77c0-.09-.13-.09-.16,0a.94.94,0,0,0,.18,1c.15.17.48.39.71.28a1.37,1.37,0,0,0,.16.32,1,1,0,0,0,1.06.37A.08.08,0,0,0,71,82.17Z"/><path class="cls-7" d="M76.77,85.12c-.29-.17-.64-.15-.85-.44a2.85,2.85,0,0,1-.31-1,0,0,0,0,0,0,0,1,1,0,0,0-.1.65,2.1,2.1,0,0,1-.42-.22.94.94,0,0,1-.25-.77c0-.1-.13-.1-.16,0a.94.94,0,0,0,.18,1c.15.17.48.39.71.28a1.37,1.37,0,0,0,.16.32,1,1,0,0,0,1.06.37A.08.08,0,0,0,76.77,85.12Z"/><path class="cls-7" d="M79.73,85.58a1.15,1.15,0,0,1-.74.33.77.77,0,0,1-.68-.49.06.06,0,0,0-.1,0c-.11.39.33.66.66.72a.86.86,0,0,0,1-.48C79.86,85.61,79.78,85.54,79.73,85.58Z"/><path class="cls-7" d="M76.66,82.74a.54.54,0,0,1-.51-.13,2.55,2.55,0,0,1-.31-.47s-.11,0-.12,0a.81.81,0,0,0,.39.74c.17.12.57.24.65,0A.08.08,0,0,0,76.66,82.74Z"/><path class="cls-7" d="M68.07,82.16a1.15,1.15,0,0,1-.52-.31.88.88,0,0,1-.14-.67.08.08,0,0,0-.14,0c-.31.5.19,1.33.8,1.15A.07.07,0,0,0,68.07,82.16Z"/><path class="cls-7" d="M65.55,82.12a2.37,2.37,0,0,1-.55-.44,1.16,1.16,0,0,1-.2-.79s-.06,0-.07,0a.94.94,0,0,0,0,.88c-.43.36.05,1.29.6,1.14a.07.07,0,0,0,0-.13c-.17-.11-.36-.17-.46-.35a.7.7,0,0,1-.05-.49.74.74,0,0,0,.67.32C65.58,82.23,65.61,82.15,65.55,82.12Z"/><path class="cls-7" d="M66.57,80.43a.28.28,0,0,0-.2-.05.67.67,0,0,1-.31-.07c-.19-.09-.27-.26-.42-.39,0,0,0,0,0,0-.09.22.12.47.28.58s.59.27.69,0A.09.09,0,0,0,66.57,80.43Z"/><path class="cls-7" d="M63.82,80.92c-.12-.14-.29-.19-.35-.38s0-.35,0-.52a0,0,0,0,0-.06,0c-.27.05-.27.48-.19.67s.31.48.57.42A.09.09,0,0,0,63.82,80.92Z"/><path class="cls-7" d="M83.55,81.13A4.22,4.22,0,0,0,81,80a5.58,5.58,0,0,0-5.41-.25.08.08,0,0,0,.07.15,10.16,10.16,0,0,1,2.86-.37,7.81,7.81,0,0,1,1.88.44,5,5,0,0,0-1.11.12,0,0,0,0,0,0,.09,8.1,8.1,0,0,1,4.25,1S83.58,81.16,83.55,81.13Z"/><path class="cls-7" d="M83.35,78.32a0,0,0,0,0,0,0,2.06,2.06,0,0,0,0,.26.56.56,0,0,1-.17.32,5,5,0,0,1-.49.31.06.06,0,0,0,0,.09.69.69,0,0,0,.72-.31C83.47,78.84,83.59,78.44,83.35,78.32Z"/><path class="cls-7" d="M82.38,78.47a0,0,0,0,0,0,0,1.73,1.73,0,0,1,0,.6.68.68,0,0,1-.28.46s0,.1,0,.11C82.69,79.85,82.77,78.7,82.38,78.47Z"/><path class="cls-7" d="M77.18,75.81a.06.06,0,0,0-.09,0c0,.23.13.41.07.65a1.38,1.38,0,0,1-.29.46.92.92,0,0,0-.39-.54s0,0,0,0c0,.25.19.46.24.7s-.14.37-.09.59a.1.1,0,0,0,.18,0,.79.79,0,0,0,.17-.59h0C77.47,77.08,77.68,76,77.18,75.81Z"/><path class="cls-7" d="M79.35,77a0,0,0,0,0-.07,0,1.54,1.54,0,0,1-.26.53.71.71,0,0,1-.26.16c-.09,0-.16,0-.23.11a.11.11,0,0,0,0,.18c.22.13.53-.13.66-.29A.67.67,0,0,0,79.35,77Z"/><path class="cls-7" d="M74.51,78a1.12,1.12,0,0,1-.31.52c-.15.12-.35.13-.49.25a.08.08,0,0,0,0,.13c.21.12.5-.08.65-.23a.81.81,0,0,0,.25-.67C74.62,77.93,74.53,78,74.51,78Z"/><path class="cls-7" d="M67.41,77.54c-.22-.06-.42,0-.6-.19a.86.86,0,0,1-.17-.64s-.07-.08-.1,0a.62.62,0,0,0-.09.56.52.52,0,0,1-.33-.12c-.13-.11-.15-.27-.25-.39a0,0,0,0,0-.05,0c-.14.19.05.5.2.62a.67.67,0,0,0,.56.15v0c.17.21.59.42.85.24A.12.12,0,0,0,67.41,77.54Z"/><path class="cls-7" d="M67.68,75.07a1.83,1.83,0,0,1-.47,0,.91.91,0,0,1-.41-.28,0,0,0,0,0-.06,0,.62.62,0,0,0,1,.38A.06.06,0,0,0,67.68,75.07Z"/><path class="cls-7" d="M71.15,77.16a2.63,2.63,0,0,1-.44.3.71.71,0,0,1-.6-.08,0,0,0,0,0,0,.05.57.57,0,0,0,.61.26.72.72,0,0,0,.57-.46S71.19,77.12,71.15,77.16Z"/><path class="cls-20" d="M65.76,68.76c-.17-.69-1-1.16-1.48-.82-.46-.4-1.12-.66-1.55.13-.74-.09-1.4,1.4-.24,1.77a7.61,7.61,0,0,1,3-.73A.28.28,0,0,0,65.76,68.76Z"/><path class="cls-20" d="M76.62,97.29a1.88,1.88,0,0,0-.8.19l-1.16.33a.14.14,0,0,0-.08.21.77.77,0,0,1,.12.69.13.13,0,0,0,.17.16,1.39,1.39,0,0,0,2-.83C77,97.77,77,97.36,76.62,97.29Z"/><path class="cls-21" d="M73.07,98.56a7.09,7.09,0,0,0,.65,1.74.1.1,0,0,0,.1,0l.06-.13C74.18,99.6,74.3,98.73,73.07,98.56Z"/><path class="cls-22" d="M75.42,98.44a.13.13,0,0,0,0-.18,7.67,7.67,0,0,0-2.35-.6,2.51,2.51,0,0,0,0,.9c1.23.17,1.11,1,.81,1.66l-.06.13a.16.16,0,0,0,.09,0A7.06,7.06,0,0,0,75.42,98.44Z"/><path class="cls-6" d="M97.27,76.35a2,2,0,0,0-.66,0,1.06,1.06,0,0,0-.19-.45c-.51-.67-1.34-.48-2-.07A.72.72,0,0,0,94,75c-.49-.21-1.11.1-1.55.3l-.71.34a12,12,0,0,0-5.6.82c-1.68,1.23-3.35,3-3.54,4.17A3.76,3.76,0,0,0,80,84.58a4,4,0,0,0-.61,3.84.9.9,0,0,0-1,.78c-.27.1-.57.13-.85.24a3.38,3.38,0,0,0-1.71,1.9,4.54,4.54,0,0,0-3,2.26,8.12,8.12,0,0,0-.35,1.16c-.3,1.43,0,3.13,1.59,3.59a2.5,2.5,0,0,0,1.33,0h0a3.15,3.15,0,0,0,1-.72,3,3,0,0,0,.64-1.11,2.91,2.91,0,0,0,1.89.38c.63-.23,1.38-1.39,1.41-1.45s.21,0,.19.09a1.24,1.24,0,0,1,0,.16,2.63,2.63,0,0,0,2.6-.43,4.47,4.47,0,0,0,2.47.84,2.6,2.6,0,0,0,1.88-1.63,1.37,1.37,0,0,1-.88-.27s0,0,0,0a2.3,2.3,0,0,0,2.13-.51,3.48,3.48,0,0,0,.64-.76c-.88-.41-2.4-1.17-2.07-2.43a2.77,2.77,0,0,0,2,1,2.67,2.67,0,0,0,2.61-1.36,3,3,0,0,0,2.15-.41c.67-.48.6-1.8.6-1.8a1.53,1.53,0,0,0,1.2-1.16A1.48,1.48,0,0,0,94.57,85a3,3,0,0,0-2.54.83.13.13,0,0,1-.2-.15A2.91,2.91,0,0,1,95,84.08c.38-.35,1.16-1.08.53-3.34A4.17,4.17,0,0,0,97.27,76.35Z"/><path class="cls-7" d="M75.74,91.34a3.38,3.38,0,0,1,1.71-1.9c.28-.11.58-.14.85-.24a.9.9,0,0,1,1-.78A4,4,0,0,1,80,84.58a3.76,3.76,0,0,1,2.66-3.91c.19-1.12,1.86-2.94,3.54-4.17l-.81.34a7,7,0,0,0-3.4,2.87A6.88,6.88,0,0,0,78.63,84a12.64,12.64,0,0,0-.24,2.3,15.29,15.29,0,0,0-.08,1.8,5.91,5.91,0,0,0-2.92,2.53,4.3,4.3,0,0,0-2.66,3A4.54,4.54,0,0,1,75.74,91.34Z"/><path class="cls-7" d="M82.23,96.68a2.32,2.32,0,0,0,2.33.55c.73.58,2.86,0,3.14-.87A3.41,3.41,0,0,0,89.24,96c.5-.26,1.27-.82.86-1.46,0,0,0,0,0,0h0a1.42,1.42,0,0,0,1.39-1.48,1.57,1.57,0,0,1-1.11-.5,6.85,6.85,0,0,0,1.5-.12,2.23,2.23,0,0,0,1.23-1.15,2.62,2.62,0,0,0,2.79-2.75,1.8,1.8,0,0,0,.72-1.5,2.5,2.5,0,0,0-.5-1.76A3.12,3.12,0,0,0,97.27,84c.06-1,.07-2.67.18-3.76.9-1.56,1.23-2.91.56-3.5a1.54,1.54,0,0,0-.74-.4,4.17,4.17,0,0,1-1.79,4.39c.63,2.26-.15,3-.53,3.34a2.91,2.91,0,0,0-3.12,1.64.13.13,0,0,0,.2.15A3,3,0,0,1,94.57,85a1.48,1.48,0,0,1,1.14,1.66,1.53,1.53,0,0,1-1.2,1.16s.07,1.32-.6,1.8a3,3,0,0,1-2.15.41,2.67,2.67,0,0,1-2.61,1.36,2.77,2.77,0,0,1-2-1c-.33,1.26,1.19,2,2.07,2.43a3.48,3.48,0,0,1-.64.76,2.3,2.3,0,0,1-2.13.51s0,0,0,0a1.37,1.37,0,0,0,.88.27,2.6,2.6,0,0,1-1.88,1.63A4.47,4.47,0,0,1,83,95.28a2.63,2.63,0,0,1-2.6.43,1.24,1.24,0,0,0,0-.16c0-.11-.13-.2-.19-.09s-.78,1.22-1.41,1.45a2.91,2.91,0,0,1-1.89-.38,3,3,0,0,1-.64,1.11,3.15,3.15,0,0,1-1,.72h0a3.16,3.16,0,0,0,1.48-.8c1.25.77,3,.46,4.49-.11h0A2.52,2.52,0,0,0,82.23,96.68Z"/><path class="cls-16" d="M92.48,93.83a3.46,3.46,0,0,0,3.09-2.92c.93-.77,1.93-3.71,1.7-6.9a3.12,3.12,0,0,1-1.16,1.29,2.5,2.5,0,0,1,.5,1.76,1.8,1.8,0,0,1-.72,1.5,2.62,2.62,0,0,1-2.79,2.75,2.23,2.23,0,0,1-1.23,1.15,6.85,6.85,0,0,1-1.5.12,1.57,1.57,0,0,0,1.11.5,1.42,1.42,0,0,1-1.39,1.48h0s0,0,0,0c.41.64-.36,1.2-.86,1.46a3.41,3.41,0,0,1-1.54.32c-.28.92-2.41,1.45-3.14.87a2.32,2.32,0,0,1-2.33-.55,2.52,2.52,0,0,1-.93.78C84,98.94,90.06,98.31,92.48,93.83Z"/><path class="cls-20" d="M73.76,94.49c.12-.19.16-.48,0-.56-.83-.35-.93.61-1.31,1s-.52.22-.65.62c-.18.59.33,1,.3,1.53,0,.28-.21.37,0,.69s.73.4,1.14.37a.15.15,0,0,0,.14-.19A4.45,4.45,0,0,1,73.76,94.49Z"/><path class="cls-19" d="M74.83,97.23a.43.43,0,0,0-.24.54.39.39,0,0,0,.12.19.42.42,0,1,0,.12-.73Z"/><path class="cls-7" d="M95.37,84.38a4.3,4.3,0,0,0-5.7.39,2.89,2.89,0,0,0-3,1.87s0,.07.06,0A4.26,4.26,0,0,1,88,85.47a3.33,3.33,0,0,1,1.45-.4,1.75,1.75,0,0,0-.18.29s0,.08.06,0a9.82,9.82,0,0,1,2.57-1.49,5,5,0,0,1,3.32.67C95.34,84.65,95.49,84.49,95.37,84.38Z"/><path class="cls-7" d="M86.33,92.61s-.08-.09-.12,0-.24.35-.44.46a1.24,1.24,0,0,1-.74,0,0,0,0,0,0,0,.05.7.7,0,0,0,.47.18c-.09.23-.13.47-.42.57l-.21,0s-.12,0-.16,0-.07,0-.06,0,.18.13.28.13a.65.65,0,0,0,.42-.13.6.6,0,0,0,.27-.67C86,93.25,86.35,93,86.33,92.61Z"/><path class="cls-7" d="M89.91,89.09a1.48,1.48,0,0,1-.83.38,1,1,0,0,1-.41-.1.06.06,0,0,0-.07,0l-.37-.23s0,0,0,0a.85.85,0,0,0,.19.32.69.69,0,0,1-.47.16,1.06,1.06,0,0,1-.61-.39s0,0,0,0a.66.66,0,0,0,.62.6.83.83,0,0,0,.71-.25A1,1,0,0,0,90,89.15S90,89.06,89.91,89.09Z"/><path class="cls-7" d="M93,88.16s-.07,0-.08,0a.81.81,0,0,1-.3.57,1,1,0,0,1-.22.13.24.24,0,0,1-.31,0,.08.08,0,0,0-.13.07.22.22,0,0,0,.23.23A.75.75,0,0,0,92.7,89C92.94,88.82,93.23,88.45,93,88.16Z"/><path class="cls-7" d="M93.33,86.23a.07.07,0,0,0-.11,0,.54.54,0,0,1-.34.49,1.06,1.06,0,0,1-.61,0s-.07,0,0,0c.07.2.31.25.53.22a.74.74,0,0,1-.31.27c-.19.09-.39,0-.58.1a.08.08,0,0,0,0,.13c.18.22.57.1.78,0a.85.85,0,0,0,.33-.49l.1,0C93.31,86.85,93.57,86.49,93.33,86.23Z"/><path class="cls-7" d="M90.24,85.9a0,0,0,0,0,0,0,.46.46,0,0,1,.17.28.76.76,0,0,1,0,.3.86.86,0,0,1-.07.21c0,.06-.1.09-.11.16a.07.07,0,0,0,.05.09c.26.08.35-.36.36-.54S90.53,85.77,90.24,85.9Z"/><path class="cls-7" d="M89.27,86.6s-.09,0-.08.08c0,.22.16.39.07.62s-.31.28-.49.41a.06.06,0,0,0,0,.1c.3.13.61-.14.72-.41S89.56,86.71,89.27,86.6Z"/><path class="cls-7" d="M83.81,90.81s0,0,0,0a1,1,0,0,0,0,.24.6.6,0,0,1-.07.32,1,1,0,0,1-.3.41h0a1,1,0,0,0-.26-.47s-.05,0-.05,0a3.44,3.44,0,0,1,.12.64.71.71,0,0,1,0,.29c0,.15-.14.16-.23.26s0,.06,0,.09l0,0a.12.12,0,0,0,.11,0c.32-.08.39-.39.35-.7.23,0,.42-.35.49-.53S84.07,90.88,83.81,90.81Z"/><path class="cls-7" d="M85.81,87.55c0-.1-.11-.24-.22-.27a.1.1,0,0,0-.13.09,0,0,0,0,0,0,0c.1,0,.14.38.14.45s-.08.29,0,.43.06.06.11,0C86,88.21,85.89,87.75,85.81,87.55Z"/><path class="cls-7" d="M93.92,80.66a0,0,0,0,0,0,0s.06.19.07.26a.69.69,0,0,1,0,.35c0,.18-.18.31-.2.49s.07.11.13.1C94.43,81.8,94.3,80.5,93.92,80.66Z"/><path class="cls-7" d="M94.67,78.12c-.06-.08-.2,0-.14.11a.46.46,0,0,1,0,.59,2.81,2.81,0,0,1-.31.29c-.14-.19-.35-.44-.56-.42,0,0,0,0,0,0,0,.18.25.34.35.49a1.07,1.07,0,0,1,.2.69.11.11,0,0,0,.18.08.57.57,0,0,0,0-.68.81.81,0,0,0,.47-.49A.71.71,0,0,0,94.67,78.12Z"/><path class="cls-7" d="M91.06,81A.07.07,0,0,0,91,81a1.4,1.4,0,0,1,0,.76.82.82,0,0,1-.15.33l-.07.07a.57.57,0,0,0-.56-.28s0,0,0,0a1.27,1.27,0,0,1,.37.43,1.51,1.51,0,0,1,0,.6c0,.08.09.1.15.06a.56.56,0,0,0,.14-.62C91.28,82.29,91.43,81.19,91.06,81Z"/><path class="cls-7" d="M96.61,76.33a6,6,0,0,0-1.2.58,8.52,8.52,0,0,1-.84.55,3.54,3.54,0,0,1,.84-1.33,1.51,1.51,0,0,1,.85-.42A.88.88,0,0,1,96.61,76.33Z"/><path class="cls-7" d="M94.45,75.81a3.87,3.87,0,0,0-.66.54,2.55,2.55,0,0,1-.46.4.88.88,0,0,1,.09-.94c.37-.46.76-.69.84-.6A1.08,1.08,0,0,1,94.45,75.81Z"/><path class="cls-7" d="M92.06,78.33c0-.17-.26-.42-.46-.28a0,0,0,0,0,0,.06,1.54,1.54,0,0,1,.19.17.62.62,0,0,1,0,.27,2.28,2.28,0,0,1-.1.52.12.12,0,0,0,.23.09A1.08,1.08,0,0,0,92.06,78.33Z"/><path class="cls-7" d="M90.37,78.93a0,0,0,0,0,0,0c.1.12.26.18.37.3s.13.31.21.47a.12.12,0,0,0,.23,0C91.29,79.36,90.75,78.71,90.37,78.93Z"/><path class="cls-7" d="M86.52,82.94a0,0,0,0,0,0,0c0,.13.11.25.14.39a.86.86,0,0,1,0,.45c0,.13.16.23.22.09C87,83.6,86.88,83.06,86.52,82.94Z"/><path class="cls-7" d="M86,84.14a.85.85,0,0,0-.47-.34.1.1,0,0,0-.1,0v0h0a.1.1,0,0,0,0,.1,1.14,1.14,0,0,1,.33.36c.07.12.06.29.16.38a.1.1,0,0,0,.16,0C86.18,84.54,86,84.28,86,84.14Z"/><path class="cls-7" d="M88.44,80.52a.46.46,0,0,0-.08-.19c.18-.4-.06-1.17-.58-1.08,0,0,0,0,0,0a1.3,1.3,0,0,1,.33.41.7.7,0,0,1,0,.38L88,80c-.17-.08-.46-.14-.58,0a.05.05,0,0,0,0,.08c.13.07.3,0,.44.12a.72.72,0,0,1,.33.38C88.26,80.77,88.48,80.66,88.44,80.52Z"/><path class="cls-7" d="M82.79,87.39a.7.7,0,0,0-.64-.53.06.06,0,0,0,0,.1c.17.17.37.29.44.53a.69.69,0,0,1,0,.35.53.53,0,0,0-.32-.12.13.13,0,0,0-.07,0s0,0,0,0,.16.17.22.23a.58.58,0,0,1,.2.43.14.14,0,0,0,.27,0,.84.84,0,0,0-.09-.37A.93.93,0,0,0,82.79,87.39Z"/><path class="cls-7" d="M81.17,92.05a.76.76,0,0,0-.07-.81,0,0,0,0,0-.06,0,3.15,3.15,0,0,1,0,.53,1.06,1.06,0,0,1-.3.47.14.14,0,0,0,0,.17.08.08,0,0,0,0,0,.14.14,0,0,0,.17,0,.86.86,0,0,0,.14-.18,1.22,1.22,0,0,1,0,.33c0,.17-.14.33-.13.49s0,.11.1.08.24-.31.27-.49A.94.94,0,0,0,81.17,92.05Z"/><path class="cls-7" d="M79.86,93s0,0,0,0a1.66,1.66,0,0,0,.2.4,1.89,1.89,0,0,1,.13.52c0,.14.23.1.24,0C80.41,93.59,80.21,93.05,79.86,93Z"/><path class="cls-7" d="M78.38,94.59s-.08-.07-.1,0a1.73,1.73,0,0,1-.29.51.71.71,0,0,1-.27.18.61.61,0,0,0-.21.11.08.08,0,0,0,0,.12c.21.11.49-.09.63-.24A.72.72,0,0,0,78.38,94.59Z"/><path class="cls-7" d="M81.27,89.13c-.13-.13-.39-.25-.56-.12,0,0,0,0,0,0s.29.1.4.24.08.29.11.46.14.08.18,0A.56.56,0,0,0,81.27,89.13Z"/><path class="cls-7" d="M83.66,82.86a.49.49,0,0,0-.57-.08.06.06,0,0,0,0,.12.64.64,0,0,1,.48.28c.07.1.11.22.25.23s.05,0,.06,0C84,83.2,83.78,83,83.66,82.86Z"/><path class="cls-7" d="M88.81,77.73a.06.06,0,0,0,0,.09,1.23,1.23,0,0,1,.21.37c0,.13,0,.27,0,.41a.09.09,0,0,0,.13.05C89.44,78.41,89.19,77.76,88.81,77.73Z"/><path class="cls-7" d="M116.19,89.58a1.85,1.85,0,0,0-.21-.64A10.93,10.93,0,0,1,113.6,95c.93.73.09,2-.59,2.48a1.79,1.79,0,0,1,.71,1c0,.42-.37.44-.82.48a6.23,6.23,0,0,0-1.55.22c1.09,1.09.43,3.33-.63,4.22a6.18,6.18,0,0,1-4,1.14A4.82,4.82,0,0,1,103,103c-1.08-1.3-.46-3.43-.15-4.36-.15-.12-.9.38-1,.57a4.69,4.69,0,0,1,.34-1.8c-1.91.26-2.47,2.26-2.48,3.93A8.16,8.16,0,0,0,100,104a2.17,2.17,0,0,1-1.07-1.54c-.74.45-.57,1.77-.07,2.45a8,8,0,0,1-2.36-1.63c-.81-1-1.51-2.39-1-3.63-.8-.19-1.75,2-1.71,3.23-.88-1.4-1.82-2.79-1-4.52-.75.1-1.15.94-1.33,1.82a2.83,2.83,0,0,0,.58,1.51,15.63,15.63,0,0,0,.89,2.6,4.09,4.09,0,0,0,2.73,1.34,3.29,3.29,0,0,1-.23-.46,1.74,1.74,0,0,1-.12-1.07,3.73,3.73,0,0,0,1.33,1.28,3.68,3.68,0,0,0,1.85.4c.1.29.63.57,1,.7a2.49,2.49,0,0,0,1.24,0c-.13-.15-.3-.47-.23-.58a3.66,3.66,0,0,0,2.61,1,2.22,2.22,0,0,1-.29-1.2,2.34,2.34,0,0,1-1.43-.81,3.19,3.19,0,0,1-.31-3c.4,1,.63,2.91,2.22,3.31a5.46,5.46,0,0,1-.06-.82,3.42,3.42,0,0,0,1.51,1.88,3,3,0,0,0,2.44.14,1,1,0,0,1-.36-.5,8.74,8.74,0,0,0,4,.46l.36-.16a5.74,5.74,0,0,0,3.35-4.18,6.6,6.6,0,0,0-.09-2.38,18.29,18.29,0,0,0,1.54-4.5A16.44,16.44,0,0,0,116.19,89.58Z"/><path class="cls-16" d="M106.81,105.89a1,1,0,0,0,.36.5,3,3,0,0,1-2.44-.14,3.42,3.42,0,0,1-1.51-1.88,5.46,5.46,0,0,0,.06.82c-1.59-.4-1.82-2.29-2.22-3.31a3.19,3.19,0,0,0,.31,3,2.34,2.34,0,0,0,1.43.81,2.22,2.22,0,0,0,.29,1.2,3.66,3.66,0,0,1-2.61-1c-.07.11.1.43.23.58a2.49,2.49,0,0,1-1.24,0c-.36-.13-.89-.41-1-.7a3.68,3.68,0,0,1-1.85-.4,3.73,3.73,0,0,1-1.33-1.28,1.74,1.74,0,0,0,.12,1.07,3.29,3.29,0,0,0,.23.46,4.09,4.09,0,0,1-2.73-1.34,9.33,9.33,0,0,0,2.21,2.93c.94.9,2.71,1,3.87,1.09,1.41.1,2.18.79,3.6.93a8.36,8.36,0,0,0,6.59-2,5.51,5.51,0,0,0,.41-.43,8.11,8.11,0,0,0,1.2-.42A8.74,8.74,0,0,1,106.81,105.89Z"/><path class="cls-7" d="M112,93.12a12.45,12.45,0,0,0,2.58-4.35,1.72,1.72,0,0,0-.27-.87l-.07-.07c-.23.64-.67,1.81-.93,2.41C112.53,91.91,112.18,92.52,112,93.12Z"/><path class="cls-7" d="M110.1,90.24a10.16,10.16,0,0,0-.85,1.07l2.34-2.06A4.41,4.41,0,0,0,112.66,88a1.43,1.43,0,0,0,0-.75,8.32,8.32,0,0,1-.66,1C111.42,88.9,110.41,89.93,110.1,90.24Z"/><path class="cls-7" d="M92.26,94.33c.39.07.85-.32,1-.62a2.65,2.65,0,0,0,.46-1.44,2,2,0,0,0,.63-2.81.12.12,0,0,0-.07-.1l0,0s0,0,0,0v0a.13.13,0,0,0-.12.05,19.32,19.32,0,0,1-2.61,2.48c0,.94-.29,2-.35,2.5q0,.36-.06.72A1.8,1.8,0,0,0,92.26,94.33Z"/><path class="cls-6" d="M113.6,95a10.93,10.93,0,0,0,2.38-6.1c-.32-.58-.91-.56-1.45-.17A12.45,12.45,0,0,1,112,93.12c.23-.6.58-1.21,1.31-2.88.26-.6.7-1.77.93-2.41-.41-.43-1-.24-1.53.14a4.41,4.41,0,0,1-1.07,1.28l-2.34,2.06a10.16,10.16,0,0,1,.85-1.07c.31-.31,1.32-1.34,1.85-2a8.32,8.32,0,0,0,.66-1,.64.64,0,0,0-.14-.22c-.47-.45-1.73.23-2.31.52-1.47,1.14-2.79,2.69-2.81,3.25a3.51,3.51,0,0,0-3.13.54,7.26,7.26,0,0,0-5,1.12c-.09-2.28-2.74-5.91-3.12-6.45a6.71,6.71,0,0,0-1.72-.68,7.23,7.23,0,0,0-2.93.25,2.84,2.84,0,0,0-1.34,1.2c-.61,1.08-.73,2.44,0,3a.1.1,0,0,0,.11.1.41.41,0,0,1,.11,0A3.77,3.77,0,0,0,91,90a2.05,2.05,0,0,1,.57,1.84,19.32,19.32,0,0,0,2.61-2.48.13.13,0,0,1,.12-.05v0s0,0,0,0l0,0a.12.12,0,0,1,.07.1,2,2,0,0,1-.63,2.81,2.65,2.65,0,0,1-.46,1.44c-.2.3-.66.69-1,.62a1.8,1.8,0,0,1-1.12.77A20.46,20.46,0,0,0,91.32,99c0,.36.07.74.13,1.12.18-.88.58-1.72,1.33-1.82-.81,1.73.13,3.12,1,4.52,0-1.21.91-3.43,1.71-3.23-.5,1.24.2,2.68,1,3.63a8,8,0,0,0,2.36,1.63c-.5-.68-.67-2,.07-2.45A2.17,2.17,0,0,0,100,104a8.16,8.16,0,0,1-.29-2.57c0-1.67.57-3.67,2.48-3.93a4.69,4.69,0,0,0-.34,1.8c.12-.19.87-.69,1-.57-.31.93-.93,3.06.15,4.36a4.82,4.82,0,0,0,3.67,1.55,6.18,6.18,0,0,0,4-1.14c1.06-.89,1.72-3.13.63-4.22A6.23,6.23,0,0,1,112.9,99c.45,0,.83-.06.82-.48a1.79,1.79,0,0,0-.71-1C113.69,97,114.53,95.77,113.6,95Z"/><path class="cls-7" d="M104.22,91.31a3.51,3.51,0,0,1,3.13-.54c0-.56,1.34-2.11,2.81-3.25l-.12.06a10.54,10.54,0,0,0-3.3,2.55,13.51,13.51,0,0,0-7,.73c-.2-.53-.4-1.07-.64-1.59a7.14,7.14,0,0,0-2.59-3.06L96.12,86c.38.54,3,4.17,3.12,6.45A7.26,7.26,0,0,1,104.22,91.31Z"/><path class="cls-19" d="M92.43,87.62a.44.44,0,0,0-.24.55.36.36,0,0,0,.12.18.44.44,0,0,0,.67-.22A.43.43,0,0,0,92.43,87.62Z"/><path class="cls-20" d="M93.58,90.08a1.71,1.71,0,0,1-2-.37c-.07-.09-1.49.65-1.54,1.58,0,.49.5.6.9.5a.63.63,0,0,0,.53.54,1.66,1.66,0,0,0,1.45-.51A3.24,3.24,0,0,0,93.58,90.08Z"/><path class="cls-21" d="M89.2,90.93a2.72,2.72,0,0,1,.89-.57,10.14,10.14,0,0,0,1.68-.77.88.88,0,0,0-.32-.49c-.56-.44-1.19-.76-1.57-.53a2.66,2.66,0,0,0-.72,1.17,1.68,1.68,0,0,0-.09.32c0,.12,0,.24,0,.36A2.89,2.89,0,0,0,89.2,90.93Z"/><path class="cls-22" d="M89.13,91.47a9.08,9.08,0,0,1,1.82-1c.28-.12.62-.2.76-.49a.6.6,0,0,0,.06-.43,10.14,10.14,0,0,1-1.68.77,2.72,2.72,0,0,0-.89.57,2.89,2.89,0,0,1-.11-.51c0-.12,0-.24,0-.36A2.7,2.7,0,0,0,89.13,91.47Z"/><path class="cls-7" d="M108.48,100.2c-.41.06-1.13.4-1.34-.21,0-.06-.13-.07-.14,0a.42.42,0,0,0,0,.3.61.61,0,0,1-.48,0,1.06,1.06,0,0,1-.33-.37s0,0,0,0c-.14.52.64.85,1,.57h0c.38.28,1.16.23,1.35-.2A.06.06,0,0,0,108.48,100.2Z"/><path class="cls-7" d="M97.48,101.94a.65.65,0,0,1-.43-.65,1.93,1.93,0,0,1,.2-.71s0-.08-.07-.07a.63.63,0,0,0-.41.5,1.16,1.16,0,0,1-.22-.39,1.8,1.8,0,0,1,.06-.8,0,0,0,0,0,0,0,.93.93,0,0,0,.17,1.52c0,.48.25,1,.72.83C97.54,102.11,97.57,102,97.48,101.94Z"/><path class="cls-7" d="M99.73,98.68c-.28-.17-.63-.15-.85-.44a2.8,2.8,0,0,1-.31-1,0,0,0,0,0,0,0,1,1,0,0,0-.09.65,1.46,1.46,0,0,1-.43-.22,1,1,0,0,1-.25-.76c0-.1-.12-.1-.16,0a.93.93,0,0,0,.18,1c.16.17.48.39.72.28a1.07,1.07,0,0,0,.16.32,1,1,0,0,0,1,.37A.08.08,0,0,0,99.73,98.68Z"/><path class="cls-7" d="M105.48,101.63c-.28-.17-.63-.15-.85-.44a2.85,2.85,0,0,1-.31-1s0,0,0,0a.94.94,0,0,0-.09.65,2.18,2.18,0,0,1-.43-.22,1,1,0,0,1-.25-.77c0-.09-.12-.09-.16,0a.94.94,0,0,0,.18,1c.16.17.48.39.72.28a1.35,1.35,0,0,0,.15.32,1,1,0,0,0,1.06.37A.08.08,0,0,0,105.48,101.63Z"/><path class="cls-7" d="M108.44,102.09a1.1,1.1,0,0,1-.73.33.77.77,0,0,1-.69-.49s-.08,0-.1,0c-.11.38.34.65.66.71a.87.87,0,0,0,1-.48A.08.08,0,0,0,108.44,102.09Z"/><path class="cls-7" d="M105.37,99.25a.52.52,0,0,1-.5-.13,1.82,1.82,0,0,1-.31-.47c0-.05-.12-.05-.13,0a.83.83,0,0,0,.39.74c.17.12.58.24.65-.05C105.49,99.28,105.43,99.24,105.37,99.25Z"/><path class="cls-7" d="M96.78,98.67a1.15,1.15,0,0,1-.52-.31.86.86,0,0,1-.14-.66c0-.08-.1-.1-.14,0-.31.5.19,1.33.8,1.15A.07.07,0,0,0,96.78,98.67Z"/><path class="cls-7" d="M94.27,98.63a2,2,0,0,1-.55-.44,1.12,1.12,0,0,1-.21-.79,0,0,0,0,0-.07,0,1,1,0,0,0,0,.88c-.42.37.06,1.29.6,1.14a.07.07,0,0,0,0-.13c-.16-.11-.35-.17-.46-.35a.74.74,0,0,1,0-.48.74.74,0,0,0,.67.31A.06.06,0,0,0,94.27,98.63Z"/><path class="cls-7" d="M95.28,96.94a.25.25,0,0,0-.19,0,.71.71,0,0,1-.32-.07c-.18-.09-.26-.26-.41-.39s0,0,0,0c-.09.22.11.47.28.58s.58.27.68,0A.08.08,0,0,0,95.28,96.94Z"/><path class="cls-7" d="M92.54,97.43c-.12-.14-.29-.19-.36-.38s0-.35,0-.52c0,0,0,0-.06,0-.26,0-.26.48-.19.68s.31.48.58.42A.11.11,0,0,0,92.54,97.43Z"/><path class="cls-7" d="M112.26,97.64a4.25,4.25,0,0,0-2.6-1.16,5.59,5.59,0,0,0-5.4-.25.08.08,0,0,0,.06.15,10.64,10.64,0,0,1,2.86-.37,7.7,7.7,0,0,1,1.88.44,4.5,4.5,0,0,0-1.11.13,0,0,0,0,0,0,.08,8.08,8.08,0,0,1,4.25,1S112.3,97.67,112.26,97.64Z"/><path class="cls-7" d="M112.07,94.83a0,0,0,0,0-.06,0,1.1,1.1,0,0,0,0,.26.56.56,0,0,1-.17.32,5,5,0,0,1-.49.31.06.06,0,0,0,0,.1.71.71,0,0,0,.71-.32C112.18,95.35,112.31,95,112.07,94.83Z"/><path class="cls-7" d="M111.1,95a0,0,0,0,0-.06,0,1.73,1.73,0,0,1,0,.6.72.72,0,0,1-.28.46s0,.1,0,.12C111.4,96.36,111.49,95.21,111.1,95Z"/><path class="cls-7" d="M105.89,92.32a.06.06,0,0,0-.09.05c0,.23.13.41.07.65a1.27,1.27,0,0,1-.28.46,1,1,0,0,0-.39-.54s0,0,0,0c0,.25.19.46.24.7s-.13.38-.08.59a.09.09,0,0,0,.17,0,.79.79,0,0,0,.17-.6h0C106.18,93.6,106.39,92.55,105.89,92.32Z"/><path class="cls-7" d="M108.06,93.46a0,0,0,0,0-.07,0,1.32,1.32,0,0,1-.26.53.85.85,0,0,1-.25.17.48.48,0,0,0-.23.1.12.12,0,0,0,0,.18c.22.13.54-.12.67-.29S108.2,93.67,108.06,93.46Z"/><path class="cls-7" d="M103.23,94.51a1,1,0,0,1-.32.52c-.14.13-.35.13-.49.25a.08.08,0,0,0,0,.13c.21.13.51-.08.66-.23a.84.84,0,0,0,.24-.67C103.33,94.45,103.24,94.46,103.23,94.51Z"/><path class="cls-7" d="M96.13,94.05c-.23-.06-.42,0-.6-.19a.84.84,0,0,1-.18-.63.06.06,0,0,0-.1,0,.63.63,0,0,0-.09.55.56.56,0,0,1-.33-.12c-.13-.11-.15-.27-.25-.39s0,0,0,0c-.13.19.06.51.21.63a.69.69,0,0,0,.55.14l0,0c.17.21.59.43.84.24A.12.12,0,0,0,96.13,94.05Z"/><path class="cls-7" d="M96.39,91.58a1.49,1.49,0,0,1-.47,0,1,1,0,0,1-.41-.28,0,0,0,0,0-.06,0c0,.42.69.71,1,.38A.06.06,0,0,0,96.39,91.58Z"/><path class="cls-7" d="M99.86,93.67a2.14,2.14,0,0,1-.44.3.69.69,0,0,1-.59-.08,0,0,0,0,0-.06.06.57.57,0,0,0,.62.25.73.73,0,0,0,.57-.46A.07.07,0,0,0,99.86,93.67Z"/><path class="cls-20" d="M94.47,85.27c-.17-.69-.94-1.16-1.48-.81-.46-.41-1.11-.67-1.54.12-.74-.09-1.41,1.4-.24,1.77a7.57,7.57,0,0,1,3-.73A.27.27,0,0,0,94.47,85.27Z"/><path class="cls-6" d="M66.85,51.12l-7,4.06c-2.41,1.39-4.37,5.13-4.37,8.33V85.69h0s.08.08.17.08.17,0,.17-.09V63.51c0-3.09,1.88-6.7,4.19-8L67,51.41A2.9,2.9,0,0,0,66.85,51.12Z"/><path class="cls-6" d="M82.89,59.94l-7.47,4.32c-2.41,1.39-4.37,5.13-4.37,8.33V94.78h0s.08.08.17.08.17,0,.17-.1V72.59c0-3.09,1.88-6.69,4.2-8L83,60.26Z"/><path class="cls-6" d="M97.9,69.49l-6.88,4c-2.41,1.4-4.37,5.13-4.37,8.34V104h0s.08.08.17.08S87,104,87,104V81.8c0-3.1,1.88-6.7,4.2-8l6.86-4Z"/><path class="cls-6" d="M113.76,78.42l-7.14,4.13c-2.4,1.39-4.36,5.13-4.36,8.33v22.18h0s.08.08.17.08.17,0,.17-.09V90.88c0-3.09,1.89-6.7,4.2-8l7.06-4.08C113.83,78.65,113.8,78.54,113.76,78.42Z"/><rect class="cls-6" x="78.75" y="63.48" width="0.37" height="54.11" transform="translate(-38.97 113.45) rotate(-59.92)"/><rect class="cls-6" x="78.75" y="51.26" width="0.37" height="54.11" transform="translate(-28.4 107.36) rotate(-59.92)"/><rect class="cls-6" x="84.34" y="41.23" width="0.37" height="54.11" transform="translate(-16.93 107.19) rotate(-59.92)"/><rect class="cls-6" x="90.48" y="37.76" width="0.37" height="54.11" transform="translate(-10.87 110.77) rotate(-59.92)"/><polygon class="cls-8" points="53.11 37.65 106.6 68.64 125.23 57.74 71.74 26.75 53.11 37.65"/><polygon class="cls-14" points="53.11 37.65 53.11 39.07 106.6 70.06 106.6 68.64 53.11 37.65"/><polygon class="cls-15" points="125.23 57.74 125.23 59.15 106.6 70.06 106.6 68.64 125.23 57.74"/><path class="cls-16" d="M63,53.17l3.47-8.07L54.8,38.38,51,40.6v5a1,1,0,0,0,.39.9h0Z"/><path class="cls-7" d="M66.45,45.1v5a2.66,2.66,0,0,1-1.09,2.1l-1.65.95c-.61.35-1.1,0-1.1-.83v-5Z"/><polygon class="cls-6" points="66.45 45.1 54.8 38.38 50.96 40.6 62.61 47.32 66.45 45.1"/><path class="cls-16" d="M53.19,40.62c.32-.4.9-.75,1.31-.47a.84.84,0,0,1,.86-.28.92.92,0,0,1,.62.59.39.39,0,0,1,.43,0,.46.46,0,0,1,.22.5.49.49,0,0,1,.47.12.54.54,0,0,1,.16.39.92.92,0,0,1,.85-.07.79.79,0,0,1,.39.52.44.44,0,0,1,.39-.06.52.52,0,0,1,.36.44.53.53,0,0,1,.72,0,.77.77,0,0,1,.21.7A.67.67,0,0,1,61,43a.59.59,0,0,1,.14.38.84.84,0,0,1,.78.13,1.08,1.08,0,0,1,.29.41.54.54,0,0,1,.64.32.84.84,0,0,1,.91.3,1.15,1.15,0,0,1,.1.49.58.58,0,0,1,.46.05c.12,0,.08.09.2.1s.34-.09.52-.07a1,1,0,0,1,.58.3l.5-.29L54.85,38.58l-3.55,2L52,41a1.42,1.42,0,0,1,.25-.3A.78.78,0,0,1,53.19,40.62Z"/><path class="cls-17" d="M65,45.06c-.18,0-.36.09-.52.07s-.08-.05-.2-.1a.58.58,0,0,0-.46-.05,1.15,1.15,0,0,0-.1-.49.84.84,0,0,0-.91-.3.54.54,0,0,0-.64-.32,1.08,1.08,0,0,0-.29-.41.84.84,0,0,0-.78-.13A.59.59,0,0,0,61,43a.67.67,0,0,0-.81,0,.77.77,0,0,0-.21-.7.53.53,0,0,0-.72,0,.52.52,0,0,0-.36-.44.44.44,0,0,0-.39.06.79.79,0,0,0-.39-.52.92.92,0,0,0-.85.07.54.54,0,0,0-.16-.39.49.49,0,0,0-.47-.12.46.46,0,0,0-.22-.5.39.39,0,0,0-.43,0,.92.92,0,0,0-.62-.59.84.84,0,0,0-.86.28c-.41-.28-1,.07-1.31.47a.78.78,0,0,0-.93.11A1.42,1.42,0,0,0,52,41l10.55,6.09,3-1.76A1,1,0,0,0,65,45.06Z"/><path class="cls-18" d="M55.15,40.49a.21.21,0,0,0-.26,0,.18.18,0,0,0-.08.14c0,.17.17.19.29.13S55.29,40.59,55.15,40.49Z"/><path class="cls-18" d="M58.74,43a.21.21,0,0,0-.26,0,.18.18,0,0,0-.09.14c0,.17.18.2.29.13S58.87,43.11,58.74,43Z"/><path class="cls-18" d="M62.75,46a.2.2,0,0,0-.26,0,.17.17,0,0,0-.09.14c0,.17.18.19.29.13S62.88,46.12,62.75,46Z"/><path class="cls-18" d="M54.19,41.16c0-.1-.16-.19-.26-.13h0s0,0,0,0a.21.21,0,0,0,.15.25A.12.12,0,0,0,54.19,41.16Z"/><path class="cls-18" d="M56.89,43a.2.2,0,0,0-.26-.12h0a0,0,0,0,0,0,0c0,.09,0,.22.15.25A.13.13,0,0,0,56.89,43Z"/><path class="cls-18" d="M59.86,44.78a.19.19,0,0,0-.25-.13h0l0,0a.23.23,0,0,0,.15.26A.13.13,0,0,0,59.86,44.78Z"/><path class="cls-18" d="M62.16,44.3a.2.2,0,0,0-.26-.13h0l0,0a.22.22,0,0,0,.15.26A.13.13,0,0,0,62.16,44.3Z"/><path class="cls-18" d="M54.83,41.55c0-.14-.21-.11-.3-.06h0s0,0-.06.07.08.16.17.16S54.86,41.68,54.83,41.55Z"/><path class="cls-18" d="M56.29,42.67c0-.13-.22-.11-.31-.06v0a.09.09,0,0,0-.06.07c0,.12.08.15.17.15S56.32,42.8,56.29,42.67Z"/><path class="cls-18" d="M59.29,42.94c0-.13-.21-.1-.3,0h0a.11.11,0,0,0-.06.07c0,.12.08.16.18.15S59.32,43.07,59.29,42.94Z"/><path class="cls-18" d="M60.55,43.88c0-.14-.21-.11-.3-.06h0a.16.16,0,0,0-.07.07c0,.13.08.16.18.16S60.58,44,60.55,43.88Z"/><path class="cls-18" d="M62.8,44.43c0-.13-.21-.1-.3-.06v0a.1.1,0,0,0-.07.07c0,.12.09.15.18.15S62.83,44.56,62.8,44.43Z"/><path class="cls-18" d="M56.54,41.24a.18.18,0,0,0-.27,0,.18.18,0,0,0-.07.08c0,.13.12.19.23.16S56.63,41.35,56.54,41.24Z"/><path class="cls-18" d="M58.05,43.66a.19.19,0,0,0-.28,0,.11.11,0,0,0-.07.08c0,.13.12.19.23.16S58.13,43.76,58.05,43.66Z"/><path class="cls-18" d="M61,45.42a.18.18,0,0,0-.27,0,.11.11,0,0,0-.07.08c0,.13.12.19.23.16S61,45.52,61,45.42Z"/><path class="cls-18" d="M63.9,45.42a.19.19,0,0,0-.28,0,.11.11,0,0,0-.07.08c0,.13.13.19.23.16S64,45.52,63.9,45.42Z"/><path class="cls-18" d="M58.12,41.87a.17.17,0,0,0-.27,0,.08.08,0,0,0-.07.08c0,.13.12.19.22.16S58.21,42,58.12,41.87Z"/><path class="cls-16" d="M75.4,60.52l3.47-8.07L67.22,45.73,63.37,48v5a1,1,0,0,0,.39.9h0Z"/><path class="cls-7" d="M78.87,52.45v5a2.62,2.62,0,0,1-1.1,2.1l-1.65.95c-.6.35-1.09,0-1.09-.83v-5Z"/><polygon class="cls-6" points="78.87 52.45 67.22 45.73 63.37 47.95 75.03 54.67 78.87 52.45"/><path class="cls-16" d="M65.61,48c.31-.4.89-.75,1.3-.47a.87.87,0,0,1,.87-.28.9.9,0,0,1,.61.59.41.41,0,0,1,.44,0,.45.45,0,0,1,.21.5.51.51,0,0,1,.48.12.53.53,0,0,1,.15.39.94.94,0,0,1,.86-.06.81.81,0,0,1,.39.51.48.48,0,0,1,.39-.06.52.52,0,0,1,.35.44.55.55,0,0,1,.73,0,.77.77,0,0,1,.21.7.71.71,0,0,1,.81,0,.65.65,0,0,1,.14.38.84.84,0,0,1,.78.13,1.16,1.16,0,0,1,.29.41.52.52,0,0,1,.63.33.81.81,0,0,1,.91.29,1,1,0,0,1,.11.49.63.63,0,0,1,.46.05c.12,0,.08.09.2.1s.34-.09.51-.07a1,1,0,0,1,.58.3l.5-.29L67.27,45.93l-3.55,2,.71.41a.93.93,0,0,1,.25-.31A.78.78,0,0,1,65.61,48Z"/><path class="cls-17" d="M77.44,52.41c-.17,0-.35.09-.51.07s-.08,0-.2-.1a.63.63,0,0,0-.46-.05,1,1,0,0,0-.11-.49.81.81,0,0,0-.91-.29.52.52,0,0,0-.63-.33,1.16,1.16,0,0,0-.29-.41.84.84,0,0,0-.78-.13.65.65,0,0,0-.14-.38.71.71,0,0,0-.81,0,.77.77,0,0,0-.21-.7.55.55,0,0,0-.73,0,.52.52,0,0,0-.35-.44.48.48,0,0,0-.39.06.81.81,0,0,0-.39-.51.94.94,0,0,0-.86.06.53.53,0,0,0-.15-.39.51.51,0,0,0-.48-.12.45.45,0,0,0-.21-.5.41.41,0,0,0-.44,0,.9.9,0,0,0-.61-.59.87.87,0,0,0-.87.28c-.41-.28-1,.07-1.3.47a.78.78,0,0,0-.93.11.93.93,0,0,0-.25.31L75,54.47l3-1.76A1,1,0,0,0,77.44,52.41Z"/><path class="cls-18" d="M67.57,47.85a.21.21,0,0,0-.26,0,.19.19,0,0,0-.09.14c0,.17.18.2.3.13S67.7,47.94,67.57,47.85Z"/><path class="cls-18" d="M71.16,50.37a.21.21,0,0,0-.26,0,.18.18,0,0,0-.09.14c0,.17.17.2.29.14S71.29,50.46,71.16,50.37Z"/><path class="cls-18" d="M75.17,53.37a.21.21,0,0,0-.26,0,.17.17,0,0,0-.09.14c0,.17.17.19.29.13S75.3,53.47,75.17,53.37Z"/><path class="cls-18" d="M66.61,48.51a.2.2,0,0,0-.26-.13h0a0,0,0,0,0,0,0,.22.22,0,0,0,.14.26A.13.13,0,0,0,66.61,48.51Z"/><path class="cls-18" d="M69.3,50.34c0-.09-.16-.18-.25-.12h0s0,0,0,0a.24.24,0,0,0,.15.25A.13.13,0,0,0,69.3,50.34Z"/><path class="cls-18" d="M72.28,52.13A.2.2,0,0,0,72,52h0l0,0a.22.22,0,0,0,.15.26A.13.13,0,0,0,72.28,52.13Z"/><path class="cls-18" d="M74.58,51.65c0-.09-.17-.18-.26-.12h0l0,0a.24.24,0,0,0,.15.26A.14.14,0,0,0,74.58,51.65Z"/><path class="cls-18" d="M67.25,48.9c0-.13-.22-.11-.31-.06v0a.09.09,0,0,0-.06.07c0,.12.08.15.17.15S67.28,49,67.25,48.9Z"/><path class="cls-18" d="M68.7,50c0-.13-.21-.1-.3-.06v0a.1.1,0,0,0-.07.07c0,.12.08.15.18.15S68.73,50.15,68.7,50Z"/><path class="cls-18" d="M71.71,50.29c0-.13-.22-.1-.31,0h0a.09.09,0,0,0-.06.07c0,.12.08.16.17.15S71.74,50.42,71.71,50.29Z"/><path class="cls-18" d="M73,51.23c0-.14-.21-.11-.3-.06h0a.17.17,0,0,0-.06.08c0,.12.08.15.17.15S73,51.36,73,51.23Z"/><path class="cls-18" d="M75.22,51.78c0-.13-.21-.1-.3-.05h0a.11.11,0,0,0-.06.07c0,.12.08.16.17.15S75.25,51.91,75.22,51.78Z"/><path class="cls-18" d="M69,48.59a.19.19,0,0,0-.27,0s-.07,0-.07.08.12.2.22.16S69.05,48.7,69,48.59Z"/><path class="cls-18" d="M70.46,51a.18.18,0,0,0-.27,0,.14.14,0,0,0-.07.08c0,.13.12.19.22.16S70.55,51.12,70.46,51Z"/><path class="cls-18" d="M73.37,52.77a.18.18,0,0,0-.27,0,.08.08,0,0,0-.07.08c0,.13.12.19.22.16S73.46,52.87,73.37,52.77Z"/><path class="cls-18" d="M76.31,52.77a.18.18,0,0,0-.27,0,.11.11,0,0,0-.07.08c0,.13.12.19.23.16S76.4,52.87,76.31,52.77Z"/><path class="cls-18" d="M70.54,49.22a.19.19,0,0,0-.28,0,.11.11,0,0,0-.07.08c0,.13.13.19.23.16S70.63,49.32,70.54,49.22Z"/><path class="cls-16" d="M88,67.81l3.48-8.06L79.85,53,76,55.25v5a1,1,0,0,0,.39.89h0Z"/><path class="cls-7" d="M91.51,59.75v5a2.63,2.63,0,0,1-1.1,2.09l-1.65,1c-.6.34-1.1,0-1.1-.83V62Z"/><polygon class="cls-6" points="91.51 59.75 79.85 53.03 76.01 55.25 87.67 61.97 91.51 59.75"/><path class="cls-16" d="M78.24,55.27c.32-.4.9-.75,1.31-.47a.85.85,0,0,1,.87-.28.92.92,0,0,1,.61.59.38.38,0,0,1,.43,0,.44.44,0,0,1,.22.5.49.49,0,0,1,.47.12.49.49,0,0,1,.16.39.92.92,0,0,1,.85-.07.85.85,0,0,1,.4.51.44.44,0,0,1,.39-.05.52.52,0,0,1,.35.44.54.54,0,0,1,.72,0,.82.82,0,0,1,.22.71.66.66,0,0,1,.8,0,.59.59,0,0,1,.15.38.84.84,0,0,1,.78.13,1.06,1.06,0,0,1,.28.41.52.52,0,0,1,.64.32.83.83,0,0,1,.91.3,1.14,1.14,0,0,1,.11.49.56.56,0,0,1,.45,0c.12,0,.09.08.21.1s.33-.09.51-.07a.91.91,0,0,1,.58.3l.5-.29L79.9,53.23l-3.54,2,.71.41a1,1,0,0,1,.25-.3A.76.76,0,0,1,78.24,55.27Z"/><path class="cls-17" d="M90.08,59.71c-.18,0-.36.08-.51.07s-.09-.05-.21-.1a.56.56,0,0,0-.45,0,1.14,1.14,0,0,0-.11-.49.83.83,0,0,0-.91-.3.52.52,0,0,0-.64-.32,1.06,1.06,0,0,0-.28-.41.84.84,0,0,0-.78-.13A.59.59,0,0,0,86,57.6a.66.66,0,0,0-.8,0A.82.82,0,0,0,85,56.9a.54.54,0,0,0-.72,0,.52.52,0,0,0-.35-.44.44.44,0,0,0-.39.05.85.85,0,0,0-.4-.51.92.92,0,0,0-.85.07.49.49,0,0,0-.16-.39.49.49,0,0,0-.47-.12.44.44,0,0,0-.21-.5.39.39,0,0,0-.44,0,.92.92,0,0,0-.61-.59.85.85,0,0,0-.87.28c-.41-.28-1,.07-1.31.47a.76.76,0,0,0-.92.11,1,1,0,0,0-.25.3l10.54,6.09,3-1.76A.91.91,0,0,0,90.08,59.71Z"/><path class="cls-18" d="M80.21,55.14a.2.2,0,0,0-.26,0,.17.17,0,0,0-.09.14c0,.17.17.19.29.13S80.34,55.24,80.21,55.14Z"/><path class="cls-18" d="M83.79,57.67a.21.21,0,0,0-.26,0,.19.19,0,0,0-.09.14c0,.17.18.2.3.13S83.93,57.76,83.79,57.67Z"/><path class="cls-18" d="M87.8,60.67a.21.21,0,0,0-.26,0,.17.17,0,0,0-.08.14c0,.17.17.2.29.14S87.94,60.76,87.8,60.67Z"/><path class="cls-18" d="M79.24,55.8c0-.09-.16-.18-.25-.12h0s0,0,0,0a.24.24,0,0,0,.15.25A.13.13,0,0,0,79.24,55.8Z"/><path class="cls-18" d="M81.94,57.64c0-.1-.16-.18-.25-.12h0l0,0a.22.22,0,0,0,.15.26A.13.13,0,0,0,81.94,57.64Z"/><path class="cls-18" d="M84.91,59.43c0-.1-.16-.19-.25-.13h0s0,0,0,0a.22.22,0,0,0,.15.25A.12.12,0,0,0,84.91,59.43Z"/><path class="cls-18" d="M87.21,59c0-.1-.16-.19-.25-.13h0s0,0,0,0a.22.22,0,0,0,.15.25A.12.12,0,0,0,87.21,59Z"/><path class="cls-18" d="M79.88,56.2c0-.14-.21-.11-.3-.06h0a.1.1,0,0,0-.07.07c0,.12.08.16.18.15S79.91,56.33,79.88,56.2Z"/><path class="cls-18" d="M81.34,57.32c0-.14-.21-.11-.3-.06h0s0,0-.06.07.08.16.17.16S81.37,57.45,81.34,57.32Z"/><path class="cls-18" d="M84.34,57.59c0-.13-.21-.1-.3-.06v0a.1.1,0,0,0-.07.07c0,.12.09.15.18.15S84.37,57.72,84.34,57.59Z"/><path class="cls-18" d="M85.61,58.53c0-.14-.22-.11-.31-.06h0a.09.09,0,0,0-.06.07c0,.12.08.16.17.15S85.64,58.65,85.61,58.53Z"/><path class="cls-18" d="M87.86,59.08c0-.14-.22-.11-.31-.06h0a.12.12,0,0,0-.06.08c0,.12.08.15.17.15S87.89,59.21,87.86,59.08Z"/><path class="cls-18" d="M81.6,55.89a.19.19,0,0,0-.28,0,.11.11,0,0,0-.07.08c0,.13.13.19.23.16S81.69,56,81.6,55.89Z"/><path class="cls-18" d="M83.1,58.31a.17.17,0,0,0-.27,0,.08.08,0,0,0-.07.08c0,.13.12.19.22.16S83.19,58.41,83.1,58.31Z"/><path class="cls-18" d="M86,60.07a.19.19,0,0,0-.28,0,.12.12,0,0,0-.07.07c0,.13.13.2.23.16S86.1,60.17,86,60.07Z"/><path class="cls-18" d="M89,60.07a.17.17,0,0,0-.27,0,.08.08,0,0,0-.07.07c0,.13.12.2.22.16S89,60.17,89,60.07Z"/><path class="cls-18" d="M83.17,56.52a.18.18,0,0,0-.27,0,.11.11,0,0,0-.07.08c0,.12.12.19.23.16S83.26,56.62,83.17,56.52Z"/><path class="cls-16" d="M100.45,75.17l3.47-8.07L92.27,60.38,88.43,62.6v5a1,1,0,0,0,.39.9h0Z"/><path class="cls-7" d="M103.92,67.1v5a2.66,2.66,0,0,1-1.09,2.1l-1.65,1c-.61.35-1.1,0-1.1-.83v-5Z"/><polygon class="cls-6" points="103.92 67.1 92.27 60.38 88.43 62.6 100.08 69.32 103.92 67.1"/><path class="cls-16" d="M90.66,62.62c.32-.4.9-.75,1.31-.47a.84.84,0,0,1,.86-.28.92.92,0,0,1,.62.59.39.39,0,0,1,.43,0,.46.46,0,0,1,.22.5.49.49,0,0,1,.47.12.54.54,0,0,1,.16.39.92.92,0,0,1,.85-.07.79.79,0,0,1,.39.52.44.44,0,0,1,.39-.06.52.52,0,0,1,.36.44.53.53,0,0,1,.72,0,.77.77,0,0,1,.21.7.67.67,0,0,1,.81,0,.59.59,0,0,1,.14.38.84.84,0,0,1,.78.13,1.08,1.08,0,0,1,.29.41.54.54,0,0,1,.64.32.84.84,0,0,1,.91.3,1.15,1.15,0,0,1,.1.49.58.58,0,0,1,.46,0c.12,0,.08.09.2.1s.34-.09.52-.07a.91.91,0,0,1,.58.3l.5-.29L92.32,60.58l-3.55,2,.71.41a1.42,1.42,0,0,1,.25-.3A.78.78,0,0,1,90.66,62.62Z"/><path class="cls-17" d="M102.5,67.06c-.18,0-.36.09-.52.07s-.08,0-.2-.1a.58.58,0,0,0-.46,0,1.15,1.15,0,0,0-.1-.49.84.84,0,0,0-.91-.3.54.54,0,0,0-.64-.32,1.08,1.08,0,0,0-.29-.41.84.84,0,0,0-.78-.13.59.59,0,0,0-.14-.38.67.67,0,0,0-.81,0,.77.77,0,0,0-.21-.7.53.53,0,0,0-.72,0,.52.52,0,0,0-.36-.44.44.44,0,0,0-.39.06.79.79,0,0,0-.39-.52.92.92,0,0,0-.85.07.54.54,0,0,0-.16-.39.49.49,0,0,0-.47-.12.46.46,0,0,0-.22-.5.39.39,0,0,0-.43,0,.92.92,0,0,0-.62-.59.84.84,0,0,0-.86.28c-.41-.28-1,.07-1.31.47a.78.78,0,0,0-.93.11,1.42,1.42,0,0,0-.25.3L100,69.12l3-1.76A.91.91,0,0,0,102.5,67.06Z"/><path class="cls-18" d="M92.62,62.49a.21.21,0,0,0-.26,0,.16.16,0,0,0-.08.14c0,.17.17.19.29.13S92.76,62.59,92.62,62.49Z"/><path class="cls-18" d="M96.21,65A.21.21,0,0,0,96,65a.18.18,0,0,0-.09.14c0,.17.18.2.29.13S96.34,65.11,96.21,65Z"/><path class="cls-18" d="M100.22,68a.2.2,0,0,0-.26,0,.17.17,0,0,0-.09.14c0,.17.18.19.29.13S100.35,68.12,100.22,68Z"/><path class="cls-18" d="M91.66,63.16c0-.1-.16-.19-.26-.13h0s0,0,0,0a.21.21,0,0,0,.15.25A.12.12,0,0,0,91.66,63.16Z"/><path class="cls-18" d="M94.36,65c0-.09-.17-.18-.26-.12h0a0,0,0,0,0,0,0c0,.09,0,.22.15.25A.13.13,0,0,0,94.36,65Z"/><path class="cls-18" d="M97.33,66.78a.19.19,0,0,0-.25-.13h0l0,0a.22.22,0,0,0,.15.26A.13.13,0,0,0,97.33,66.78Z"/><path class="cls-18" d="M99.63,66.3a.2.2,0,0,0-.26-.13h0a0,0,0,0,0,0,0,.22.22,0,0,0,.15.26A.13.13,0,0,0,99.63,66.3Z"/><path class="cls-18" d="M92.3,63.55c0-.14-.21-.11-.3-.06h0s0,0-.06.07.08.16.17.16S92.33,63.68,92.3,63.55Z"/><path class="cls-18" d="M93.76,64.67c0-.13-.22-.11-.31-.06s0,0,0,0a.09.09,0,0,0-.06.07c0,.12.08.15.17.15S93.79,64.8,93.76,64.67Z"/><path class="cls-18" d="M96.76,64.94c0-.13-.21-.1-.3-.06l0,0a.11.11,0,0,0-.06.07c0,.12.08.16.17.15S96.79,65.07,96.76,64.94Z"/><path class="cls-18" d="M98,65.88c0-.14-.21-.11-.3-.06a0,0,0,0,0,0,0,.16.16,0,0,0-.07.07c0,.13.08.16.18.15S98.05,66,98,65.88Z"/><path class="cls-18" d="M100.27,66.43c0-.13-.21-.1-.3-.06s0,0,0,0a.1.1,0,0,0-.07.07c0,.12.09.15.18.15S100.3,66.56,100.27,66.43Z"/><path class="cls-18" d="M94,63.24a.18.18,0,0,0-.27,0,.14.14,0,0,0-.07.08c0,.13.12.19.23.16S94.1,63.35,94,63.24Z"/><path class="cls-18" d="M95.52,65.66a.19.19,0,0,0-.28,0,.11.11,0,0,0-.07.08c0,.13.12.19.23.16S95.6,65.76,95.52,65.66Z"/><path class="cls-18" d="M98.42,67.42a.18.18,0,0,0-.27,0,.11.11,0,0,0-.07.08c0,.13.12.19.23.16S98.51,67.52,98.42,67.42Z"/><path class="cls-18" d="M101.37,67.42a.19.19,0,0,0-.28,0,.11.11,0,0,0-.07.08c0,.13.13.19.23.16S101.46,67.52,101.37,67.42Z"/><path class="cls-18" d="M95.59,63.87a.17.17,0,0,0-.27,0,.08.08,0,0,0-.07.08c0,.13.12.19.22.16S95.68,64,95.59,63.87Z"/><path class="cls-6" d="M70.84,2.53a2.88,2.88,0,0,0-3,.22L59.82,7.39l-.1.07.25.15.08,0,8-4.61a3.18,3.18,0,0,1,1.61-.49,2,2,0,0,1,1,.27c.89.51,1.4,1.72,1.4,3.3V28.2h0a.17.17,0,0,0,.16.07c.09,0,.17,0,.17-.09v-22C72.41,4.42,71.84,3.1,70.84,2.53Z"/><path class="cls-6" d="M86.44,11.61a2.88,2.88,0,0,0-3,.22l-8,4.64-.17.11a3.9,3.9,0,0,1,.35.19l8-4.64a3.31,3.31,0,0,1,1.61-.49,2,2,0,0,1,1,.27c.88.51,1.39,1.72,1.39,3.31V37.28h0a.17.17,0,0,0,.16.07c.09,0,.17,0,.17-.09v-22C88,13.5,87.44,12.18,86.44,11.61Z"/><path class="cls-6" d="M102,20.81a2.93,2.93,0,0,0-3,.22l-7.93,4.58.28.24,7.82-4.52a3.29,3.29,0,0,1,1.61-.48,2.09,2.09,0,0,1,1,.26,3.66,3.66,0,0,1,1.4,3.31V46.49h0a.17.17,0,0,0,.16.07c.1,0,.17,0,.17-.09v-22C103.61,22.71,103,21.39,102,20.81Z"/><path class="cls-6" d="M117.64,29.89a2.93,2.93,0,0,0-3,.22l-8,4.65-.09.06.36.19,8-4.59a3.15,3.15,0,0,1,1.6-.49,2,2,0,0,1,1,.27c.89.51,1.4,1.71,1.4,3.3V55.57h0a.17.17,0,0,0,.16.07c.1,0,.18,0,.18-.09v-22A4,4,0,0,0,117.64,29.89Z"/><path class="cls-7" d="M87.47,25.28a2,2,0,0,0-.2-.64c-.4,3.15-1.47,5.17-2.38,6.1.92.74.08,2-.6,2.48a1.73,1.73,0,0,1,.71,1c0,.42-.37.43-.81.48a6.32,6.32,0,0,0-1.56.21c1.1,1.09.43,3.33-.63,4.22a6.15,6.15,0,0,1-4,1.15,4.84,4.84,0,0,1-3.66-1.56c-1.09-1.29-.47-3.43-.16-4.35-.15-.12-.9.38-1,.56a4.55,4.55,0,0,1,.35-1.8c-1.92.26-2.48,2.27-2.49,3.93a8.22,8.22,0,0,0,.29,2.58,2.25,2.25,0,0,1-1.07-1.55c-.73.45-.56,1.77-.07,2.45a8.14,8.14,0,0,1-2.35-1.63c-.81-1-1.51-2.39-1-3.62-.79-.2-1.75,2-1.71,3.22-.88-1.39-1.81-2.79-1-4.51-.74.09-1.15.93-1.33,1.82a2.82,2.82,0,0,0,.58,1.5,14.53,14.53,0,0,0,.9,2.6,4.08,4.08,0,0,0,2.72,1.34c-.08-.15-.16-.3-.23-.46a1.74,1.74,0,0,1-.12-1.07A3.53,3.53,0,0,0,67.92,41a3.65,3.65,0,0,0,1.84.4c.11.29.64.57,1,.7a2.38,2.38,0,0,0,1.24,0c-.13-.15-.31-.47-.24-.58a3.68,3.68,0,0,0,2.61,1,2.19,2.19,0,0,1-.28-1.2,2.42,2.42,0,0,1-1.44-.8,3.18,3.18,0,0,1-.3-3c.4,1,.63,2.92,2.21,3.31a5.39,5.39,0,0,1,0-.82A3.3,3.3,0,0,0,76,42a3,3,0,0,0,2.44.14,1.09,1.09,0,0,1-.37-.49,9,9,0,0,0,4,.45l.35-.16a5.78,5.78,0,0,0,3.36-4.17,6.65,6.65,0,0,0-.1-2.39,18.15,18.15,0,0,0,1.54-4.5A16.17,16.17,0,0,0,87.47,25.28Z"/><path class="cls-16" d="M78.09,41.6a1.09,1.09,0,0,0,.37.49A3,3,0,0,1,76,42a3.3,3.3,0,0,1-1.51-1.88,5.39,5.39,0,0,0,0,.82c-1.58-.39-1.81-2.28-2.21-3.31a3.18,3.18,0,0,0,.3,3,2.42,2.42,0,0,0,1.44.8,2.19,2.19,0,0,0,.28,1.2,3.68,3.68,0,0,1-2.61-1c-.07.11.11.43.24.58a2.38,2.38,0,0,1-1.24,0c-.36-.13-.89-.41-1-.7a3.65,3.65,0,0,1-1.84-.4,3.53,3.53,0,0,1-1.34-1.28,1.74,1.74,0,0,0,.12,1.07c.07.16.15.31.23.46a4.08,4.08,0,0,1-2.72-1.34,9.45,9.45,0,0,0,2.2,2.94c1,.89,2.71,1,3.87,1.08,1.42.1,2.18.79,3.6.93a8.4,8.4,0,0,0,6.6-2,4.22,4.22,0,0,0,.41-.43,8.53,8.53,0,0,0,1.2-.42A9,9,0,0,1,78.09,41.6Z"/><path class="cls-7" d="M83.23,28.82a12.35,12.35,0,0,0,2.59-4.34,1.73,1.73,0,0,0-.28-.88l-.07-.07c-.22.64-.66,1.81-.92,2.41C83.82,27.61,83.46,28.23,83.23,28.82Z"/><path class="cls-7" d="M81.38,25.94A11.77,11.77,0,0,0,80.53,27L82.87,25A4.2,4.2,0,0,0,84,23.67a1.54,1.54,0,0,0,0-.75,6.44,6.44,0,0,1-.67,1A26.93,26.93,0,0,1,81.38,25.94Z"/><path class="cls-7" d="M63.54,30c.39.07.85-.32,1.05-.61A2.78,2.78,0,0,0,65.06,28a2,2,0,0,0,.62-2.81.11.11,0,0,0-.06-.1.1.1,0,0,1,0,0s0,0,0,0v0a.12.12,0,0,0-.11.06,20,20,0,0,1-2.62,2.47c0,.94-.29,2-.35,2.5l-.06.72A1.74,1.74,0,0,0,63.54,30Z"/><path class="cls-6" d="M84.89,30.74c.91-.93,2-2.95,2.38-6.1-.32-.57-.92-.56-1.45-.16a12.35,12.35,0,0,1-2.59,4.34c.23-.59.59-1.21,1.32-2.88.26-.6.7-1.77.92-2.41-.41-.42-1-.24-1.52.14A4.2,4.2,0,0,1,82.87,25L80.53,27a11.77,11.77,0,0,1,.85-1.07,26.93,26.93,0,0,0,1.85-2,6.44,6.44,0,0,0,.67-1,.83.83,0,0,0-.14-.22c-.47-.45-1.74.23-2.32.52-1.46,1.15-2.78,2.7-2.8,3.26A3.5,3.5,0,0,0,75.5,27a7.16,7.16,0,0,0-5,1.13c-.1-2.29-2.75-5.92-3.13-6.45A6.45,6.45,0,0,0,65.68,21a7.25,7.25,0,0,0-2.93.25,3,3,0,0,0-1.33,1.2c-.62,1.08-.74,2.44-.05,3a.1.1,0,0,0,.11.1h.1a3.88,3.88,0,0,0,.69.18,2,2,0,0,1,.56,1.84,20,20,0,0,0,2.62-2.47.12.12,0,0,1,.11-.06v0s0,0,0,0a.1.1,0,0,0,0,0,.11.11,0,0,1,.06.1A2,2,0,0,1,65.06,28a2.78,2.78,0,0,1-.47,1.45c-.2.29-.66.68-1.05.61a1.74,1.74,0,0,1-1.12.77,20.42,20.42,0,0,0,.18,3.91c0,.36.08.75.13,1.13.18-.89.59-1.73,1.33-1.82-.8,1.72.13,3.12,1,4.51,0-1.21.92-3.42,1.71-3.22-.49,1.23.21,2.67,1,3.62a8.14,8.14,0,0,0,2.35,1.63c-.49-.68-.66-2,.07-2.45a2.25,2.25,0,0,0,1.07,1.55A8.22,8.22,0,0,1,71,37.08c0-1.66.57-3.67,2.49-3.93a4.55,4.55,0,0,0-.35,1.8c.12-.18.87-.68,1-.56-.31.92-.93,3.06.16,4.35A4.84,4.84,0,0,0,78,40.3a6.15,6.15,0,0,0,4-1.15c1.06-.89,1.73-3.13.63-4.22a6.32,6.32,0,0,1,1.56-.21c.44,0,.83-.06.81-.48a1.73,1.73,0,0,0-.71-1C85,32.71,85.81,31.48,84.89,30.74Z"/><path class="cls-7" d="M75.5,27a3.5,3.5,0,0,1,3.14-.53c0-.56,1.34-2.11,2.8-3.26l-.11.06A10.43,10.43,0,0,0,78,25.83a13.5,13.5,0,0,0-7,.74c-.2-.54-.4-1.08-.64-1.6a7.17,7.17,0,0,0-2.59-3l-.39-.23c.38.53,3,4.16,3.13,6.45A7.16,7.16,0,0,1,75.5,27Z"/><path class="cls-19" d="M63.72,23.32a.45.45,0,0,0-.25.55.5.5,0,0,0,.13.19.42.42,0,1,0,.12-.74Z"/><path class="cls-20" d="M64.87,25.78a1.69,1.69,0,0,1-2-.37c-.08-.09-1.49.65-1.54,1.58,0,.49.5.6.9.5a.62.62,0,0,0,.52.54,1.66,1.66,0,0,0,1.46-.51A3.4,3.4,0,0,0,64.87,25.78Z"/><path class="cls-21" d="M60.48,26.63a3.14,3.14,0,0,1,.9-.57,10.88,10.88,0,0,0,1.68-.76.92.92,0,0,0-.33-.5c-.56-.43-1.19-.76-1.56-.53a2.78,2.78,0,0,0-.72,1.17c0,.11-.07.21-.1.32l0,.37A2.77,2.77,0,0,0,60.48,26.63Z"/><path class="cls-22" d="M60.41,27.17a9.35,9.35,0,0,1,1.82-1c.28-.12.62-.2.77-.48a.74.74,0,0,0,.06-.43,10.88,10.88,0,0,1-1.68.76,3.14,3.14,0,0,0-.9.57,2.77,2.77,0,0,1-.1-.5l0-.37A2.93,2.93,0,0,0,60.41,27.17Z"/><path class="cls-7" d="M79.77,35.9c-.41.06-1.13.4-1.35-.2a.07.07,0,0,0-.14,0,.5.5,0,0,0,0,.3.64.64,0,0,1-.49,0,1.11,1.11,0,0,1-.32-.36s-.05,0-.05,0c-.15.53.64.85,1,.58v0c.39.28,1.17.23,1.35-.19A.06.06,0,0,0,79.77,35.9Z"/><path class="cls-7" d="M68.77,37.64a.66.66,0,0,1-.44-.65,2,2,0,0,1,.21-.71.06.06,0,0,0-.07-.07.66.66,0,0,0-.41.5,1.18,1.18,0,0,1-.23-.39,1.82,1.82,0,0,1,.07-.8s0-.05-.05,0A.93.93,0,0,0,68,37c0,.47.25,1,.72.83C68.83,37.81,68.86,37.68,68.77,37.64Z"/><path class="cls-7" d="M71,34.39c-.29-.18-.64-.16-.85-.44a2.91,2.91,0,0,1-.31-1,0,0,0,0,0,0,0,1,1,0,0,0-.1.65,1.54,1.54,0,0,1-.42-.22.93.93,0,0,1-.25-.76c0-.1-.13-.1-.16,0a.92.92,0,0,0,.18,1c.15.18.48.4.71.28a1.2,1.2,0,0,0,.16.32,1,1,0,0,0,1.06.38A.08.08,0,0,0,71,34.39Z"/><path class="cls-7" d="M76.77,37.33c-.29-.17-.64-.15-.85-.43a2.91,2.91,0,0,1-.31-1,0,0,0,0,0,0,0,1,1,0,0,0-.1.65,1.41,1.41,0,0,1-.42-.22.93.93,0,0,1-.25-.76c0-.1-.13-.1-.16,0a.92.92,0,0,0,.18,1c.15.18.48.39.71.28a1.37,1.37,0,0,0,.16.32,1,1,0,0,0,1.06.37C76.81,37.46,76.82,37.37,76.77,37.33Z"/><path class="cls-7" d="M79.73,37.79a1.16,1.16,0,0,1-.74.34.78.78,0,0,1-.68-.5s-.09,0-.1,0c-.11.38.33.66.66.72a.86.86,0,0,0,1-.49A.08.08,0,0,0,79.73,37.79Z"/><path class="cls-7" d="M76.66,35a.51.51,0,0,1-.51-.13,2.55,2.55,0,0,1-.31-.47s-.11,0-.12,0a.8.8,0,0,0,.39.73c.17.12.57.24.65-.05A.09.09,0,0,0,76.66,35Z"/><path class="cls-7" d="M68.07,34.38a1.17,1.17,0,0,1-.52-.32.85.85,0,0,1-.14-.66.08.08,0,0,0-.14,0c-.31.51.19,1.33.8,1.16A.07.07,0,0,0,68.07,34.38Z"/><path class="cls-7" d="M65.55,34.33a1.94,1.94,0,0,1-.55-.44,1.16,1.16,0,0,1-.2-.79s-.06-.05-.07,0a.94.94,0,0,0,0,.88c-.43.37.05,1.29.6,1.15a.08.08,0,0,0,0-.14c-.17-.11-.36-.17-.46-.35a.68.68,0,0,1-.05-.48.76.76,0,0,0,.67.32A.07.07,0,0,0,65.55,34.33Z"/><path class="cls-7" d="M66.57,32.65a.24.24,0,0,0-.2-.06.67.67,0,0,1-.31-.07c-.19-.09-.27-.26-.42-.39a0,0,0,0,0,0,0c-.09.21.12.46.28.57s.59.27.69,0C66.59,32.71,66.6,32.67,66.57,32.65Z"/><path class="cls-7" d="M63.82,33.13c-.12-.13-.29-.19-.35-.37s0-.35,0-.52a.06.06,0,0,0-.06,0c-.27,0-.27.49-.19.68s.31.48.57.42A.1.1,0,0,0,63.82,33.13Z"/><path class="cls-7" d="M83.55,33.34A4.27,4.27,0,0,0,81,32.18a5.64,5.64,0,0,0-5.41-.25c-.08.05,0,.17.07.16a10.16,10.16,0,0,1,2.86-.37,7.35,7.35,0,0,1,1.88.43,5.62,5.62,0,0,0-1.11.13,0,0,0,0,0,0,.08,8.11,8.11,0,0,1,4.25,1A0,0,0,0,0,83.55,33.34Z"/><path class="cls-7" d="M83.35,30.53s0,0,0,0a2.48,2.48,0,0,0,0,.27.59.59,0,0,1-.17.32c-.14.13-.34.18-.49.31s0,.08,0,.09a.7.7,0,0,0,.72-.32C83.47,31.06,83.59,30.65,83.35,30.53Z"/><path class="cls-7" d="M82.38,30.69a0,0,0,0,0,0,0,1.73,1.73,0,0,1,0,.6.66.66,0,0,1-.28.46.07.07,0,0,0,0,.12C82.69,32.07,82.77,30.91,82.38,30.69Z"/><path class="cls-7" d="M77.18,28a.06.06,0,0,0-.09.05c0,.23.13.42.07.66a1.34,1.34,0,0,1-.29.45.9.9,0,0,0-.39-.53s0,0,0,0c0,.26.19.47.24.71s-.14.37-.09.59a.1.1,0,0,0,.18,0,.83.83,0,0,0,.17-.6h0C77.47,29.3,77.68,28.26,77.18,28Z"/><path class="cls-7" d="M79.35,29.17s-.06,0-.07,0a1.38,1.38,0,0,1-.26.53.9.9,0,0,1-.26.17.48.48,0,0,0-.23.1.11.11,0,0,0,0,.18c.22.13.53-.12.66-.29A.66.66,0,0,0,79.35,29.17Z"/><path class="cls-7" d="M74.51,30.21a1,1,0,0,1-.31.52c-.15.13-.35.13-.49.25a.09.09,0,0,0,0,.14c.21.12.5-.09.65-.24a.81.81,0,0,0,.25-.67C74.62,30.15,74.53,30.16,74.51,30.21Z"/><path class="cls-7" d="M67.41,29.76c-.22-.06-.42,0-.6-.2a.82.82,0,0,1-.17-.63c0-.05-.07-.08-.1,0a.6.6,0,0,0-.09.55.43.43,0,0,1-.33-.12c-.13-.11-.15-.26-.25-.39s0,0-.05,0c-.14.18.05.5.2.62a.67.67,0,0,0,.56.14v0c.17.21.59.43.85.24A.11.11,0,0,0,67.41,29.76Z"/><path class="cls-7" d="M67.68,27.29a1.83,1.83,0,0,1-.47,0A.84.84,0,0,1,66.8,27s-.06,0-.06,0a.61.61,0,0,0,1,.37S67.73,27.28,67.68,27.29Z"/><path class="cls-7" d="M71.15,29.37a2.14,2.14,0,0,1-.44.3.71.71,0,0,1-.6-.07,0,0,0,0,0,0,0,.57.57,0,0,0,.61.26.71.71,0,0,0,.57-.47A.06.06,0,0,0,71.15,29.37Z"/><path class="cls-20" d="M65.76,21c-.17-.69-1-1.16-1.48-.81-.46-.4-1.12-.67-1.55.13-.74-.1-1.4,1.4-.24,1.77a7.62,7.62,0,0,1,3-.74A.28.28,0,0,0,65.76,21Z"/><path class="cls-20" d="M76.62,49.5a2,2,0,0,0-.8.19L74.66,50a.14.14,0,0,0-.08.21.75.75,0,0,1,.12.68.14.14,0,0,0,.17.17,1.39,1.39,0,0,0,2-.83C77,50,77,49.58,76.62,49.5Z"/><path class="cls-21" d="M73.07,50.77a6.94,6.94,0,0,0,.65,1.74.11.11,0,0,0,.1.06l.06-.14C74.18,51.82,74.3,51,73.07,50.77Z"/><path class="cls-22" d="M75.42,50.66a.13.13,0,0,0,0-.18A8.11,8.11,0,0,0,73,49.87a2.51,2.51,0,0,0,0,.9c1.23.18,1.11,1,.81,1.66l-.06.14a.16.16,0,0,0,.09,0A7.39,7.39,0,0,0,75.42,50.66Z"/><path class="cls-6" d="M97.27,28.57a2.28,2.28,0,0,0-.66,0,1.11,1.11,0,0,0-.19-.45c-.51-.66-1.34-.47-2-.07a.71.71,0,0,0-.44-.76c-.49-.22-1.11.1-1.55.3-.23.1-.47.22-.71.34a11.86,11.86,0,0,0-5.6.82c-1.68,1.23-3.35,3.05-3.54,4.16A3.77,3.77,0,0,0,80,36.79a4.06,4.06,0,0,0-.61,3.85.89.89,0,0,0-1,.77c-.27.1-.57.13-.85.24a3.45,3.45,0,0,0-1.71,1.91,4.48,4.48,0,0,0-3,2.26A7.75,7.75,0,0,0,72.38,47c-.3,1.43,0,3.12,1.59,3.59a2.72,2.72,0,0,0,1.33,0h0a3,3,0,0,0,1-.72,3,3,0,0,0,.64-1.1,3,3,0,0,0,1.89.38c.63-.24,1.38-1.4,1.41-1.45s.21,0,.19.08a.75.75,0,0,1,0,.16A2.65,2.65,0,0,0,83,47.5s1.5,1,2.47.84a2.65,2.65,0,0,0,1.88-1.63,1.32,1.32,0,0,1-.88-.28s0,0,0,0a2.3,2.3,0,0,0,2.13-.51,3.54,3.54,0,0,0,.64-.77c-.88-.41-2.4-1.17-2.07-2.42a2.81,2.81,0,0,0,2,.95,2.67,2.67,0,0,0,2.61-1.36,3,3,0,0,0,2.15-.41c.67-.49.6-1.8.6-1.8a1.55,1.55,0,0,0,1.2-1.16,1.49,1.49,0,0,0-1.14-1.67,3,3,0,0,0-2.54.83c-.11.12-.26,0-.2-.15A2.91,2.91,0,0,1,95,36.29c.38-.34,1.16-1.07.53-3.33A4.17,4.17,0,0,0,97.27,28.57Z"/><path class="cls-7" d="M75.74,43.56a3.45,3.45,0,0,1,1.71-1.91c.28-.11.58-.14.85-.24a.89.89,0,0,1,1-.77A4.06,4.06,0,0,1,80,36.79a3.77,3.77,0,0,1,2.66-3.91c.19-1.11,1.86-2.93,3.54-4.16l-.81.34a6.86,6.86,0,0,0-3.4,2.86,6.9,6.9,0,0,0-3.31,4.31,12.64,12.64,0,0,0-.24,2.3,15.12,15.12,0,0,0-.08,1.79,5.88,5.88,0,0,0-2.92,2.54,4.28,4.28,0,0,0-2.66,3A4.48,4.48,0,0,1,75.74,43.56Z"/><path class="cls-7" d="M82.23,48.9a2.32,2.32,0,0,0,2.33.54c.73.58,2.86.06,3.14-.86a3.7,3.7,0,0,0,1.54-.32c.5-.26,1.27-.83.86-1.47v0h0a1.42,1.42,0,0,0,1.39-1.48,1.52,1.52,0,0,1-1.11-.5,5.81,5.81,0,0,0,1.5-.12,2.24,2.24,0,0,0,1.23-1.14A2.88,2.88,0,0,0,95,42.86a2.8,2.8,0,0,0,.86-2.09,1.78,1.78,0,0,0,.72-1.49,2.53,2.53,0,0,0-.5-1.77,3.06,3.06,0,0,0,1.16-1.29c.06-1,.07-2.67.18-3.75.9-1.56,1.23-2.91.56-3.51a1.52,1.52,0,0,0-.74-.39A4.17,4.17,0,0,1,95.48,33c.63,2.26-.15,3-.53,3.33a2.91,2.91,0,0,0-3.12,1.64c-.06.12.09.27.2.15a3,3,0,0,1,2.54-.83,1.49,1.49,0,0,1,1.14,1.67,1.55,1.55,0,0,1-1.2,1.16s.07,1.31-.6,1.8a3,3,0,0,1-2.15.41,2.67,2.67,0,0,1-2.61,1.36,2.81,2.81,0,0,1-2-.95c-.33,1.25,1.19,2,2.07,2.42a3.54,3.54,0,0,1-.64.77,2.3,2.3,0,0,1-2.13.51s0,0,0,0a1.32,1.32,0,0,0,.88.28,2.65,2.65,0,0,1-1.88,1.63c-1,.19-2.46-.85-2.47-.84a2.65,2.65,0,0,1-2.6.42.75.75,0,0,0,0-.16c0-.11-.13-.2-.19-.08s-.78,1.21-1.41,1.45a3,3,0,0,1-1.89-.38,3,3,0,0,1-.64,1.1,3,3,0,0,1-1,.72h0a3.25,3.25,0,0,0,1.48-.8c1.25.77,3,.45,4.49-.12l0,0A2.52,2.52,0,0,0,82.23,48.9Z"/><path class="cls-16" d="M92.48,46.05a3.47,3.47,0,0,0,3.09-2.93c.93-.77,1.93-3.71,1.7-6.9a3.06,3.06,0,0,1-1.16,1.29,2.53,2.53,0,0,1,.5,1.77,1.78,1.78,0,0,1-.72,1.49A2.8,2.8,0,0,1,95,42.86a2.88,2.88,0,0,1-1.93.67,2.24,2.24,0,0,1-1.23,1.14,5.81,5.81,0,0,1-1.5.12,1.52,1.52,0,0,0,1.11.5,1.42,1.42,0,0,1-1.39,1.48h0v0c.41.64-.36,1.21-.86,1.47a3.7,3.7,0,0,1-1.54.32c-.28.92-2.41,1.44-3.14.86a2.32,2.32,0,0,1-2.33-.54,2.52,2.52,0,0,1-.93.78C84,51.15,90.06,50.53,92.48,46.05Z"/><path class="cls-20" d="M73.76,46.7c.12-.19.16-.47,0-.55-.83-.36-.93.6-1.31,1s-.52.21-.65.62c-.18.58.33,1,.3,1.53,0,.28-.21.37,0,.69s.73.39,1.14.36a.15.15,0,0,0,.14-.18A4.47,4.47,0,0,1,73.76,46.7Z"/><path class="cls-19" d="M74.83,49.45a.43.43,0,0,0-.24.54.32.32,0,0,0,.12.18.42.42,0,1,0,.12-.72Z"/><path class="cls-7" d="M95.37,36.59a4.32,4.32,0,0,0-5.7.4,2.89,2.89,0,0,0-3,1.87s0,.06.06,0A4.39,4.39,0,0,1,88,37.68a3.47,3.47,0,0,1,1.45-.4,1.83,1.83,0,0,0-.18.3s0,.07.06.05a9.8,9.8,0,0,1,2.57-1.5,5,5,0,0,1,3.32.68C95.34,36.87,95.49,36.7,95.37,36.59Z"/><path class="cls-7" d="M86.33,44.83a.07.07,0,0,0-.12,0c-.16.16-.24.35-.44.46a1.33,1.33,0,0,1-.74,0s0,0,0,.05a.7.7,0,0,0,.47.17c-.09.24-.13.48-.42.58l-.21,0h-.16s-.07,0-.06.05.18.13.28.14a.8.8,0,0,0,.42-.13.62.62,0,0,0,.27-.68C86,45.46,86.35,45.2,86.33,44.83Z"/><path class="cls-7" d="M89.91,41.3a1.56,1.56,0,0,1-.83.39,1,1,0,0,1-.41-.1.07.07,0,0,0-.07,0c-.12-.06-.24-.15-.37-.23s0,0,0,0a.78.78,0,0,0,.19.32.64.64,0,0,1-.47.16,1,1,0,0,1-.61-.38s0,0,0,0a.67.67,0,0,0,.62.61.83.83,0,0,0,.71-.25A1,1,0,0,0,90,41.36.06.06,0,0,0,89.91,41.3Z"/><path class="cls-7" d="M93,40.37a0,0,0,0,0-.08,0,.79.79,0,0,1-.3.57,1,1,0,0,1-.22.14.24.24,0,0,1-.31,0,.09.09,0,0,0-.13.08c0,.13.1.21.23.23a.77.77,0,0,0,.47-.18C92.94,41,93.23,40.66,93,40.37Z"/><path class="cls-7" d="M93.33,38.45a.06.06,0,0,0-.11,0,.56.56,0,0,1-.34.49,1.15,1.15,0,0,1-.61,0s-.07,0,0,.05c.07.21.31.25.53.23a.74.74,0,0,1-.31.27,5.81,5.81,0,0,1-.58.09.08.08,0,0,0,0,.13c.18.22.57.11.78,0a.85.85,0,0,0,.33-.49l.1,0C93.31,39.06,93.57,38.71,93.33,38.45Z"/><path class="cls-7" d="M90.24,38.11a0,0,0,0,0,0,0,.44.44,0,0,1,.17.27.76.76,0,0,1,0,.3.65.65,0,0,1-.07.21c0,.07-.1.09-.11.17a.07.07,0,0,0,.05.09c.26.08.35-.36.36-.54S90.53,38,90.24,38.11Z"/><path class="cls-7" d="M89.27,38.82s-.09,0-.08.08c0,.22.16.38.07.62s-.31.28-.49.4a.06.06,0,0,0,0,.1c.3.13.61-.13.72-.4S89.56,38.93,89.27,38.82Z"/><path class="cls-7" d="M83.81,43s0,0,0,0a.93.93,0,0,0,0,.23.66.66,0,0,1-.07.33.92.92,0,0,1-.3.4l0,0a1,1,0,0,0-.26-.47s-.05,0-.05,0a3.78,3.78,0,0,1,.12.64.7.7,0,0,1,0,.29c0,.16-.14.16-.23.27a.05.05,0,0,0,0,.08l0,0a.12.12,0,0,0,.11,0c.32-.09.39-.39.35-.7.23,0,.42-.35.49-.53S84.07,43.09,83.81,43Z"/><path class="cls-7" d="M85.81,39.76c0-.1-.11-.24-.22-.26a.09.09,0,0,0-.13.08,0,0,0,0,0,0,0c.1,0,.14.39.14.46s-.08.29,0,.43.06.06.11,0C86,40.42,85.89,40,85.81,39.76Z"/><path class="cls-7" d="M93.92,32.88s0,0,0,0,.06.19.07.25a.69.69,0,0,1,0,.35c0,.18-.18.32-.2.49a.1.1,0,0,0,.13.1C94.43,34,94.3,32.72,93.92,32.88Z"/><path class="cls-7" d="M94.67,30.34c-.06-.08-.2,0-.14.1a.47.47,0,0,1,0,.6,4.12,4.12,0,0,1-.31.28c-.14-.19-.35-.43-.56-.41,0,0,0,0,0,0,0,.19.25.34.35.5a1.06,1.06,0,0,1,.2.69.11.11,0,0,0,.18.07.57.57,0,0,0,0-.68.8.8,0,0,0,.47-.48A.7.7,0,0,0,94.67,30.34Z"/><path class="cls-7" d="M91.06,33.19a.07.07,0,0,0-.1.07A1.37,1.37,0,0,1,91,34a.87.87,0,0,1-.15.34l-.07.07a.58.58,0,0,0-.56-.29,0,0,0,0,0,0,0,1.21,1.21,0,0,1,.37.44,1.5,1.5,0,0,1,0,.6.09.09,0,0,0,.15,0,.55.55,0,0,0,.14-.61C91.28,34.51,91.43,33.4,91.06,33.19Z"/><path class="cls-7" d="M96.61,28.54a6.29,6.29,0,0,0-1.2.59,9.69,9.69,0,0,1-.84.54,3.46,3.46,0,0,1,.84-1.32,1.6,1.6,0,0,1,.85-.43A.91.91,0,0,1,96.61,28.54Z"/><path class="cls-7" d="M94.45,28a4.21,4.21,0,0,0-.66.55,2.17,2.17,0,0,1-.46.39.88.88,0,0,1,.09-.94c.37-.45.76-.68.84-.59A1.06,1.06,0,0,1,94.45,28Z"/><path class="cls-7" d="M92.06,30.55c0-.18-.26-.42-.46-.29,0,0,0,0,0,.07a.75.75,0,0,1,.19.17.62.62,0,0,1,0,.27,2.19,2.19,0,0,1-.1.51.13.13,0,0,0,.23.1A1.09,1.09,0,0,0,92.06,30.55Z"/><path class="cls-7" d="M90.37,31.14a0,0,0,0,0,0,.05c.1.12.26.17.37.3s.13.3.21.47a.13.13,0,0,0,.23,0C91.29,31.58,90.75,30.92,90.37,31.14Z"/><path class="cls-7" d="M86.52,35.16s0,0,0,0,.11.25.14.38a.9.9,0,0,1,0,.46c0,.12.16.22.22.09A.74.74,0,0,0,86.52,35.16Z"/><path class="cls-7" d="M86,36.36a.87.87,0,0,0-.47-.35.09.09,0,0,0-.1.05h0a.1.1,0,0,0,0,.1,1.14,1.14,0,0,1,.33.36c.07.11.06.29.16.38a.1.1,0,0,0,.16,0C86.18,36.75,86,36.49,86,36.36Z"/><path class="cls-7" d="M88.44,32.73a.46.46,0,0,0-.08-.19c.18-.4-.06-1.17-.58-1.08a0,0,0,0,0,0,.06,1.11,1.11,0,0,1,.33.41.67.67,0,0,1,0,.37L88,32.22c-.17-.07-.46-.14-.58,0a0,0,0,0,0,0,.07c.13.08.3.05.44.12a.79.79,0,0,1,.33.39C88.26,33,88.48,32.88,88.44,32.73Z"/><path class="cls-7" d="M82.79,39.6a.7.7,0,0,0-.64-.52.06.06,0,0,0,0,.09c.17.17.37.29.44.54a.7.7,0,0,1,0,.35.47.47,0,0,0-.32-.12.09.09,0,0,0-.07,0s0,0,0,0,.16.16.22.22a.6.6,0,0,1,.2.43.14.14,0,0,0,.27,0,.77.77,0,0,0-.09-.36A1,1,0,0,0,82.79,39.6Z"/><path class="cls-7" d="M81.17,44.26a.76.76,0,0,0-.07-.81s-.06,0-.06,0A3.15,3.15,0,0,1,81,44a1.12,1.12,0,0,1-.3.47.13.13,0,0,0,0,.17s0,0,0,.05a.17.17,0,0,0,.17,0,1.33,1.33,0,0,0,.14-.19,1.22,1.22,0,0,1,0,.33c0,.17-.14.33-.13.5s0,.1.1.08.24-.32.27-.5A1,1,0,0,0,81.17,44.26Z"/><path class="cls-7" d="M79.86,45.18s0,0,0,0a1.73,1.73,0,0,0,.2.41,1.8,1.8,0,0,1,.13.52c0,.14.23.09.24,0C80.41,45.81,80.21,45.26,79.86,45.18Z"/><path class="cls-7" d="M78.38,46.8s-.08-.06-.1,0a1.73,1.73,0,0,1-.29.51,1.06,1.06,0,0,1-.27.18.47.47,0,0,0-.21.11.08.08,0,0,0,0,.12c.21.1.49-.09.63-.25A.72.72,0,0,0,78.38,46.8Z"/><path class="cls-7" d="M81.27,41.34c-.13-.12-.39-.25-.56-.11a0,0,0,0,0,0,.05c.13.09.29.09.4.23s.08.3.11.46a.1.1,0,0,0,.18,0A.56.56,0,0,0,81.27,41.34Z"/><path class="cls-7" d="M83.66,35.08a.49.49,0,0,0-.57-.09.06.06,0,0,0,0,.12.64.64,0,0,1,.48.28c.07.1.11.22.25.24a.08.08,0,0,0,.06,0C84,35.41,83.78,35.18,83.66,35.08Z"/><path class="cls-7" d="M88.81,29.94a.06.06,0,0,0,0,.1,1.31,1.31,0,0,1,.21.36c0,.14,0,.27,0,.41a.09.09,0,0,0,.13.05C89.44,30.62,89.19,30,88.81,29.94Z"/><path class="cls-7" d="M116.19,41.79a2,2,0,0,0-.21-.64c-.4,3.15-1.47,5.17-2.38,6.1.93.74.09,2-.59,2.48a1.78,1.78,0,0,1,.71,1c0,.42-.37.43-.82.48a6.75,6.75,0,0,0-1.55.21c1.09,1.09.43,3.33-.63,4.22a6.18,6.18,0,0,1-4,1.15A4.82,4.82,0,0,1,103,55.25c-1.08-1.29-.46-3.43-.15-4.35-.15-.12-.9.38-1,.56a4.73,4.73,0,0,1,.34-1.8c-1.91.27-2.47,2.27-2.48,3.93a8.22,8.22,0,0,0,.29,2.58,2.17,2.17,0,0,1-1.07-1.55c-.74.45-.57,1.78-.07,2.45a7.86,7.86,0,0,1-2.36-1.63c-.81-.95-1.51-2.39-1-3.62-.8-.2-1.75,2-1.71,3.23-.88-1.4-1.82-2.79-1-4.52-.75.09-1.15.93-1.33,1.82a2.76,2.76,0,0,0,.58,1.5,15.74,15.74,0,0,0,.89,2.61,4.17,4.17,0,0,0,2.73,1.34,2.92,2.92,0,0,1-.23-.47,1.72,1.72,0,0,1-.12-1.06,3.63,3.63,0,0,0,1.33,1.27,3.68,3.68,0,0,0,1.85.4c.1.29.63.57,1,.7a2.38,2.38,0,0,0,1.24,0c-.13-.15-.3-.47-.23-.58a3.71,3.71,0,0,0,2.61,1,2.26,2.26,0,0,1-.29-1.21,2.37,2.37,0,0,1-1.43-.8,3.21,3.21,0,0,1-.31-3c.4,1,.63,2.92,2.22,3.31a5.36,5.36,0,0,1-.06-.82,3.35,3.35,0,0,0,1.51,1.88,3,3,0,0,0,2.44.14,1.06,1.06,0,0,1-.36-.49,8.89,8.89,0,0,0,4,.45l.36-.16a5.73,5.73,0,0,0,3.35-4.17,6.59,6.59,0,0,0-.09-2.38A18.36,18.36,0,0,0,116,47.34,16.43,16.43,0,0,0,116.19,41.79Z"/><path class="cls-16" d="M106.81,58.11a1.06,1.06,0,0,0,.36.49,3,3,0,0,1-2.44-.14,3.35,3.35,0,0,1-1.51-1.88,5.36,5.36,0,0,0,.06.82c-1.59-.39-1.82-2.28-2.22-3.31a3.21,3.21,0,0,0,.31,3,2.37,2.37,0,0,0,1.43.8,2.26,2.26,0,0,0,.29,1.21,3.71,3.71,0,0,1-2.61-1c-.07.11.1.43.23.58a2.38,2.38,0,0,1-1.24,0c-.36-.13-.89-.41-1-.7a3.68,3.68,0,0,1-1.85-.4,3.63,3.63,0,0,1-1.33-1.27,1.72,1.72,0,0,0,.12,1.06,2.92,2.92,0,0,0,.23.47,4.17,4.17,0,0,1-2.73-1.34,9.45,9.45,0,0,0,2.21,2.93c.94.89,2.71,1,3.87,1.08,1.41.1,2.18.8,3.6.93a8.33,8.33,0,0,0,6.59-2,3.35,3.35,0,0,0,.41-.43,8.11,8.11,0,0,0,1.2-.42A8.89,8.89,0,0,1,106.81,58.11Z"/><path class="cls-7" d="M112,45.33A12.49,12.49,0,0,0,114.53,41a1.73,1.73,0,0,0-.27-.88.46.46,0,0,1-.07-.07c-.23.64-.67,1.81-.93,2.41C112.53,44.12,112.18,44.74,112,45.33Z"/><path class="cls-7" d="M110.1,42.45a10.16,10.16,0,0,0-.85,1.07l2.34-2.06a4.28,4.28,0,0,0,1.07-1.27,1.43,1.43,0,0,0,0-.75,7.62,7.62,0,0,1-.66,1C111.42,41.12,110.41,42.14,110.1,42.45Z"/><path class="cls-7" d="M92.26,46.54c.39.07.85-.32,1-.61a2.68,2.68,0,0,0,.46-1.45,2,2,0,0,0,.63-2.81.1.1,0,0,0-.07-.09l0-.06s0,0,0,0v0a.14.14,0,0,0-.12.06,19.26,19.26,0,0,1-2.61,2.47c0,.94-.29,2-.35,2.51,0,.24,0,.47-.06.71A1.76,1.76,0,0,0,92.26,46.54Z"/><path class="cls-6" d="M113.6,47.25c.91-.93,2-3,2.38-6.1-.32-.57-.91-.56-1.45-.16A12.49,12.49,0,0,1,112,45.33c.23-.59.58-1.21,1.31-2.88.26-.6.7-1.77.93-2.41-.41-.42-1-.24-1.53.15a4.28,4.28,0,0,1-1.07,1.27l-2.34,2.06a10.16,10.16,0,0,1,.85-1.07c.31-.31,1.32-1.33,1.85-2a7.62,7.62,0,0,0,.66-1,.55.55,0,0,0-.14-.22c-.47-.45-1.73.22-2.31.52-1.47,1.14-2.79,2.69-2.81,3.25a3.5,3.5,0,0,0-3.13.53,7.25,7.25,0,0,0-5,1.13c-.09-2.29-2.74-5.92-3.12-6.45a6.73,6.73,0,0,0-1.72-.69,7.06,7.06,0,0,0-2.93.26A2.87,2.87,0,0,0,90.13,39c-.61,1.08-.73,2.44,0,3a.1.1,0,0,0,.11.1h.11a3.79,3.79,0,0,0,.68.19,2,2,0,0,1,.57,1.83,19.26,19.26,0,0,0,2.61-2.47.14.14,0,0,1,.12-.06v0s0,0,0,0l0,.06a.1.1,0,0,1,.07.09,2,2,0,0,1-.63,2.81,2.68,2.68,0,0,1-.46,1.45c-.2.29-.66.68-1,.61a1.76,1.76,0,0,1-1.12.77,20.42,20.42,0,0,0,.18,3.91c0,.36.07.75.13,1.13.18-.89.58-1.73,1.33-1.82-.81,1.73.13,3.12,1,4.52,0-1.22.91-3.43,1.71-3.23-.5,1.23.2,2.67,1,3.62a7.86,7.86,0,0,0,2.36,1.63c-.5-.67-.67-2,.07-2.45A2.17,2.17,0,0,0,100,56.17a8.22,8.22,0,0,1-.29-2.58c0-1.66.57-3.66,2.48-3.93a4.73,4.73,0,0,0-.34,1.8c.12-.18.87-.68,1-.56-.31.92-.93,3.06.15,4.35a4.82,4.82,0,0,0,3.67,1.56,6.18,6.18,0,0,0,4-1.15c1.06-.89,1.72-3.13.63-4.22a6.75,6.75,0,0,1,1.55-.21c.45,0,.83-.06.82-.48a1.78,1.78,0,0,0-.71-1C113.69,49.22,114.53,48,113.6,47.25Z"/><path class="cls-7" d="M104.22,43.52a3.5,3.5,0,0,1,3.13-.53c0-.56,1.34-2.11,2.81-3.25l-.12,0a10.54,10.54,0,0,0-3.3,2.55,13.62,13.62,0,0,0-7,.74c-.2-.54-.4-1.07-.64-1.59a7.14,7.14,0,0,0-2.59-3.06l-.38-.23c.38.53,3,4.16,3.12,6.45A7.25,7.25,0,0,1,104.22,43.52Z"/><path class="cls-19" d="M92.43,39.83a.45.45,0,0,0-.24.55.39.39,0,0,0,.12.19.43.43,0,1,0,.12-.74Z"/><path class="cls-20" d="M93.58,42.3a1.71,1.71,0,0,1-2-.38c-.07-.09-1.49.66-1.54,1.58,0,.49.5.6.9.5a.61.61,0,0,0,.53.54,1.66,1.66,0,0,0,1.45-.5A3.3,3.3,0,0,0,93.58,42.3Z"/><path class="cls-21" d="M89.2,43.14a2.87,2.87,0,0,1,.89-.56,11,11,0,0,0,1.68-.77.91.91,0,0,0-.32-.5c-.56-.43-1.19-.76-1.57-.53A2.78,2.78,0,0,0,89.16,42a2,2,0,0,0-.09.33c0,.12,0,.24,0,.36A2.78,2.78,0,0,0,89.2,43.14Z"/><path class="cls-22" d="M89.13,43.68a9.62,9.62,0,0,1,1.82-1c.28-.11.62-.19.76-.48a.61.61,0,0,0,.06-.43,11,11,0,0,1-1.68.77,2.87,2.87,0,0,0-.89.56,2.78,2.78,0,0,1-.11-.5c0-.12,0-.24,0-.36A2.67,2.67,0,0,0,89.13,43.68Z"/><path class="cls-7" d="M108.48,52.41c-.41.06-1.13.4-1.34-.2,0-.06-.13-.08-.14,0a.44.44,0,0,0,0,.3.57.57,0,0,1-.48,0,1,1,0,0,1-.33-.36,0,0,0,0,0,0,0c-.14.53.64.85,1,.58h0c.38.27,1.16.22,1.35-.2A.07.07,0,0,0,108.48,52.41Z"/><path class="cls-7" d="M97.48,54.15a.64.64,0,0,1-.43-.65,1.93,1.93,0,0,1,.2-.71s0-.08-.07-.07a.66.66,0,0,0-.41.5,1.07,1.07,0,0,1-.22-.39,1.82,1.82,0,0,1,.06-.8s0-.05,0,0a.93.93,0,0,0,.17,1.52c0,.47.25.95.72.83A.11.11,0,0,0,97.48,54.15Z"/><path class="cls-7" d="M99.73,50.9c-.28-.18-.63-.15-.85-.44a2.85,2.85,0,0,1-.31-1s0,0,0,0a1,1,0,0,0-.09.66,1.78,1.78,0,0,1-.43-.23,1,1,0,0,1-.25-.76c0-.1-.12-.1-.16,0a.92.92,0,0,0,.18,1c.16.18.48.4.72.28a1,1,0,0,0,1.21.7A.08.08,0,0,0,99.73,50.9Z"/><path class="cls-7" d="M105.48,53.85c-.28-.18-.63-.16-.85-.44a2.91,2.91,0,0,1-.31-1s0,0,0,0a1,1,0,0,0-.09.66,1.78,1.78,0,0,1-.43-.23,1,1,0,0,1-.25-.76c0-.1-.12-.1-.16,0a.92.92,0,0,0,.18,1c.16.18.48.4.72.28a1.19,1.19,0,0,0,.15.32,1,1,0,0,0,1.06.38A.08.08,0,0,0,105.48,53.85Z"/><path class="cls-7" d="M108.44,54.31a1.2,1.2,0,0,1-.73.33.79.79,0,0,1-.69-.49s-.08,0-.1,0c-.11.38.34.66.66.72a.87.87,0,0,0,1-.49A.08.08,0,0,0,108.44,54.31Z"/><path class="cls-7" d="M105.37,51.46a.49.49,0,0,1-.5-.12,2.07,2.07,0,0,1-.31-.48s-.12,0-.13,0a.82.82,0,0,0,.39.73c.17.12.58.24.65,0C105.49,51.5,105.43,51.46,105.37,51.46Z"/><path class="cls-7" d="M96.78,50.89a1.25,1.25,0,0,1-.52-.31.88.88,0,0,1-.14-.67c0-.08-.1-.1-.14,0-.31.51.19,1.33.8,1.16A.07.07,0,0,0,96.78,50.89Z"/><path class="cls-7" d="M94.27,50.84a1.94,1.94,0,0,1-.55-.43,1.14,1.14,0,0,1-.21-.8,0,0,0,0,0-.07,0,1,1,0,0,0,0,.88c-.42.36.06,1.29.6,1.14a.08.08,0,0,0,0-.14,1.2,1.2,0,0,1-.46-.35.73.73,0,0,1,0-.48.77.77,0,0,0,.67.32C94.3,51,94.33,50.88,94.27,50.84Z"/><path class="cls-7" d="M95.28,49.16c-.06-.06-.11,0-.19-.06a.71.71,0,0,1-.32-.07c-.18-.09-.26-.25-.41-.38h0c-.09.22.11.46.28.58s.58.26.68,0C95.31,49.22,95.31,49.18,95.28,49.16Z"/><path class="cls-7" d="M92.54,49.65c-.12-.14-.29-.19-.36-.38s0-.35,0-.52,0,0-.06,0c-.26,0-.26.49-.19.68s.31.48.58.42A.1.1,0,0,0,92.54,49.65Z"/><path class="cls-7" d="M112.26,49.85a4.24,4.24,0,0,0-2.6-1.15,5.59,5.59,0,0,0-5.4-.26.09.09,0,0,0,.06.16,10.26,10.26,0,0,1,2.86-.37,6.88,6.88,0,0,1,1.88.44,5,5,0,0,0-1.11.12,0,0,0,0,0,0,.08,8.18,8.18,0,0,1,4.25,1.05A0,0,0,0,0,112.26,49.85Z"/><path class="cls-7" d="M112.07,47a0,0,0,0,0-.06,0,1.1,1.1,0,0,0,0,.26.59.59,0,0,1-.17.32,5,5,0,0,1-.49.31,0,0,0,0,0,0,.09.69.69,0,0,0,.71-.32C112.18,47.57,112.31,47.16,112.07,47Z"/><path class="cls-7" d="M111.1,47.2a0,0,0,0,0-.06,0,1.79,1.79,0,0,1,0,.61.7.7,0,0,1-.28.45.07.07,0,0,0,0,.12C111.4,48.58,111.49,47.43,111.1,47.2Z"/><path class="cls-7" d="M105.89,44.53s-.09,0-.09,0a1.84,1.84,0,0,1,.07.66,1.36,1.36,0,0,1-.28.46.93.93,0,0,0-.39-.54,0,0,0,0,0,0,0c0,.26.19.47.24.71s-.13.37-.08.59a.09.09,0,0,0,.17,0,.77.77,0,0,0,.17-.59h0C106.18,45.81,106.39,44.77,105.89,44.53Z"/><path class="cls-7" d="M108.06,45.68a0,0,0,0,0-.07,0,1.28,1.28,0,0,1-.26.52.59.59,0,0,1-.25.17.48.48,0,0,0-.23.1.12.12,0,0,0,0,.18c.22.14.54-.12.67-.29S108.2,45.88,108.06,45.68Z"/><path class="cls-7" d="M103.23,46.73a1,1,0,0,1-.32.51c-.14.13-.35.13-.49.25a.09.09,0,0,0,0,.14c.21.12.51-.09.66-.24a.82.82,0,0,0,.24-.66A.06.06,0,0,0,103.23,46.73Z"/><path class="cls-7" d="M96.13,46.27c-.23-.06-.42,0-.6-.19a.86.86,0,0,1-.18-.64.06.06,0,0,0-.1,0,.64.64,0,0,0-.09.55.49.49,0,0,1-.33-.11c-.13-.12-.15-.27-.25-.4s0,0,0,0c-.13.19.06.5.21.62a.7.7,0,0,0,.55.15h0c.17.22.59.43.84.24A.11.11,0,0,0,96.13,46.27Z"/><path class="cls-7" d="M96.39,43.8a1.49,1.49,0,0,1-.47,0,.82.82,0,0,1-.41-.28s-.06,0-.06,0c0,.42.69.7,1,.37A.05.05,0,0,0,96.39,43.8Z"/><path class="cls-7" d="M99.86,45.88a2.14,2.14,0,0,1-.44.3.68.68,0,0,1-.59-.07,0,0,0,0,0-.06,0,.58.58,0,0,0,.62.26A.72.72,0,0,0,100,46,.07.07,0,0,0,99.86,45.88Z"/><path class="cls-20" d="M94.47,37.48c-.17-.68-.94-1.16-1.48-.81-.46-.4-1.11-.66-1.54.13-.74-.09-1.41,1.4-.24,1.77a7.57,7.57,0,0,1,3-.73A.28.28,0,0,0,94.47,37.48Z"/><path class="cls-6" d="M66.85,3.33l-7,4.06c-2.41,1.39-4.37,5.13-4.37,8.33V37.91h0s.08.08.17.08.17,0,.17-.09V15.72c0-3.09,1.88-6.69,4.19-8L67,3.63C67,3.53,66.92,3.43,66.85,3.33Z"/><path class="cls-6" d="M82.89,12.16l-7.47,4.31c-2.41,1.39-4.37,5.13-4.37,8.34V47h0s.08.08.17.08.17,0,.17-.09V24.81c0-3.1,1.88-6.7,4.2-8L83,12.48Z"/><path class="cls-6" d="M97.9,21.71l-6.88,4c-2.41,1.39-4.37,5.13-4.37,8.33V56.2h0a.19.19,0,0,0,.17.08c.09,0,.17-.05.17-.1V34c0-3.09,1.88-6.69,4.2-8l6.86-4A3,3,0,0,0,97.9,21.71Z"/><path class="cls-6" d="M113.76,30.64l-7.14,4.12c-2.4,1.39-4.36,5.13-4.36,8.33V65.28h0a.19.19,0,0,0,.17.08c.1,0,.17,0,.17-.09V43.09c0-3.09,1.89-6.69,4.2-8L113.86,31C113.83,30.87,113.8,30.75,113.76,30.64Z"/><rect class="cls-6" x="78.75" y="15.69" width="0.37" height="54.11" transform="translate(2.38 89.62) rotate(-59.92)"/><rect class="cls-6" x="78.75" y="3.47" width="0.37" height="54.11" transform="translate(12.95 83.53) rotate(-59.92)"/><rect class="cls-6" x="84.34" y="-6.55" width="0.37" height="54.11" transform="translate(24.42 83.36) rotate(-59.92)"/><rect class="cls-6" x="90.48" y="-10.02" width="0.37" height="54.11" transform="translate(30.48 86.94) rotate(-59.92)"/></g></g></svg>