<svg xmlns="http://www.w3.org/2000/svg" viewBox="0 0 376.03 437.85"><defs><style>.cls-1{isolation:isolate;}.cls-2{fill:#0b4242;}.cls-3{fill:#942d30;}.cls-4{fill:#a62f3a;}.cls-5{fill:#d76b36;}.cls-6{fill:#5e322b;}.cls-7{fill:#f1af69;}.cls-8{fill:#702504;}.cls-9{fill:#e0d0c7;}.cls-10{fill:#f5bf3b;}.cls-11,.cls-12{fill:#7f2a04;}.cls-12{opacity:0.54;mix-blend-mode:multiply;}.cls-13{fill:#d75c20;}.cls-14{fill:#1d443a;}.cls-15,.cls-22{fill:#255c61;}.cls-16,.cls-17,.cls-23{fill:#d44500;}.cls-17,.cls-22,.cls-23{mix-blend-mode:screen;}.cls-18{fill:#c98462;}.cls-19{fill:#cb964e;}.cls-20{fill:#283038;}.cls-21{fill:#fff;}.cls-22{opacity:0.27;}.cls-23{opacity:0.5;}</style></defs><title>Asset 1</title><g class="cls-1"><g id="Layer_2" data-name="Layer 2"><g id="Layer_1-2" data-name="Layer 1"><path class="cls-2" d="M161.84,190.22a84.6,84.6,0,0,0,17-11.87c22-19.37,18.72-38.48,8.76-41.06A8.65,8.65,0,0,1,192,120.54a8.26,8.26,0,0,1,1.8.68c.21.2,15.58,6.71,14.11,24.75-1.06,12.05-8.08,25.3-26.52,35.87A87,87,0,0,1,161.84,190.22Z"/><path class="cls-3" d="M298.68,25.29S307.05-5,332.94.73s19.26,27,19.26,27Z"/><path class="cls-4" d="M299.51,47.26a55.41,55.41,0,0,1,24.42-23.89c17.4-8.58,43.64,2.59,50.13,16.1s-5.19,15.85-5.19,15.85,3.63,14.8-8.06,19.22c0,0-5.71-12.47-21.56-9.35S299.51,47.26,299.51,47.26Z"/><path class="cls-5" d="M344.82,57.81c0,16.63-13.76,32.77-27.46,32.77S284.92,78.32,284.92,61.7,297,27.51,317.36,30.37c9.66,1.35,19.85-3.65,24,5.83C344,42.17,344.82,53,344.82,57.81Z"/><path class="cls-6" d="M152,197.92s-10.65-11-25.71-13-31.95,16.67-31.95,16.67l20,18.7Z"/><path class="cls-7" d="M291.11,305.42a19.22,19.22,0,0,0,7.79,1.91c4.09,0,33.9-2.92,38-4.09s13.18,8.17,17.14,12.13-1.75,27.61-9.35,29.76-7.21-11.89-2.92-13.45S344.1,320,344.1,320l-6.82-3.32s1.36,13.84,0,19.1-10.13,13.24-12.66,6,2.14-10.14,2.14-11.3.78-10.13-1.76-12.67a34.77,34.77,0,0,0-7-4.87l-20.45,8.58-11.3-3.71Z"/><path class="cls-8" d="M262.47,331.68s19-3.21,23-7.2,12.08-2.92,12.08-2.92-5.26-7.41-5.26-9.16,6.62-5.07,6.62-5.07a24.33,24.33,0,0,0-13.44-8.18C276.89,297.4,250.59,322.33,262.47,331.68Z"/><path class="cls-9" d="M311.17,428.06s12-.42,16.37,1.39a15.18,15.18,0,0,1,6.56,5.3l-25.78-2.2Z"/><path class="cls-9" d="M305.5,415.46s12-.42,16.36,1.4a15.1,15.1,0,0,1,6.56,5.3L302.64,420Z"/><path class="cls-9" d="M233,426.7s-7.13-1.62-11.9,2.41l16.08,2.27Z"/><path class="cls-7" d="M263.43,408s10.65,4.63,14.53,5,21.42-1.26,27.05-.78,9.55,5.41,2.89,9.36-35.84-1.26-35.84-1.26Z"/><path class="cls-10" d="M242.63,351.3s5.15,24.92,4.24,35.59-9.63,16.58-9.63,16.58,11.82-2.21,13.51-.21,0,16.22-4.69,18.37-13.77-1.37-15.38,3.77,6.73,10.54,13.26,5,19.62-5.37,25.4-2.13,22.59,5.64,29,4.42,11.15,6.82,17.19,4.79,5.25-11.09-2.37-13.5-22.22-3.07-29.4-3.68-12.87-5-20.4-17.58.58-48.93.58-48.93l-12.06-20.36Z"/><path class="cls-11" d="M285,129.87l-38.64,17.78S239,172.47,208.6,179.22s-40.52,1.56-40.52,1.56l-80,46.49s10.65,14.29,18.19,14.29c0,0-.26,27.79,20,41.56s43.64,13.25,43.64,13.25,20,28.57,31.68,28.57h19.23s6.23,19.22,14.8,23.12,7.8,8.05,7.8,8.05l10.13-7.27,11.94,7.27s1.82-15.84,4.16-22.34S292.5,299.22,318,262.86s32.2-54.55,26.75-82.34S285,129.87,285,129.87Z"/><path class="cls-12" d="M126.26,283.12c20.26,13.77,43.64,13.25,43.64,13.25s20,28.57,31.68,28.57h19.23s6.23,19.22,14.8,23.12,7.8,8.05,7.8,8.05l10.13-7.27,11.94,7.27s1.82-15.84,4.16-22.34S292.5,299.22,318,262.86c16-22.93,24.66-38.62,27.47-54.06v0c-20.28,47.64-52.09,75.85-101.77,83.56-38,5.9-105.3-50.41-134.8-77.18L88.07,227.27s10.65,14.29,18.19,14.29C106.26,241.56,106,269.35,126.26,283.12Z"/><path class="cls-13" d="M306.83,63.6s2.74,2.19,11.5,2.19,13.09-11.73,13.09-11.73a44.71,44.71,0,0,1,6.35-5.52c4.66-3.53,6.79-12.81-2.11-21.71S308.48,7.2,277.81,22.26,235,97,242.63,129.87s10.54,65.15,7.26,78,18.34-4.38,18.34-18.07S270.42,174.48,274,178s3,62.7,6.57,70.09,13.69-1.64,15.33-11.49,3.29,14.23,3.29,29.29,2.74,28.47,0,40.79,46-40.52,58.32-78.3,5.2-83-18.35-110.34S309.57,77.56,306.83,63.6Z"/><path class="cls-2" d="M90.67,80.8s19.22-4.57,44.94,12.76,27.66,82.72,25.39,91.33a8.61,8.61,0,0,0,7.73-4.63c2.59-4.94,11.56-55.33,3.5-76.11s-11.95-21-11.95-21l-4.15,8.54-4.68-17.11s-12.47-10.91-33-12.73S90.67,80.8,90.67,80.8Z"/><path class="cls-14" d="M161.84,190.13s-6.23-44.68-18.7-63.38-24.16-26.5-50.65-26.5S37.94,96.1,35.86,82.59s-3.37-23.9-7.79-19.48-6,29.87,0,37.92,26.75,28.84,53.51,28.84,37.66,4.41,37.66,5.71,10.65,1.3,10.65,1.3l-7.79,3.38S153.79,192.73,161.84,190.13Z"/><path class="cls-14" d="M155.87,193.51S122.34,148.57,93,142.59s-50.9,1.3-60,20.78-1.3,48.84-11.17,58.71S4.3,225.32.8,228.83s4.63,13.77,23.35,10.65,28.6-20.52,28.6-36.1,3.88-39.23,25.18-38.19,73.26,30.91,76.38,30.91S155.87,193.51,155.87,193.51Z"/><path class="cls-15" d="M134,65.13s-21-8-42-3S60.54,84.67,54.31,103.37s-4.42,67.71,3.89,81.52,18.56-10.09,19.93-36.58S89.48,59.62,134,65.13Z"/><path class="cls-11" d="M146.46,193.34s-7.22-14.12-25.92-15.94S62.88,194,57.42,213.25s4.16,52.47,0,66.49,14.81,3.9,18.18-23.89,27.48-60.5,39-66.92S146.46,193.34,146.46,193.34Z"/><path class="cls-16" d="M88.07,288.84s31.69-36.89,35.07-53.77,3.64-33.25,5.45-38.71S152,199.48,152,199.48l2.34-3.38s-15.24-13.16-35.41-10.73S86.26,208.7,86.26,237,92.06,281.56,88.07,288.84Z"/><path class="cls-16" d="M238.09,202.5S226,207.79,203.92,212s-45.19,38.7-42.08,41.82,10.13-1.56,11.69,0-30.5,15.84-27.07,23.89,7.85,2.08,7.85,6.5S130,297.67,134,307.54s87.09-2.86,121.11-28.84,17.41-49.35,12.47-51.95-15.32,3.64-20.78-6.49S246.28,204.22,238.09,202.5Z"/><path class="cls-17" d="M242.63,250.13S180.81,296.37,164.18,300a97.49,97.49,0,0,0,50.91-18.44C239.25,263.64,242.63,250.13,242.63,250.13Z"/><path class="cls-17" d="M246.52,230.39s-3.37,11.43-20.78,3.38-7.53,10.91,6.76,8S246.52,230.39,246.52,230.39Z"/><path class="cls-17" d="M259.64,50.64s8.14,8.7-7.62,19.62,5.59,12,10.36-1.74S259.64,50.64,259.64,50.64Z"/><path class="cls-17" d="M261.27,94.19s11.25,3.94,2.33,20.92,10.52,8.07,8.38-6.34S261.27,94.19,261.27,94.19Z"/><path class="cls-17" d="M335.28,180s11.13,6.21,1.63,34.86S347.17,228,345.51,204,335.28,180,335.28,180Z"/><path class="cls-17" d="M314.05,214.89s11.13,6.21,1.63,34.86,10.26,13.12,8.61-10.87S314.05,214.89,314.05,214.89Z"/><path class="cls-3" d="M325.75,88.57s2.34,11.62,8.38,14S357.5,105.84,362,114.6s3.2,25.37-12.27,29.81c-36,10.35-45.88-22.82-46.56-37.79-.31-6.77,15.58-22.41,15.58-22.41Z"/><path class="cls-18" d="M318.73,84.21A19.32,19.32,0,0,0,332,89.67a62.31,62.31,0,0,1,15.17,2l-17.7-13.28Z"/><path class="cls-19" d="M331.81,69.67c5-1,9.74,1.4,12.88,5.43a24.85,24.85,0,0,1,5,11.45c.5,5.47,0,7,0,7L329.45,78.37l1.75-8.57Z"/><path class="cls-11" d="M178.73,186.49c.69-1.25-8.49-1.82-9.27-5.2l-9.81-8.82L161,188.93l-5.59-2.23-5.39-2s4.8,8.3,2.86,10.24-9.12-3.45-9.12-3.45,6.41,4.57,2.7,6.65-10.33,5.59-10.33,5.59l-6.82,6.2S172.17,198.38,178.73,186.49Z"/><path class="cls-20" d="M335.62,56.7a9.8,9.8,0,1,1-9.8-9.8A9.79,9.79,0,0,1,335.62,56.7Z"/><path class="cls-21" d="M333.69,55.36a4.54,4.54,0,1,1-4.52-5A4.75,4.75,0,0,1,333.69,55.36Z"/><path class="cls-9" d="M324.41,339.3c-1.71,1.93-5.59,5.44-10.42,4.47,0,0,8.39,3.65,12.78.16,2.74-2.17,1.52-3.89.21-4.88A1.9,1.9,0,0,0,324.41,339.3Z"/><path class="cls-9" d="M340,339.21c-1.71,1.93-3.86,6.57-8.68,5.59,0,0,6.65,2.53,11.05-1,2.73-2.17,1.52-3.89.21-4.88A1.91,1.91,0,0,0,340,339.21Z"/><path class="cls-22" d="M58.51,106.52s-9.07,68.16,2.66,62.18S76.44,90,85.51,78.65C85.51,78.65,66.43,77.08,58.51,106.52Z"/><path class="cls-23" d="M95.31,217.12s3.48,28.71,0,43.15c0,0,19.42-25.89,20.41-42s1.89-23.07,7.42-26.23C123.14,192.05,97.3,191.89,95.31,217.12Z"/></g></g></g></svg>