<svg width="347" height="347" viewBox="0 0 347 347" fill="none" xmlns="http://www.w3.org/2000/svg">
<mask id="mask0_223_296" style="mask-type:alpha" maskUnits="userSpaceOnUse" x="0" y="0" width="347" height="347">
<circle cx="173.5" cy="173.5" r="173.5" fill="#D9D9D9"/>
</mask>
<g mask="url(#mask0_223_296)">
<path d="M74.8335 246.211C80.9654 242.967 86.675 238.98 91.8335 234.341C113.833 214.971 110.554 195.861 100.594 193.281C98.3723 192.698 96.4739 191.256 95.3158 189.273C94.1578 187.29 93.835 184.928 94.4185 182.706C95.002 180.485 96.4439 178.587 98.4271 177.429C100.41 176.271 102.772 175.948 104.993 176.531C105.618 176.687 106.222 176.915 106.794 177.211C107.004 177.411 122.374 183.921 120.904 201.961C119.844 214.011 112.823 227.261 94.3835 237.831C88.2341 241.414 81.6684 244.228 74.8335 246.211V246.211Z" fill="#0B4242"/>
<path d="M211.674 81.2813C211.674 81.2813 220.044 50.9913 245.934 56.7213C271.824 62.4513 265.194 83.7213 265.194 83.7213L211.674 81.2813Z" fill="#942D30"/>
<path d="M212.504 103.251C217.924 92.9148 226.471 84.554 236.924 79.3613C254.324 70.7813 280.564 81.9513 287.054 95.4613C293.544 108.971 281.864 111.311 281.864 111.311C281.864 111.311 285.494 126.111 273.804 130.531C273.804 130.531 268.094 118.061 252.244 121.181C236.394 124.301 212.504 103.251 212.504 103.251Z" fill="#A62F3A"/>
<path d="M257.814 113.801C257.814 130.431 244.054 146.571 230.354 146.571C216.654 146.571 197.914 134.311 197.914 117.691C197.914 101.071 209.994 83.5013 230.354 86.3613C240.014 87.7113 250.204 82.7113 254.354 92.1913C256.994 98.1613 257.814 108.991 257.814 113.801Z" fill="#D76B36"/>
<path d="M64.9935 253.911C64.9935 253.911 54.3435 242.911 39.2835 240.911C24.2235 238.911 7.3335 257.581 7.3335 257.581L27.3335 276.281L64.9935 253.911Z" fill="#5E322B"/>
<path d="M197.993 185.861L159.353 203.641C159.353 203.641 151.993 228.461 121.593 235.211C91.1935 241.961 81.0735 236.771 81.0735 236.771L1.07349 283.261C1.07349 283.261 11.7235 297.551 19.2635 297.551C19.2635 297.551 19.0035 325.341 39.2635 339.111C59.5235 352.881 82.9035 352.361 82.9035 352.361C82.9035 352.361 102.903 380.931 114.583 380.931H133.813C133.813 380.931 140.043 400.151 148.613 404.051C157.183 407.951 156.413 412.101 156.413 412.101L166.543 404.831L178.483 412.101C178.483 412.101 180.303 396.261 182.643 389.761C184.983 383.261 205.493 355.211 230.993 318.851C256.493 282.491 263.193 264.301 257.743 236.511C252.293 208.721 197.993 185.861 197.993 185.861Z" fill="#7F2A04"/>
<g style="mix-blend-mode:multiply" opacity="0.54">
<path d="M39.2535 339.111C59.5135 352.881 82.8935 352.361 82.8935 352.361C82.8935 352.361 102.893 380.931 114.573 380.931H133.803C133.803 380.931 140.033 400.151 148.603 404.051C157.173 407.951 156.403 412.101 156.403 412.101L166.533 404.831L178.473 412.101C178.473 412.101 180.293 396.261 182.633 389.761C184.973 383.261 205.493 355.211 230.993 318.851C246.993 295.921 255.653 280.231 258.463 264.791C238.183 312.431 206.373 340.641 156.693 348.351C118.693 354.251 51.3935 297.941 21.8935 271.171L1.06348 283.261C1.06348 283.261 11.7135 297.551 19.2535 297.551C19.2535 297.551 18.9935 325.341 39.2535 339.111Z" fill="#7F2A04"/>
</g>
<path d="M219.824 119.591C219.824 119.591 222.564 121.781 231.324 121.781C240.084 121.781 244.414 110.051 244.414 110.051C246.352 108.016 248.478 106.168 250.764 104.531C255.424 101.001 257.554 91.7213 248.654 82.8213C239.754 73.9213 221.474 63.1913 190.804 78.2513C160.134 93.3113 147.994 152.991 155.624 185.861C163.254 218.731 166.164 251.011 162.884 263.861C159.604 276.711 181.224 259.481 181.224 245.791C181.224 232.101 183.414 230.471 186.994 233.991C190.574 237.511 189.994 296.691 193.564 304.081C197.134 311.471 207.254 302.441 208.894 292.591C210.534 282.741 212.184 306.821 212.184 321.881C212.184 336.941 214.924 350.351 212.184 362.671C209.444 374.991 258.184 322.151 270.504 284.371C282.824 246.591 275.704 201.371 252.154 174.031C228.604 146.691 222.564 133.551 219.824 119.591Z" fill="#D75C20"/>
<path d="M3.66357 136.791C3.66357 136.791 22.8836 132.221 48.6036 149.551C74.3236 166.881 76.2636 232.271 73.9936 240.881C75.584 240.899 77.1481 240.475 78.5126 239.658C79.877 238.841 80.9885 237.662 81.7236 236.251C84.3136 231.311 93.2836 180.921 85.2236 160.141C77.1636 139.361 73.2736 139.141 73.2736 139.141L69.1236 147.681L64.4436 130.571C64.4436 130.571 51.9736 119.661 31.4436 117.841C10.9136 116.021 3.66357 136.791 3.66357 136.791Z" fill="#0B4242"/>
<path d="M74.8335 246.121C74.8335 246.121 68.6035 201.441 56.1335 182.741C43.6635 164.041 31.9735 156.241 5.4835 156.241C-21.0065 156.241 -49.0665 152.091 -51.1465 138.581C-53.2265 125.071 -54.5165 114.681 -58.9365 119.101C-63.3565 123.521 -64.9365 148.971 -58.9365 157.021C-52.9365 165.071 -32.1865 185.861 -5.4265 185.861C21.3335 185.861 32.2335 190.271 32.2335 191.571C32.2335 192.871 42.8835 192.871 42.8835 192.871L35.0935 196.251C35.0935 196.251 66.7835 248.721 74.8335 246.121Z" fill="#1D443A"/>
<path d="M68.8636 249.501C68.8636 249.501 35.3336 204.561 5.99356 198.581C-23.3464 192.601 -44.9064 199.881 -54.0064 219.361C-63.1064 238.841 -55.3064 268.201 -65.1764 278.071C-75.0464 287.941 -82.7064 281.311 -86.2064 284.821C-89.7064 288.331 -81.5764 298.591 -62.8564 295.471C-44.1364 292.351 -34.2564 274.951 -34.2564 259.371C-34.2564 243.791 -30.3764 220.141 -9.07644 221.181C12.2236 222.221 64.1836 252.091 67.3036 252.091C70.4236 252.091 68.8636 249.501 68.8636 249.501Z" fill="#1D443A"/>
<path d="M46.9934 121.121C46.9934 121.121 25.9935 113.121 4.99345 118.121C-16.0065 123.121 -26.4665 140.661 -32.6965 159.361C-38.9265 178.061 -37.1166 227.071 -28.8066 240.881C-20.4966 254.691 -10.2466 230.791 -8.87655 204.301C-7.50655 177.811 2.47345 115.611 46.9934 121.121Z" fill="#255C61"/>
<path d="M59.4536 249.331C59.4536 249.331 52.2336 235.211 33.5336 233.391C14.8336 231.571 -24.1264 249.991 -29.5864 269.241C-35.0464 288.491 -25.4264 321.711 -29.5864 335.731C-33.7464 349.751 -14.7764 339.631 -11.4064 311.841C-8.03645 284.051 16.0736 251.341 27.5936 244.921C39.1136 238.501 59.4536 249.331 59.4536 249.331Z" fill="#7F2A04"/>
<path d="M1.06366 344.831C1.06366 344.831 32.7537 307.941 36.1337 291.061C39.5137 274.181 39.7737 257.811 41.5837 252.351C43.3937 246.891 64.9937 255.471 64.9937 255.471L67.3337 252.091C67.3337 252.091 52.0937 238.931 31.9237 241.361C11.7537 243.791 -0.746338 264.691 -0.746338 292.991C-0.746338 321.291 5.05366 337.551 1.06366 344.831Z" fill="#D44500"/>
<path d="M151.084 258.491C151.084 258.491 138.994 263.781 116.914 267.991C94.8336 272.201 71.7236 306.691 74.8336 309.811C77.9436 312.931 84.9636 308.251 86.5236 309.811C88.0836 311.371 56.0236 325.651 59.4536 333.701C62.8836 341.751 67.3036 335.781 67.3036 340.201C67.3036 344.621 42.9936 353.661 46.9936 363.531C50.9936 373.401 134.084 360.671 168.104 334.691C202.124 308.711 185.514 285.341 180.574 282.741C175.634 280.141 165.254 286.381 159.794 276.251C154.334 266.121 159.274 260.211 151.084 258.491Z" fill="#D44500"/>
<g style="mix-blend-mode:screen">
<path d="M155.624 306.121C155.624 306.121 93.8036 352.361 77.1736 355.991C95.5443 354.775 113.195 348.382 128.084 337.551C152.244 319.631 155.624 306.121 155.624 306.121Z" fill="#D44500"/>
</g>
<g style="mix-blend-mode:screen">
<path d="M159.514 286.381C159.514 286.381 156.144 297.811 138.734 289.761C121.324 281.711 131.204 300.671 145.494 297.761C159.784 294.851 159.514 286.381 159.514 286.381Z" fill="#D44500"/>
</g>
<g style="mix-blend-mode:screen">
<path d="M172.634 106.631C172.634 106.631 180.774 115.331 165.014 126.251C149.254 137.171 170.604 138.251 175.374 124.511C180.144 110.771 172.634 106.631 172.634 106.631Z" fill="#D44500"/>
</g>
<g style="mix-blend-mode:screen">
<path d="M174.263 150.181C174.263 150.181 185.513 154.121 176.593 171.101C167.673 188.081 187.113 179.171 184.973 164.761C182.833 150.351 174.263 150.181 174.263 150.181Z" fill="#D44500"/>
</g>
<g style="mix-blend-mode:screen">
<path d="M248.274 235.991C248.274 235.991 259.404 242.201 249.904 270.851C240.404 299.501 260.164 283.991 258.504 259.991C256.844 235.991 248.274 235.991 248.274 235.991Z" fill="#D44500"/>
</g>
<g style="mix-blend-mode:screen">
<path d="M227.044 270.881C227.044 270.881 238.174 277.091 228.674 305.741C219.174 334.391 238.934 318.861 237.284 294.871C235.634 270.881 227.044 270.881 227.044 270.881Z" fill="#D44500"/>
</g>
<path d="M238.744 144.561C238.744 144.561 241.084 156.181 247.124 158.561C253.164 160.941 270.494 161.831 274.994 170.591C279.494 179.351 278.194 195.961 262.724 200.401C226.724 210.751 216.844 177.581 216.164 162.611C215.854 155.841 231.744 140.201 231.744 140.201L238.744 144.561Z" fill="#942D30"/>
<path d="M231.724 140.201C235.282 143.657 240.033 145.612 244.994 145.661C250.113 145.702 255.208 146.374 260.164 147.661L242.464 134.381L231.724 140.201Z" fill="#C98462"/>
<path d="M244.804 125.661C249.804 124.661 254.544 127.061 257.684 131.091C260.298 134.42 262.019 138.361 262.684 142.541C263.184 148.011 262.684 149.541 262.684 149.541L242.444 134.361L244.194 125.791L244.804 125.661Z" fill="#CB964E"/>
<path d="M91.7235 242.481C92.4135 241.231 83.2335 240.661 82.4535 237.281L72.6435 228.461L73.9935 244.921L68.4035 242.691L63.0135 240.691C63.0135 240.691 67.8135 248.991 65.8735 250.931C63.9335 252.871 56.7535 247.481 56.7535 247.481C56.7535 247.481 63.1635 252.051 59.4535 254.131C55.7435 256.211 49.1235 259.721 49.1235 259.721L42.3035 265.921C42.3035 265.921 85.1635 254.371 91.7235 242.481Z" fill="#7F2A04"/>
<path d="M248.614 112.691C248.614 114.63 248.039 116.524 246.962 118.136C245.885 119.747 244.355 121.004 242.564 121.745C240.773 122.487 238.803 122.681 236.902 122.303C235.001 121.925 233.255 120.992 231.884 119.621C230.513 118.25 229.58 116.504 229.202 114.603C228.824 112.702 229.018 110.732 229.76 108.941C230.501 107.15 231.757 105.62 233.369 104.543C234.981 103.466 236.875 102.891 238.814 102.891C240.101 102.89 241.376 103.143 242.566 103.635C243.755 104.127 244.836 104.848 245.746 105.759C246.657 106.669 247.378 107.75 247.87 108.939C248.362 110.129 248.615 111.404 248.614 112.691V112.691Z" fill="#283038"/>
<path d="M246.684 111.351C246.595 112.225 246.254 113.054 245.704 113.738C245.153 114.422 244.416 114.932 243.581 115.205C242.747 115.479 241.851 115.505 241.002 115.279C240.153 115.054 239.388 114.587 238.799 113.936C238.21 113.284 237.823 112.476 237.684 111.609C237.545 110.742 237.661 109.853 238.017 109.05C238.373 108.248 238.954 107.565 239.69 107.086C240.426 106.607 241.285 106.352 242.164 106.351C242.789 106.381 243.403 106.534 243.97 106.801C244.536 107.069 245.044 107.446 245.464 107.911C245.884 108.375 246.208 108.919 246.418 109.509C246.627 110.1 246.717 110.726 246.684 111.351V111.351Z" fill="white"/>
<g style="mix-blend-mode:screen" opacity="0.5">
<path d="M8.30347 273.111C8.30347 273.111 11.7835 301.821 8.30347 316.261C8.30347 316.261 27.7235 290.371 28.7135 274.261C29.7035 258.151 30.6035 251.191 36.1335 248.031C36.1335 248.041 10.2935 247.881 8.30347 273.111Z" fill="#D44500"/>
</g>
</g>
</svg>
