<svg width="66" height="40" viewBox="0 0 66 40" fill="none" xmlns="http://www.w3.org/2000/svg">
<path d="M7.5 0C5.51088 0 3.60322 0.755057 2.1967 2.09907C0.790176 3.44308 0 5.26595 0 7.16667V28.6667C0 30.5674 0.790176 32.3903 2.1967 33.7343C3.60322 35.0783 5.51088 35.8333 7.5 35.8333H18.75V28.6667H7.5V7.16667H18.75V0H7.5ZM30 0C28.0109 0 26.1032 0.755057 24.6967 2.09907C23.2902 3.44308 22.5 5.26595 22.5 7.16667V28.6667C22.5 30.5674 23.2902 32.3903 24.6967 33.7343C26.1032 35.0783 28.0109 35.8333 30 35.8333H37.5C39.4891 35.8333 41.3968 35.0783 42.8033 33.7343C44.2098 32.3903 45 30.5674 45 28.6667V7.16667C45 5.26595 44.2098 3.44308 42.8033 2.09907C41.3968 0.755057 39.4891 0 37.5 0H30ZM30 7.16667H37.5V28.6667H30V7.16667ZM48.75 12.5417V17.9167H60V23.2917H54.375C52.8832 23.2917 51.4524 23.858 50.3975 24.866C49.3426 25.874 48.75 27.2411 48.75 28.6667V39.4167H65.625V34.0417H54.375V28.6667H60C61.4918 28.6667 62.9226 28.1004 63.9775 27.0924C65.0324 26.0844 65.625 24.7172 65.625 23.2917V17.9167C65.625 16.4911 65.0324 15.124 63.9775 14.116C62.9226 13.108 61.4918 12.5417 60 12.5417H48.75Z" fill="#0FA958"/>
</svg>
