<svg width="77" height="53" viewBox="0 0 77 53" fill="none" xmlns="http://www.w3.org/2000/svg">
<path d="M12.3453 22.9741C8.7986 23.8269 5.69985 25.8879 3.63126 28.7699C1.56267 31.6519 0.666621 35.1566 1.11146 38.6253C1.55631 42.0941 3.31142 45.2883 6.04706 47.6077C8.78269 49.9272 12.3106 51.2123 15.9678 51.2215H57.2178C59.8655 51.2198 62.4827 50.6823 64.8973 49.6443C67.3119 48.6064 69.469 47.0916 71.2268 45.1996C72.9845 43.3077 74.303 41.0814 75.0955 38.6674C75.8879 36.2534 76.1364 33.7064 75.8245 31.1941C75.5125 28.6817 74.6473 26.261 73.2858 24.0912C71.9242 21.9214 70.0972 20.0517 67.9249 18.6052C65.7527 17.1588 63.2845 16.1683 60.6828 15.6991C58.0811 15.2298 55.4049 15.2924 52.8303 15.8827L47.8428 17.1798" stroke="#9747FF" stroke-width="2" stroke-linecap="round" stroke-linejoin="round"/>
<path d="M52.8303 15.8828C51.5486 11.033 48.385 6.83039 43.9808 4.12682C39.5766 1.42325 34.2613 0.421053 29.1125 1.32338C23.9637 2.22571 19.3666 4.96506 16.2531 8.98611C13.1395 13.0072 11.7425 18.009 12.3453 22.9778C12.3453 22.9778 12.9191 26.1383 14.0928 27.93" stroke="#9747FF" stroke-width="2" stroke-linecap="round" stroke-linejoin="round"/>
<path d="M34.1178 42.1382H30.6178L22.6928 30.1632V42.1382H19.1928V24.6632H22.6928L30.6178 36.6632V24.6632H34.1178V42.1382ZM52.0516 24.6882V42.1382H48.5516V34.7132H41.0766V42.1382H37.5766V24.6882H41.0766V31.8632H48.5516V24.6882H52.0516ZM55.1465 28.7132C55.2299 27.0465 55.8132 25.7632 56.8965 24.8632C57.9965 23.9465 59.4382 23.4882 61.2215 23.4882C62.4382 23.4882 63.4799 23.7048 64.3465 24.1382C65.2132 24.5548 65.8632 25.1298 66.2965 25.8632C66.7465 26.5798 66.9715 27.3965 66.9715 28.3132C66.9715 29.3632 66.6965 30.2549 66.1465 30.9882C65.6132 31.7048 64.9715 32.1882 64.2215 32.4382V32.5382C65.1882 32.8382 65.9382 33.3715 66.4715 34.1382C67.0215 34.9048 67.2965 35.8882 67.2965 37.0882C67.2965 38.0882 67.0632 38.9799 66.5965 39.7632C66.1465 40.5465 65.4715 41.1632 64.5715 41.6132C63.6882 42.0465 62.6215 42.2632 61.3715 42.2632C59.4882 42.2632 57.9549 41.7882 56.7715 40.8382C55.5882 39.8882 54.9632 38.4882 54.8965 36.6382H58.2965C58.3299 37.4549 58.6049 38.1132 59.1215 38.6132C59.6549 39.0965 60.3799 39.3382 61.2965 39.3382C62.1465 39.3382 62.7965 39.1049 63.2465 38.6382C63.7132 38.1549 63.9465 37.5382 63.9465 36.7882C63.9465 35.7882 63.6299 35.0715 62.9965 34.6382C62.3632 34.2049 61.3799 33.9882 60.0465 33.9882H59.3215V31.1132H60.0465C62.4132 31.1132 63.5965 30.3215 63.5965 28.7382C63.5965 28.0215 63.3799 27.4632 62.9465 27.0632C62.5299 26.6632 61.9215 26.4632 61.1215 26.4632C60.3382 26.4632 59.7299 26.6798 59.2965 27.1132C58.8799 27.5298 58.6382 28.0632 58.5715 28.7132H55.1465Z" fill="#9747FF"/>
</svg>
