<svg width="53" height="53" viewBox="0 0 53 53" fill="none" xmlns="http://www.w3.org/2000/svg">
<path d="M26.5102 19.284C24.6402 19.284 22.8891 19.9712 21.5633 21.2269C20.2437 22.4827 19.5119 24.1413 19.5119 25.9124C19.5119 27.6836 20.2437 29.3422 21.5633 30.598C22.8891 31.8478 24.6402 32.5409 26.5102 32.5409C28.3801 32.5409 30.1312 31.8478 31.4571 30.598C32.7767 29.3422 33.5084 27.6836 33.5084 25.9124C33.5084 24.1413 32.7767 22.4827 31.4571 21.2269C30.8095 20.6089 30.0387 20.1188 29.1895 19.7853C28.3403 19.4517 27.4295 19.2814 26.5102 19.284V19.284ZM52.2954 33.2339L48.2053 29.9227C48.3992 28.7972 48.4993 27.648 48.4993 26.5048C48.4993 25.3616 48.3992 24.2065 48.2053 23.0869L52.2954 19.7757C52.6044 19.5252 52.8256 19.1915 52.9294 18.819C53.0333 18.4466 53.0151 18.053 52.8771 17.6906L52.8208 17.5366C51.6951 14.5552 50.0085 11.7917 47.8426 9.3799L47.73 9.2555C47.467 8.9626 47.1165 8.75204 46.7246 8.65159C46.3327 8.55113 45.9179 8.56549 45.5349 8.69277L40.4566 10.4047C38.5804 8.94748 36.4916 7.79832 34.2276 6.99864L33.2457 1.96957C33.1717 1.59072 32.9776 1.24218 32.6894 0.97026C32.4012 0.698343 32.0325 0.515919 31.6322 0.447226L31.4633 0.417608C28.2113 -0.139203 24.7841 -0.139203 21.532 0.417608L21.3631 0.447226C20.9629 0.515919 20.5941 0.698343 20.3059 0.97026C20.0177 1.24218 19.8237 1.59072 19.7496 1.96957L18.7615 7.02234C16.519 7.82839 14.4299 8.97476 12.5762 10.4165L7.46047 8.69277C7.07751 8.56448 6.6624 8.5496 6.2703 8.65012C5.87821 8.75063 5.52768 8.96178 5.26532 9.2555L5.15274 9.3799C2.99069 11.7943 1.30448 14.5571 0.174556 17.5366L0.11827 17.6906C-0.16316 18.431 0.0682382 19.2603 0.699893 19.7757L4.84004 23.1225C4.64617 24.2361 4.55236 25.3734 4.55236 26.4989C4.55236 27.6362 4.64617 28.7735 4.84004 29.8753L0.712401 33.2221C0.403426 33.4726 0.182289 33.8063 0.0783942 34.1787C-0.0255002 34.5512 -0.00722938 34.9448 0.130778 35.3072L0.187064 35.4612C1.31904 38.4407 2.98886 41.1951 5.16525 43.6179L5.27782 43.7423C5.54083 44.0352 5.89137 44.2457 6.28323 44.3462C6.6751 44.4466 7.0899 44.4323 7.47298 44.305L12.5888 42.5812C14.4525 44.0325 16.5288 45.1817 18.774 45.9754L19.7621 51.0282C19.8362 51.407 20.0302 51.7556 20.3184 52.0275C20.6066 52.2994 20.9754 52.4818 21.3756 52.5505L21.5445 52.5801C24.8286 53.14 28.1918 53.14 31.4759 52.5801L31.6447 52.5505C32.045 52.4818 32.4137 52.2994 32.7019 52.0275C32.9901 51.7556 33.1842 51.407 33.2582 51.0282L34.2401 45.9991C36.5041 45.1935 38.5929 44.0503 40.4691 42.5931L45.5474 44.305C45.9303 44.4333 46.3454 44.4482 46.7375 44.3476C47.1296 44.2471 47.4802 44.036 47.7425 43.7423L47.8551 43.6179C50.0315 41.1833 51.7013 38.4407 52.8333 35.4612L52.8896 35.3072C53.1585 34.5726 52.9271 33.7493 52.2954 33.2339ZM26.5102 36.326C20.4375 36.326 15.5156 31.6642 15.5156 25.9124C15.5156 20.1607 20.4375 15.4989 26.5102 15.4989C32.5828 15.4989 37.5047 20.1607 37.5047 25.9124C37.5047 31.6642 32.5828 36.326 26.5102 36.326Z" fill="black"/>
</svg>
