<svg width="44" height="66" viewBox="0 0 44 66" fill="none" xmlns="http://www.w3.org/2000/svg">
<path d="M9.42857 12.0002C9.42857 8.81758 10.7531 5.76527 13.1107 3.51479C15.4683 1.26431 18.6658 0 22 0C25.3342 0 28.5317 1.26431 30.8893 3.51479C33.2469 5.76527 34.5714 8.81758 34.5714 12.0002V27.7656C38.4151 30.3203 41.3043 33.9794 42.8185 38.2102C44.3328 42.4409 44.393 47.0226 42.9904 51.2883C41.5879 55.554 38.7957 59.2811 35.0204 61.9271C31.2451 64.5731 26.6837 66 22 66C17.3163 66 12.7549 64.5731 8.97957 61.9271C5.20426 59.2811 2.41214 55.554 1.00958 51.2883C-0.392976 47.0226 -0.332757 42.4409 1.18147 38.2102C2.6957 33.9794 5.5849 30.3203 9.42857 27.7656V12.0002ZM13.024 32.6856C10.2777 34.51 8.21306 37.1234 7.13068 40.1455C6.04831 43.1676 6.00469 46.4406 7.00619 49.488C8.00768 52.5354 10.002 55.1981 12.6988 57.0885C15.3956 58.979 18.6541 59.9984 22 59.9984C25.3459 59.9984 28.6044 58.979 31.3012 57.0885C33.998 55.1981 35.9923 52.5354 36.9938 49.488C37.9953 46.4406 37.9517 43.1676 36.8693 40.1455C35.7869 37.1234 33.7223 34.51 30.976 32.6856L28.2857 30.8946V12.0002C28.2857 10.4089 27.6235 8.88275 26.4447 7.75751C25.2659 6.63227 23.6671 6.00012 22 6.00012C20.3329 6.00012 18.7341 6.63227 17.5553 7.75751C16.3765 8.88275 15.7143 10.4089 15.7143 12.0002V30.8946L13.024 32.6856ZM18.8571 33.3787V12.0002H25.1429V33.3787C28.0987 34.1159 30.6724 35.8548 32.3834 38.2708C34.0944 40.6868 34.8257 43.6146 34.4408 46.5076C34.0559 49.4006 32.5811 52.061 30.2917 53.992C28.0024 55.923 25.055 56.9926 22 57.0011C18.938 57.004 15.9802 55.9401 13.6817 54.009C11.3832 52.0778 9.90209 49.4124 9.51632 46.5128C9.13055 43.6132 9.86666 40.6789 11.5865 38.2607C13.3063 35.8424 15.8916 34.1065 18.8571 33.3787ZM22 51.001C23.6671 51.001 25.2659 50.3689 26.4447 49.2436C27.6235 48.1184 28.2857 46.5922 28.2857 45.0009C28.2857 43.4096 27.6235 41.8834 26.4447 40.7582C25.2659 39.6329 23.6671 39.0008 22 39.0008C20.3329 39.0008 18.7341 39.6329 17.5553 40.7582C16.3765 41.8834 15.7143 43.4096 15.7143 45.0009C15.7143 46.5922 16.3765 48.1184 17.5553 49.2436C18.7341 50.3689 20.3329 51.001 22 51.001Z" fill="#F24E1E"/>
</svg>
