<svg width="65" height="59" viewBox="0 0 65 59" fill="none" xmlns="http://www.w3.org/2000/svg">
<path d="M20.3125 51.1333C21.3899 51.1333 22.4233 51.5477 23.1851 52.2854C23.947 53.023 24.375 54.0235 24.375 55.0667C24.375 56.1099 23.947 57.1103 23.1851 57.848C22.4233 58.5856 21.3899 59 20.3125 59C19.2351 59 18.2017 58.5856 17.4399 57.848C16.678 57.1103 16.25 56.1099 16.25 55.0667C16.25 54.0235 16.678 53.023 17.4399 52.2854C18.2017 51.5477 19.2351 51.1333 20.3125 51.1333ZM54.8356 23.6C57.5292 23.6 60.1125 24.636 62.0172 26.4801C63.9218 28.3242 64.9919 30.8254 64.9919 33.4333C64.9919 36.0413 63.9218 38.5424 62.0172 40.3866C60.1125 42.2307 57.5292 43.2667 54.8356 43.2667L54.6244 43.2588L54.1612 43.2942L51.1469 43.2903C51.6019 44.3562 51.8537 45.5244 51.8537 46.7516C51.869 47.983 51.6299 49.2049 51.1506 50.3456C50.6712 51.4863 49.9613 52.5228 49.0625 53.3942C48.1637 54.2655 47.094 54.9542 45.9165 55.4197C44.7389 55.8852 43.4772 56.1183 42.2053 56.1051C38.1306 56.1051 35.1366 54.3587 33.5522 51.4795C33.1902 50.8191 33.1007 50.0504 33.3018 49.3286C33.5028 48.6068 33.9794 47.9858 34.6351 47.5912C35.2909 47.1965 36.077 47.0577 36.8344 47.2026C37.5919 47.3476 38.2643 47.7656 38.7156 48.3721L39.1219 49.0133C39.6744 49.7763 40.5844 50.2051 42.2094 50.2051C42.6807 50.2182 43.1498 50.1378 43.5878 49.9686C44.0258 49.7995 44.4234 49.5454 44.7561 49.2218C45.0888 48.8982 45.3495 48.5121 45.5221 48.0873C45.6948 47.6625 45.7757 47.2079 45.76 46.7516C45.76 45.0209 44.2894 43.5459 42.3312 43.3453L41.4578 43.2942H3.04688C2.2749 43.294 1.5318 43.01 0.967721 42.4998C0.40364 41.9895 0.0606373 41.291 0.0080198 40.5453C-0.0445977 39.7996 0.197093 39.0624 0.684257 38.4826C1.17142 37.9028 1.86773 37.5236 2.6325 37.4217L3.04688 37.3942H54.1612L54.3563 37.4021L54.5959 37.3745L55.3109 37.3391C56.0071 37.2583 56.6698 37.0044 57.2346 36.6021C57.7994 36.1998 58.2471 35.6628 58.534 35.0433C58.8209 34.4239 58.9373 33.7431 58.872 33.0672C58.8066 32.3913 58.5617 31.7432 58.161 31.1861C57.7603 30.629 57.2176 30.1818 56.5855 29.8879C55.9534 29.5941 55.2535 29.4637 54.5539 29.5094C53.8543 29.555 53.1788 29.7752 52.5932 30.1486C52.0076 30.5219 51.5317 31.0356 51.2119 31.6397L50.8462 32.4539C50.4862 33.1159 49.8798 33.6206 49.1499 33.866C48.4199 34.1114 47.6209 34.0792 46.9146 33.7757C46.2084 33.4723 45.6475 32.9204 45.3457 32.2317C45.0438 31.543 45.0234 30.7691 45.2887 30.0664C46.0034 28.171 47.3026 26.534 49.0103 25.3774C50.7179 24.2207 52.7516 23.6002 54.8356 23.6ZM30.4606 3.91367C34.0849 3.90436 37.5761 5.23543 40.2208 7.63487C42.8654 10.0343 44.4639 13.321 44.6895 16.8233C44.9151 20.3255 43.7509 23.7791 41.4347 26.4781C39.1185 29.1771 35.8252 30.9179 32.2278 31.3447L31.8216 31.4234L31.4031 31.447H3.04688C2.2749 31.4468 1.5318 31.1628 0.967721 30.6526C0.40364 30.1423 0.0606373 29.4438 0.0080198 28.6981C-0.0445977 27.9524 0.197093 27.2152 0.684257 26.6354C1.17142 26.0556 1.86773 25.6764 2.6325 25.5745L3.04688 25.547H30.4647C32.0717 25.547 33.6425 25.0856 34.9787 24.2212C36.3148 23.3568 37.3562 22.1282 37.9712 20.6908C38.5862 19.2533 38.7471 17.6716 38.4336 16.1456C38.1201 14.6196 37.3462 13.2179 36.2099 12.1178C35.0736 11.0176 33.6259 10.2684 32.0498 9.96482C30.4737 9.66129 28.84 9.81707 27.3554 10.4125C25.8707 11.0079 24.6018 12.0162 23.709 13.3098C22.8162 14.6035 22.3397 16.1245 22.3397 17.6803C22.3397 18.4627 22.0187 19.2131 21.4473 19.7663C20.8759 20.3195 20.1009 20.6303 19.2928 20.6303C18.4847 20.6303 17.7097 20.3195 17.1383 19.7663C16.5669 19.2131 16.2459 18.4627 16.2459 17.6803C16.2459 14.0292 17.744 10.5276 20.4105 7.94583C23.077 5.36408 26.6936 3.91367 30.4647 3.91367H30.4606ZM4.0625 3.93333C5.13994 3.93333 6.17325 4.34774 6.93512 5.08538C7.69699 5.82302 8.125 6.82348 8.125 7.86667C8.125 8.90985 7.69699 9.91031 6.93512 10.648C6.17325 11.3856 5.13994 11.8 4.0625 11.8C2.98506 11.8 1.95175 11.3856 1.18988 10.648C0.428012 9.91031 0 8.90985 0 7.86667C0 6.82348 0.428012 5.82302 1.18988 5.08538C1.95175 4.34774 2.98506 3.93333 4.0625 3.93333ZM60.9375 0C62.0149 0 63.0483 0.414403 63.8101 1.15205C64.572 1.88969 65 2.89015 65 3.93333C65 4.97652 64.572 5.97698 63.8101 6.71462C63.0483 7.45226 62.0149 7.86667 60.9375 7.86667C59.8601 7.86667 58.8267 7.45226 58.0649 6.71462C57.303 5.97698 56.875 4.97652 56.875 3.93333C56.875 2.89015 57.303 1.88969 58.0649 1.15205C58.8267 0.414403 59.8601 0 60.9375 0Z" fill="#0066FF"/>
</svg>
